<svg width="211" height="52" viewBox="0 0 211 52" fill="none" xmlns="http://www.w3.org/2000/svg">
<g clip-path="url(#clip0_895_446)">
<path d="M56.3334 29.4447C56.3334 22.4299 61.4716 17.381 68.5311 17.381C75.5905 17.381 80.7286 22.4299 80.7286 29.4447C80.7286 36.4593 75.5905 41.5082 68.5311 41.5082C61.5163 41.5082 56.3334 36.4593 56.3334 29.4447ZM75.6351 29.4447C75.6351 25.0659 72.8203 21.7597 68.5311 21.7597C64.2417 21.7597 61.4716 25.0659 61.4716 29.4447C61.4716 33.7786 64.2417 37.1296 68.5311 37.1296C72.8203 37.0849 75.6351 33.7786 75.6351 29.4447Z" fill="white"/>
<path d="M82.6498 37.7967L85.3305 33.999C86.9837 35.6968 89.5305 37.1266 92.7474 37.1266C95.4729 37.1266 96.8133 35.8755 96.8133 34.5351C96.8133 30.4245 83.3646 33.2394 83.3646 24.4374C83.3646 20.5503 86.7156 17.3333 92.2113 17.3333C95.9196 17.3333 99.0026 18.4503 101.326 20.5949L98.5558 24.214C96.6793 22.4716 94.1325 21.6673 91.7644 21.6673C89.6198 21.6673 88.4582 22.6056 88.4582 23.9906C88.4582 27.6991 101.863 25.197 101.863 33.9096C101.863 38.1989 98.8239 41.4158 92.524 41.4158C88.056 41.5052 84.8391 39.986 82.6498 37.7967Z" fill="white"/>
<path d="M125.542 41.1023V24.7494L118.975 41.1023H116.786L110.217 24.7494V41.1023H105.258V17.7347H112.228L117.902 31.8535L123.577 17.7347H130.592V41.0575H125.542V41.1023Z" fill="white"/>
<path d="M134.032 29.442C134.032 22.4274 139.17 17.3785 146.229 17.3785C153.29 17.3785 158.428 22.4274 158.428 29.442C158.428 36.4568 153.29 41.5057 146.229 41.5057C139.17 41.5057 134.032 36.4568 134.032 29.442ZM153.334 29.442C153.334 25.0634 150.518 21.7571 146.229 21.7571C141.941 21.7571 139.17 25.0634 139.17 29.442C139.17 33.776 141.941 37.127 146.229 37.127C150.518 37.0824 153.334 33.776 153.334 29.442Z" fill="white"/>
<path d="M160.349 37.7967L163.03 33.999C164.682 35.6968 167.229 37.1266 170.446 37.1266C173.172 37.1266 174.512 35.8755 174.512 34.5351C174.512 30.4245 161.064 33.2394 161.064 24.4374C161.064 20.5503 164.414 17.3333 169.91 17.3333C173.618 17.3333 176.702 18.4503 179.025 20.5949L176.254 24.214C174.378 22.4716 171.831 21.6673 169.464 21.6673C167.319 21.6673 166.157 22.6056 166.157 23.9906C166.157 27.6991 179.56 25.197 179.56 33.9096C179.56 38.1989 176.523 41.4158 170.223 41.4158C165.754 41.5052 162.538 39.986 160.349 37.7967Z" fill="white"/>
<path d="M182.912 41.1023V17.7347H187.916V41.0575H182.912V41.1023Z" fill="white"/>
<path d="M190.955 37.7967L193.635 33.999C195.288 35.6968 197.835 37.1266 201.051 37.1266C203.777 37.1266 205.118 35.8755 205.118 34.5351C205.118 30.4245 191.669 33.2394 191.669 24.4374C191.669 20.5503 195.021 17.3333 200.516 17.3333C204.225 17.3333 207.307 18.4503 209.63 20.5949L206.86 24.214C204.984 22.4716 202.437 21.6673 200.069 21.6673C197.924 21.6673 196.763 22.6056 196.763 23.9906C196.763 27.6991 210.167 25.197 210.167 33.9096C210.167 38.1989 207.129 41.4158 200.828 41.4158C196.316 41.5052 193.099 39.986 190.955 37.7967Z" fill="white"/>
<path d="M47.5278 9.1923C46.9985 7.1539 45.297 5.11539 42.2344 2.84615C39.7767 1.03846 37.1678 0 35.0882 0C34.6723 0 34.2942 0.0384585 33.9161 0.115386C32.9709 0.307688 32.139 1 31.6097 2.03846C30.9669 3.26923 30.8157 4.9231 31.2316 5.92312C31.3828 6.23079 31.5718 6.61537 31.7987 6.9615C29.7947 8.19227 28.6604 8.53851 28.5092 8.57697C33.727 10.3462 38.0752 14.0385 40.7976 18.8461L40.8354 18.3846C40.9489 17.1154 41.3269 15.6538 41.8563 14.1539C42.3857 14.3077 42.915 14.3846 43.4443 14.3846C44.8433 14.3846 46.0533 13.8077 46.8095 12.7692C47.5656 11.7308 47.8682 10.3462 47.5278 9.1923Z" fill="white"/>
<path d="M42.0832 13.0385C45.5239 14 46.9228 11.3077 46.4691 9.5001C45.9776 7.69234 44.3896 5.84623 41.5917 3.76929C38.7936 1.69236 35.9579 0.846215 34.143 1.23083C32.3281 1.61545 31.7986 4.42316 32.2525 5.50011C32.4415 5.92315 32.8574 6.53848 33.4245 7.23084C32.7062 7.7308 32.0255 8.11549 31.4584 8.46161C34.937 10.0385 37.9618 12.5001 40.2304 15.5769C40.4951 14.5385 40.8732 13.6155 41.2135 12.8077C41.4781 12.8462 41.7807 12.9231 42.0832 13.0385Z" fill="url(#paint0_radial_895_446)"/>
<path d="M22.3838 50.7308C34.0569 50.7308 43.5198 41.1049 43.5198 29.2308C43.5198 17.3566 34.0569 7.73077 22.3838 7.73077C10.7106 7.73077 1.24768 17.3566 1.24768 29.2308C1.24768 41.1049 10.7106 50.7308 22.3838 50.7308Z" fill="url(#paint1_radial_895_446)"/>
<path opacity="0.6" d="M44.7299 7.73077C41.8564 4.65389 39.4365 3.84617 36.5251 3.19232C34.2564 2.65386 34.8614 1.34617 37.6216 1.6154C36.2982 1.15387 35.0504 1.03848 34.143 1.23078C32.3281 1.6154 31.7987 4.42314 32.2525 5.49997C32.4415 5.92312 32.8574 6.53846 33.4246 7.23081C32.4037 7.92306 31.534 8.42313 30.8157 8.80772C31.1559 8.96155 31.5718 9.15384 32.0635 9.42305C33.3489 10.1154 34.748 11.2693 34.748 11.2693C32.6306 9.42305 33.0843 8.57697 35.9957 6.5C36.9031 5.84621 38.5668 5.92312 40.1171 6.73075C41.6673 7.53848 43.4822 9.57699 43.4822 9.57699L41.7429 12.9615C41.8564 13 41.9698 13.0385 42.0832 13.0769C43.1798 13.3846 44.0493 13.3077 44.7299 13.0385C45.524 12.5385 47.6035 10.8462 44.7299 7.73077Z" fill="#989898"/>
<path d="M36.4872 5.03846C37.2435 5.34612 38.2265 5.88454 39.4365 6.69227C40.8733 7.65384 42.121 8.73067 42.9151 9.57686C41.5917 11.3461 40.722 13.7691 40.1926 15.4615C40.4573 15.8461 40.7598 16.2307 41.0245 16.6153C41.2892 15.6538 41.7429 14.2308 42.3478 12.8076C42.4991 12.8461 42.6881 12.8461 42.8772 12.8461C43.3309 12.8461 43.8603 12.7691 44.2762 12.423C44.5786 12.1922 44.919 11.7692 44.8812 10.9999C44.8812 10.2692 44.314 9.34611 43.1419 8.23071C42.31 7.42298 41.1758 6.53844 40.0414 5.73071C36.7897 3.53841 34.5211 2.92302 33.5002 3.96148C32.8196 4.65376 32.8952 5.49996 33.122 6.11529C31.9122 6.92302 30.8912 7.4999 30.2107 7.88459C30.6644 8.03842 31.0803 8.23071 31.5341 8.42301C32.744 7.76921 34.4833 6.65381 36.4872 5.03846ZM43.6334 10.5384C43.7468 10.7307 43.7846 10.923 43.7846 11.0384C43.7846 11.3845 43.6712 11.5 43.5956 11.5769C43.4444 11.6923 43.1419 11.7692 42.8772 11.7692C43.1041 11.3076 43.3688 10.923 43.6334 10.5384ZM34.2942 4.8076C34.4076 4.69222 34.7101 4.61531 35.2017 4.69222C34.8235 5 34.4454 5.26921 34.0674 5.53841C34.0296 5.26921 34.0674 5 34.2942 4.8076Z" fill="white"/>
<path d="M22.3838 6.46143C10.0198 6.46143 0 16.6538 0 29.2307C0 41.8077 10.0198 52 22.3838 52C34.7479 52 44.7677 41.8077 44.7677 29.2307C44.7677 16.6538 34.7101 6.46143 22.3838 6.46143ZM22.3838 50.7308C10.7004 50.7308 1.24775 41.1153 1.24775 29.2307C1.24775 17.3461 10.7004 7.73066 22.3838 7.73066C34.0673 7.73066 43.5199 17.3461 43.5199 29.2307C43.5199 41.1153 34.0295 50.7308 22.3838 50.7308Z" fill="white"/>
<path opacity="0.6" d="M22.3838 50.7308C34.0569 50.7308 43.5198 41.1049 43.5198 29.2308C43.5198 17.3566 34.0569 7.73077 22.3838 7.73077C10.7106 7.73077 1.24768 17.3566 1.24768 29.2308C1.24768 41.1049 10.7106 50.7308 22.3838 50.7308Z" fill="url(#paint2_linear_895_446)"/>
<path opacity="0.6" d="M22.2327 48.1154C10.7004 46.2307 2.87361 35.1923 4.76413 23.4615C5.59602 18.2692 8.1671 13.8461 11.7969 10.6538C6.50342 13.7692 2.57114 19.1922 1.51245 25.8077C-0.340265 37.5385 7.48655 48.5769 18.9809 50.4614C25.4087 51.5384 31.6097 49.5 36.1847 45.5C32.139 47.8845 27.2236 48.923 22.2327 48.1154Z" fill="#989898"/>
<path opacity="0.6" d="M25.749 8.03855C20.4177 7.1539 15.2376 8.38468 11.0029 11.1154C10.9273 11.1924 10.8516 11.2693 10.8516 11.2693C12.4775 10.2694 14.8595 9.3847 14.8595 9.3847C8.73427 13.0001 6.84375 17.1155 6.84375 17.1155C9.22578 12.4231 16.2208 9.11549 21.7033 8.88463C27.1858 8.65388 30.7778 10.3078 35.1638 13.8847C39.5498 17.5001 42.1966 24.8847 41.9319 30.7308C41.705 36.577 38.6802 41.3077 38.6802 41.3077C40.7598 38.577 42.0076 36.577 42.8015 34.5385C42.9528 33.9232 43.104 33.3077 43.1796 32.6539C45.0701 20.9616 37.2812 9.92312 25.749 8.03855Z" fill="url(#paint3_linear_895_446)"/>
<path d="M42.4613 29.0384C42.4613 40.3077 33.4624 49.4615 22.3839 49.4615C11.3054 49.4615 2.26868 40.3077 2.26868 29.0384H42.4613Z" fill="url(#paint4_linear_895_446)"/>
<g opacity="0.6">
<path opacity="0.6" d="M40.8732 29.0384C40.8732 40.0383 32.3279 49.0384 21.5897 49.4615C21.8545 49.4615 22.1191 49.4615 22.3838 49.4615C33.4623 49.4615 42.4612 40.3077 42.4612 29.0384H40.8732Z" fill="url(#paint5_linear_895_446)"/>
</g>
<g opacity="0.7">
<path opacity="0.7" d="M5.10452 29.0384H2.26868C2.26868 40.3077 11.2676 49.4615 22.3461 49.4615C22.8376 49.4615 23.2913 49.4615 23.7451 49.423C13.3472 48.6538 5.10452 39.8076 5.10452 29.0384Z" fill="url(#paint6_linear_895_446)"/>
</g>
<path d="M42.4235 29.2307C42.4235 26.8846 38.4155 25.5385 33.0843 25.0769C29.2276 24.7692 25.3331 25.1538 20.8715 26.5384C17.0148 27.6923 13.5362 27.5 11.0029 27.1923C5.36918 26.5384 2.26868 26.4615 2.26868 29.2307C2.26868 33.2307 10.2845 38.2307 22.3083 36.5C28.3958 35.6153 31.5341 33.8077 35.1261 32.5769C39.0205 31.2692 42.4235 31.3077 42.4235 29.2307Z" fill="url(#paint7_linear_895_446)"/>
<path d="M28.9629 19.5385C30.8423 19.5385 32.3659 17.9886 32.3659 16.0769C32.3659 14.1651 30.8423 12.6154 28.9629 12.6154C27.0835 12.6154 25.5599 14.1651 25.5599 16.0769C25.5599 17.9886 27.0835 19.5385 28.9629 19.5385Z" fill="white"/>
<path d="M34.5211 22.1154C35.3146 22.1154 35.9579 21.4609 35.9579 20.6538C35.9579 19.8466 35.3146 19.1922 34.5211 19.1922C33.7275 19.1922 33.0842 19.8466 33.0842 20.6538C33.0842 21.4609 33.7275 22.1154 34.5211 22.1154Z" fill="white"/>
<g opacity="0.6">
<path opacity="0.6" d="M39.6631 13.3076C39.6253 13.3076 39.5875 13.3076 39.5875 13.3076C39.3607 13.2692 39.2094 13.0384 39.2472 12.7692C39.5875 10.9999 41.0243 9.30764 41.1 9.23073C41.2512 9.03843 41.5537 9.03843 41.7049 9.19227C41.8939 9.3461 41.8939 9.65377 41.7427 9.8076C41.7049 9.84606 40.3815 11.4231 40.079 12.9615C40.0412 13.1923 39.8522 13.3076 39.6631 13.3076Z" fill="url(#paint8_linear_895_446)"/>
</g>
<path opacity="0.2" d="M20.9873 45.2693C21.572 45.2693 22.0461 44.7871 22.0461 44.1924C22.0461 43.5976 21.572 43.1154 20.9873 43.1154C20.4027 43.1154 19.9286 43.5976 19.9286 44.1924C19.9286 44.7871 20.4027 45.2693 20.9873 45.2693Z" fill="white"/>
<g opacity="0.4">
<path opacity="0.6" d="M20.3799 44.8856C19.964 44.4626 19.964 43.7702 20.3799 43.3472C20.4555 43.2703 20.5311 43.2318 20.6068 43.1549C20.4555 43.1934 20.3421 43.2703 20.2287 43.3857C19.8128 43.8087 19.8128 44.5011 20.2287 44.9241C20.5689 45.2703 21.0983 45.3472 21.5143 45.1164C21.1361 45.2703 20.6824 45.1934 20.3799 44.8856Z" fill="url(#paint9_linear_895_446)"/>
</g>
<path opacity="0.3" d="M21.363 43.8845C21.4883 43.8845 21.5899 43.7812 21.5899 43.6538C21.5899 43.5263 21.4883 43.423 21.363 43.423C21.2377 43.423 21.1361 43.5263 21.1361 43.6538C21.1361 43.7812 21.2377 43.8845 21.363 43.8845Z" fill="white"/>
<path opacity="0.2" d="M26.5077 44.7308C27.0924 44.7308 27.5663 44.2487 27.5663 43.6539C27.5663 43.0592 27.0924 42.577 26.5077 42.577C25.923 42.577 25.449 43.0592 25.449 43.6539C25.449 44.2487 25.923 44.7308 26.5077 44.7308Z" fill="white"/>
<g opacity="0.4">
<path opacity="0.6" d="M25.9002 44.3471C25.4843 43.9241 25.4843 43.2317 25.9002 42.8087C25.9758 42.7318 26.0514 42.6933 26.127 42.6164C25.9758 42.6549 25.8624 42.7318 25.7489 42.8471C25.333 43.2702 25.333 43.9625 25.7489 44.3856C26.0892 44.7318 26.6185 44.8087 27.0345 44.5779C26.6563 44.7318 26.2026 44.6549 25.9002 44.3471Z" fill="url(#paint10_linear_895_446)"/>
</g>
<path opacity="0.3" d="M26.8833 43.3461C27.0087 43.3461 27.1102 43.2428 27.1102 43.1154C27.1102 42.9879 27.0087 42.8846 26.8833 42.8846C26.7581 42.8846 26.6565 42.9879 26.6565 43.1154C26.6565 43.2428 26.7581 43.3461 26.8833 43.3461Z" fill="white"/>
<path opacity="0.2" d="M23.7827 47.2307C24.2213 47.2307 24.5768 46.8691 24.5768 46.4231C24.5768 45.977 24.2213 45.6154 23.7827 45.6154C23.3442 45.6154 22.9888 45.977 22.9888 46.4231C22.9888 46.8691 23.3442 47.2307 23.7827 47.2307Z" fill="white"/>
<g opacity="0.4">
<path opacity="0.6" d="M23.329 46.924C23.0266 46.6164 23.0266 46.0779 23.329 45.7702C23.3669 45.7317 23.4425 45.6932 23.4803 45.6548C23.3669 45.6932 23.2912 45.7703 23.2156 45.8472C22.9132 46.1549 22.9132 46.6933 23.2156 47.0009C23.4803 47.2703 23.8584 47.3087 24.1986 47.1164C23.8962 47.2318 23.5559 47.1549 23.329 46.924Z" fill="url(#paint11_linear_895_446)"/>
</g>
<path opacity="0.3" d="M24.0475 46.1538C24.131 46.1538 24.1987 46.085 24.1987 46C24.1987 45.915 24.131 45.8461 24.0475 45.8461C23.9639 45.8461 23.8962 45.915 23.8962 46C23.8962 46.085 23.9639 46.1538 24.0475 46.1538Z" fill="white"/>
<path opacity="0.2" d="M28.6603 46.6537C29.0988 46.6537 29.4544 46.2921 29.4544 45.8461C29.4544 45.4 29.0988 45.0384 28.6603 45.0384C28.2218 45.0384 27.8663 45.4 27.8663 45.8461C27.8663 46.2921 28.2218 46.6537 28.6603 46.6537Z" fill="white"/>
<g opacity="0.4">
<path opacity="0.6" d="M28.2066 46.3472C27.9041 46.0395 27.9041 45.501 28.2066 45.1933C28.2444 45.1549 28.32 45.1164 28.3578 45.0779C28.2444 45.1164 28.1688 45.1933 28.0932 45.2702C27.7907 45.578 27.7907 46.1164 28.0932 46.4241C28.3578 46.6933 28.7359 46.7318 29.0762 46.5395C28.7737 46.6548 28.4335 46.5779 28.2066 46.3472Z" fill="url(#paint12_linear_895_446)"/>
</g>
<path opacity="0.3" d="M28.9252 45.5769C29.0087 45.5769 29.0764 45.508 29.0764 45.4231C29.0764 45.3381 29.0087 45.2692 28.9252 45.2692C28.8416 45.2692 28.7739 45.3381 28.7739 45.4231C28.7739 45.508 28.8416 45.5769 28.9252 45.5769Z" fill="white"/>
<path opacity="0.2" d="M16.4854 44.8847C17.4459 44.8847 18.2246 44.0926 18.2246 43.1154C18.2246 42.1383 17.4459 41.3462 16.4854 41.3462C15.5248 41.3462 14.7461 42.1383 14.7461 43.1154C14.7461 44.0926 15.5248 44.8847 16.4854 44.8847Z" fill="white"/>
<g opacity="0.4">
<path opacity="0.6" d="M15.5033 44.2308C14.8227 43.5384 14.8227 42.423 15.5033 41.7308C15.6168 41.6154 15.7302 41.5385 15.8814 41.4615C15.6546 41.5385 15.4654 41.6923 15.2764 41.8461C14.5959 42.5384 14.5959 43.6538 15.2764 44.3461C15.8436 44.923 16.7132 45.0384 17.3938 44.6153C16.751 44.8846 15.9949 44.7692 15.5033 44.2308Z" fill="url(#paint13_linear_895_446)"/>
</g>
<path opacity="0.3" d="M17.0904 42.5769C17.2992 42.5769 17.4686 42.4046 17.4686 42.1923C17.4686 41.9799 17.2992 41.8076 17.0904 41.8076C16.8816 41.8076 16.7123 41.9799 16.7123 42.1923C16.7123 42.4046 16.8816 42.5769 17.0904 42.5769Z" fill="white"/>
<path opacity="0.2" d="M32.0265 40.5385C32.9871 40.5385 33.7658 39.7465 33.7658 38.7693C33.7658 37.7921 32.9871 37.0001 32.0265 37.0001C31.0659 37.0001 30.2872 37.7921 30.2872 38.7693C30.2872 39.7465 31.0659 40.5385 32.0265 40.5385Z" fill="white"/>
<g opacity="0.4">
<path opacity="0.6" d="M31.0047 39.8846C30.324 39.1923 30.324 38.0769 31.0047 37.3846C31.1181 37.2692 31.2315 37.1923 31.3828 37.1154C31.1559 37.1923 30.9669 37.3461 30.7778 37.4999C30.0972 38.1923 30.0972 39.3077 30.7778 39.9999C31.345 40.5769 32.2145 40.6923 32.8952 40.2693C32.2524 40.5385 31.534 40.4231 31.0047 39.8846Z" fill="url(#paint14_linear_895_446)"/>
</g>
<path opacity="0.3" d="M32.6304 38.2308C32.8393 38.2308 33.0086 38.0586 33.0086 37.8461C33.0086 37.6337 32.8393 37.4615 32.6304 37.4615C32.4216 37.4615 32.2523 37.6337 32.2523 37.8461C32.2523 38.0586 32.4216 38.2308 32.6304 38.2308Z" fill="white"/>
</g>
<defs>
<radialGradient id="paint0_radial_895_446" cx="0" cy="0" r="1" gradientUnits="userSpaceOnUse" gradientTransform="translate(45.7795 7.0769) scale(16.8991 17.1901)">
<stop stop-color="#F5F5F5" stop-opacity="0.6"/>
<stop offset="0.6807" stop-color="#A8A8A8"/>
<stop offset="1" stop-color="#181818"/>
</radialGradient>
<radialGradient id="paint1_radial_895_446" cx="0" cy="0" r="1" gradientUnits="userSpaceOnUse" gradientTransform="translate(36.3776 14.4082) scale(41.3462 42.0581)">
<stop stop-color="#F5F5F5" stop-opacity="0.6"/>
<stop offset="0.6807" stop-color="#A8A8A8"/>
<stop offset="1" stop-color="#181818"/>
</radialGradient>
<linearGradient id="paint2_linear_895_446" x1="18.9934" y1="50.4258" x2="25.9824" y2="8.03779" gradientUnits="userSpaceOnUse">
<stop stop-color="#C0C0C0"/>
<stop offset="0.6202" stop-color="white" stop-opacity="0"/>
</linearGradient>
<linearGradient id="paint3_linear_895_446" x1="37.2793" y1="14.6296" x2="19.5295" y2="30.6399" gradientUnits="userSpaceOnUse">
<stop offset="0.2888" stop-color="white"/>
<stop offset="0.7796" stop-color="white" stop-opacity="0"/>
</linearGradient>
<linearGradient id="paint4_linear_895_446" x1="2.28569" y1="39.238" x2="42.4516" y2="39.238" gradientUnits="userSpaceOnUse">
<stop stop-color="#757575"/>
<stop offset="0.9952" stop-color="#808080"/>
</linearGradient>
<linearGradient id="paint5_linear_895_446" x1="44.3527" y1="30.8304" x2="22.1389" y2="51.4685" gradientUnits="userSpaceOnUse">
<stop offset="0.2888" stop-color="white"/>
<stop offset="0.7796" stop-color="white" stop-opacity="0"/>
</linearGradient>
<linearGradient id="paint6_linear_895_446" x1="2.28569" y1="39.238" x2="23.7743" y2="39.238" gradientUnits="userSpaceOnUse">
<stop stop-color="#494949"/>
<stop offset="0.9952" stop-color="#646464"/>
</linearGradient>
<linearGradient id="paint7_linear_895_446" x1="2.31266" y1="30.9274" x2="42.4246" y2="30.9274" gradientUnits="userSpaceOnUse">
<stop stop-color="#494949"/>
<stop offset="0.9952" stop-color="#646464"/>
</linearGradient>
<linearGradient id="paint8_linear_895_446" x1="41.7663" y1="9.04342" x2="38.8114" y2="13.7637" gradientUnits="userSpaceOnUse">
<stop offset="0.2888" stop-color="white"/>
<stop offset="0.7796" stop-color="white" stop-opacity="0"/>
</linearGradient>
<linearGradient id="paint9_linear_895_446" x1="19.9157" y1="44.2263" x2="21.5153" y2="44.2263" gradientUnits="userSpaceOnUse">
<stop offset="0.2888" stop-color="white"/>
<stop offset="0.7796" stop-color="white" stop-opacity="0"/>
</linearGradient>
<linearGradient id="paint10_linear_895_446" x1="25.4321" y1="43.6806" x2="27.0318" y2="43.6806" gradientUnits="userSpaceOnUse">
<stop offset="0.2888" stop-color="white"/>
<stop offset="0.7796" stop-color="white" stop-opacity="0"/>
</linearGradient>
<linearGradient id="paint11_linear_895_446" x1="22.9838" y1="46.4333" x2="24.1848" y2="46.4333" gradientUnits="userSpaceOnUse">
<stop offset="0.2888" stop-color="white"/>
<stop offset="0.7796" stop-color="white" stop-opacity="0"/>
</linearGradient>
<linearGradient id="paint12_linear_895_446" x1="27.845" y1="45.8549" x2="29.046" y2="45.8549" gradientUnits="userSpaceOnUse">
<stop offset="0.2888" stop-color="white"/>
<stop offset="0.7796" stop-color="white" stop-opacity="0"/>
</linearGradient>
<linearGradient id="paint13_linear_895_446" x1="14.7486" y1="43.1604" x2="17.3612" y2="43.1604" gradientUnits="userSpaceOnUse">
<stop offset="0.2888" stop-color="white"/>
<stop offset="0.7796" stop-color="white" stop-opacity="0"/>
</linearGradient>
<linearGradient id="paint14_linear_895_446" x1="30.2644" y1="38.8129" x2="32.877" y2="38.8129" gradientUnits="userSpaceOnUse">
<stop offset="0.2888" stop-color="white"/>
<stop offset="0.7796" stop-color="white" stop-opacity="0"/>
</linearGradient>
<clipPath id="clip0_895_446">
<rect width="210.167" height="52" fill="white"/>
</clipPath>
</defs>
</svg>
