<svg
  width="100%"
  height="100%"
  viewBox="0 0 100 25"
  fill="none"
  xmlns="http://www.w3.org/2000/svg"
  preserveAspectRatio="xMidYMid meet"
>
  <g clip-path="url(#clip0_1347_10092)">
    <path d="M29.0273 18.3702V2.5H39.2255V4.56127H31.4815V9.39671H38.1168V11.4503H31.4815V16.3089H39.3208V18.3702H29.0273Z" fill="white"/>
    <path d="M44.9139 2.5V18.3702H42.5391V2.5H44.9139Z" fill="white"/>
    <path d="M48.332 18.3704V6.46777H50.7069V18.3704H48.332Z" fill="white"/>
    <path d="M56.0004 6.4668L58.693 11.1008L61.4092 6.4668H64.0065L60.202 12.4181L64.0383 18.3694H61.441L58.693 13.9215L55.9527 18.3694H53.3477L57.1442 12.4181L53.3953 6.4668H56.0004Z" fill="white"/>
    <path d="M66.668 18.3704V6.46777H69.0427V18.3704H66.668Z" fill="white"/>
    <path d="M72.4609 18.37V6.4673H74.7563V8.35808H74.8833C75.1058 7.71749 75.4976 7.21379 76.0588 6.847C76.6255 6.47504 77.2661 6.28906 77.981 6.28906C78.1293 6.28906 78.3039 6.29423 78.5051 6.30456C78.7117 6.3149 78.8731 6.32781 78.9896 6.34331V8.55956C78.8943 8.53372 78.7248 8.5053 78.4814 8.47431C78.2378 8.43815 77.9942 8.42007 77.7506 8.42007C77.1894 8.42007 76.689 8.53631 76.2495 8.76878C75.8153 8.99609 75.4712 9.3138 75.217 9.72192C74.9628 10.1249 74.8357 10.5847 74.8357 11.1013V18.37H72.4609Z" fill="white"/>
    <path d="M48.332 4.6954V2.50195H50.7069V4.6954H48.332Z" fill="white"/>
    <path d="M66.668 4.6954V2.50195H69.0427V4.6954H66.668Z" fill="white"/>
    <path d="M10.6457 0C4.76257 0 0 4.67396 0 10.4477C0 16.2214 4.76257 20.8953 10.6457 20.8953C16.5289 20.8953 21.2914 16.2214 21.2914 10.4477C21.2914 4.67396 16.5289 0 10.6457 0ZM10.6457 18.865C5.90471 18.865 2.06881 15.1005 2.06881 10.4477C2.06881 9.64402 2.47825 7.7829 5.40907 7.7829C8.33987 7.7829 10.9474 10.5746 14.4601 10.9764C15.6454 11.1245 16.5936 11.1033 17.3047 11.0187C18.3391 10.8918 19.1796 11.8647 18.8779 12.8587C17.8219 16.3272 14.5463 18.865 10.6457 18.865Z" fill="white"/>
  </g>
  <defs>
    <clipPath id="clip0_1347_10092">
      <rect width="100%" height="100%" fill="white"/>
    </clipPath>
  </defs>
</svg>
