<svg id="svg" version="1.1" xmlns="http://www.w3.org/2000/svg" xmlns:xlink="http://www.w3.org/1999/xlink" width="400" height="134" viewBox="0, 0, 400,134"><g id="svgg"><path id="path0" d="M14.000 21.177 C 14.000 21.229,13.663 21.246,13.252 21.215 C 12.593 21.165,12.429 21.227,11.877 21.733 L 11.250 22.308 11.250 46.310 L 11.250 70.311 11.740 70.822 C 12.277 71.383,12.988 71.500,13.333 71.083 C 13.447 70.946,13.677 70.833,13.844 70.833 C 14.011 70.833,14.658 70.385,15.282 69.836 C 15.906 69.288,16.512 68.838,16.628 68.836 C 16.745 68.835,17.636 68.083,18.608 67.167 C 19.580 66.250,20.488 65.500,20.625 65.500 C 20.762 65.500,21.489 64.900,22.240 64.167 C 22.991 63.433,23.734 62.833,23.890 62.833 C 24.046 62.833,24.969 62.083,25.941 61.167 C 26.914 60.250,27.821 59.500,27.958 59.500 C 28.095 59.500,28.817 58.909,29.562 58.186 C 30.307 57.464,31.104 56.816,31.333 56.746 C 31.563 56.676,32.489 55.917,33.391 55.060 C 34.294 54.202,35.151 53.500,35.296 53.500 C 35.675 53.500,40.620 48.540,40.748 48.033 C 40.806 47.800,40.999 47.425,41.177 47.199 C 41.355 46.973,41.500 46.717,41.500 46.631 C 41.500 46.544,41.753 46.160,42.063 45.778 C 42.373 45.396,42.682 44.896,42.749 44.667 C 42.817 44.438,42.983 44.125,43.117 43.971 C 43.252 43.818,43.403 43.368,43.453 42.971 C 43.503 42.575,43.653 42.125,43.786 41.971 C 43.919 41.818,44.069 41.368,44.119 40.971 C 44.169 40.575,44.332 40.111,44.480 39.941 C 44.682 39.710,44.764 39.198,44.807 37.908 C 44.847 36.682,44.931 36.126,45.098 35.988 C 45.439 35.705,45.440 30.963,45.100 30.680 C 44.966 30.570,44.816 29.992,44.750 29.338 C 44.669 28.526,44.542 28.106,44.318 27.902 C 44.143 27.744,44.000 27.454,44.000 27.257 C 44.000 27.060,43.737 26.644,43.417 26.333 C 43.096 26.022,42.833 25.628,42.833 25.457 C 42.833 25.055,41.263 23.394,40.765 23.269 C 40.554 23.216,40.097 22.912,39.750 22.594 C 39.403 22.276,38.910 21.970,38.654 21.914 C 38.399 21.858,38.102 21.706,37.995 21.577 C 37.718 21.243,36.678 21.079,36.307 21.311 C 36.089 21.447,36.000 21.450,36.000 21.320 C 36.000 21.201,35.649 21.157,35.000 21.194 C 34.450 21.225,34.000 21.212,34.000 21.167 C 34.000 21.121,29.500 21.083,24.000 21.083 C 18.500 21.083,14.000 21.126,14.000 21.177 M37.231 21.470 C 37.278 21.545,37.095 21.574,36.825 21.534 C 36.554 21.495,36.333 21.433,36.333 21.398 C 36.333 21.271,37.149 21.336,37.231 21.470 M11.515 23.292 C 11.453 23.751,11.415 23.814,11.369 23.530 C 11.312 23.173,11.415 22.667,11.545 22.667 C 11.575 22.667,11.562 22.948,11.515 23.292 M40.220 23.194 C 40.523 23.497,40.606 23.644,40.415 23.540 C 40.072 23.352,39.430 22.667,39.598 22.667 C 39.650 22.667,39.930 22.904,40.220 23.194 M80.750 29.288 C 80.475 29.327,80.006 29.593,79.707 29.879 C 79.409 30.166,78.922 30.479,78.624 30.575 C 78.231 30.702,78.035 30.898,77.909 31.291 C 77.812 31.588,77.503 32.076,77.221 32.374 C 76.877 32.739,76.672 33.161,76.596 33.662 C 76.535 34.072,76.364 34.541,76.216 34.704 C 75.970 34.976,75.971 35.025,76.224 35.305 C 76.414 35.514,76.500 35.910,76.500 36.569 C 76.500 37.516,76.513 37.543,77.511 38.581 C 78.643 39.760,78.645 39.750,77.216 39.913 C 76.647 39.978,76.094 40.137,75.987 40.265 C 75.880 40.394,75.512 40.500,75.169 40.500 C 74.797 40.500,74.374 40.635,74.121 40.833 C 73.883 41.021,73.445 41.167,73.121 41.167 C 72.797 41.167,72.359 41.313,72.121 41.500 C 71.883 41.687,71.445 41.833,71.121 41.833 C 70.797 41.833,70.359 41.979,70.121 42.167 C 69.883 42.354,69.445 42.500,69.121 42.500 C 68.797 42.500,68.359 42.646,68.121 42.833 C 67.888 43.017,67.588 43.167,67.455 43.167 C 67.321 43.167,67.021 43.317,66.788 43.500 C 66.555 43.683,66.255 43.833,66.121 43.833 C 65.988 43.833,65.688 43.983,65.455 44.167 C 65.221 44.350,64.910 44.500,64.762 44.500 C 64.614 44.500,64.167 44.800,63.769 45.167 C 63.372 45.533,62.933 45.833,62.796 45.833 C 62.658 45.833,62.354 45.983,62.121 46.167 C 61.888 46.350,61.618 46.500,61.521 46.500 C 61.424 46.500,61.265 46.650,61.167 46.833 C 61.069 47.017,60.877 47.167,60.740 47.167 C 60.604 47.167,60.167 47.467,59.769 47.833 C 59.372 48.200,58.963 48.500,58.862 48.500 C 58.761 48.500,58.598 48.650,58.500 48.833 C 58.402 49.017,58.205 49.167,58.063 49.167 C 57.921 49.167,57.336 49.617,56.763 50.167 C 56.190 50.717,55.637 51.167,55.533 51.167 C 55.430 51.167,55.265 51.317,55.167 51.500 C 55.069 51.683,54.869 51.833,54.724 51.833 C 54.578 51.833,53.845 52.433,53.093 53.167 C 52.342 53.900,51.592 54.500,51.427 54.500 C 51.261 54.500,50.511 55.100,49.760 55.833 C 49.009 56.567,48.308 57.167,48.203 57.167 C 48.098 57.167,47.931 57.317,47.833 57.500 C 47.735 57.683,47.536 57.833,47.390 57.833 C 47.245 57.833,46.511 58.433,45.760 59.167 C 45.009 59.900,44.259 60.500,44.093 60.500 C 43.928 60.500,43.178 61.100,42.427 61.833 C 41.675 62.567,40.975 63.167,40.869 63.167 C 40.764 63.167,40.598 63.317,40.500 63.500 C 40.402 63.683,40.205 63.833,40.063 63.833 C 39.921 63.833,39.336 64.283,38.763 64.833 C 38.190 65.383,37.637 65.833,37.533 65.833 C 37.430 65.833,37.265 65.983,37.167 66.167 C 37.069 66.350,36.869 66.500,36.724 66.500 C 36.578 66.500,35.845 67.100,35.093 67.833 C 34.342 68.567,33.641 69.167,33.536 69.167 C 33.431 69.167,33.265 69.317,33.167 69.500 C 33.069 69.683,32.872 69.833,32.730 69.833 C 32.588 69.833,32.003 70.283,31.430 70.833 C 30.857 71.383,30.304 71.833,30.200 71.833 C 30.096 71.833,29.931 71.983,29.833 72.167 C 29.735 72.350,29.536 72.500,29.390 72.500 C 29.245 72.500,28.511 73.100,27.760 73.833 C 27.009 74.567,26.308 75.167,26.203 75.167 C 26.098 75.167,25.931 75.317,25.833 75.500 C 25.735 75.683,25.539 75.833,25.396 75.833 C 25.254 75.833,24.669 76.283,24.096 76.833 C 23.524 77.383,22.970 77.833,22.867 77.833 C 22.763 77.833,22.598 77.983,22.500 78.167 C 22.402 78.350,22.203 78.500,22.057 78.500 C 21.912 78.500,21.178 79.100,20.427 79.833 C 19.675 80.567,18.975 81.167,18.869 81.167 C 18.764 81.167,18.598 81.317,18.500 81.500 C 18.402 81.683,18.205 81.833,18.063 81.833 C 17.921 81.833,17.336 82.283,16.763 82.833 C 16.190 83.383,15.637 83.833,15.533 83.833 C 15.430 83.833,15.269 83.975,15.177 84.147 C 15.084 84.320,14.838 84.505,14.629 84.558 C 14.421 84.611,13.575 85.334,12.750 86.164 L 11.250 87.673 11.202 100.213 C 11.162 110.976,11.189 112.800,11.397 113.085 C 11.758 113.578,41.269 113.704,41.448 113.213 C 41.508 113.050,41.694 112.738,41.862 112.519 C 42.032 112.297,42.167 111.846,42.167 111.498 C 42.167 111.155,42.270 110.789,42.396 110.684 C 42.521 110.580,42.673 110.128,42.732 109.681 C 42.792 109.234,42.941 108.785,43.064 108.682 C 43.188 108.580,43.336 108.149,43.394 107.725 C 43.474 107.141,43.661 106.779,44.167 106.231 C 44.533 105.833,44.833 105.428,44.833 105.331 C 44.833 105.102,47.102 102.833,47.331 102.833 C 47.428 102.833,47.833 102.533,48.231 102.167 C 48.628 101.800,49.067 101.500,49.204 101.500 C 49.342 101.500,49.646 101.350,49.879 101.167 C 50.117 100.979,50.555 100.833,50.879 100.833 C 51.224 100.833,51.646 100.683,51.932 100.458 C 52.566 99.959,58.721 99.871,59.274 100.353 C 59.444 100.501,59.912 100.672,60.314 100.733 C 60.716 100.794,61.232 100.992,61.462 101.172 C 61.691 101.353,61.991 101.500,62.129 101.500 C 62.267 101.500,62.705 101.800,63.103 102.167 C 63.500 102.533,63.905 102.833,64.002 102.833 C 64.264 102.833,66.445 105.063,66.571 105.460 C 66.631 105.649,66.789 105.894,66.923 106.005 C 67.057 106.117,67.167 106.338,67.167 106.498 C 67.167 106.658,67.317 106.979,67.500 107.212 C 67.683 107.445,67.833 107.745,67.833 107.879 C 67.833 108.012,67.991 108.322,68.183 108.566 C 68.418 108.865,68.562 109.349,68.621 110.047 C 68.670 110.617,68.803 111.196,68.916 111.333 C 69.029 111.471,69.169 111.781,69.226 112.023 C 69.283 112.265,69.596 112.696,69.921 112.981 L 70.512 113.500 74.333 113.500 L 78.155 113.500 78.746 112.981 C 79.071 112.696,79.385 112.265,79.444 112.023 C 79.503 111.781,79.689 111.404,79.859 111.186 C 80.028 110.967,80.167 110.679,80.167 110.545 C 80.167 110.412,80.317 110.112,80.500 109.879 C 80.683 109.646,80.833 109.346,80.833 109.212 C 80.833 109.079,80.983 108.779,81.167 108.545 C 81.350 108.312,81.500 108.012,81.500 107.879 C 81.500 107.745,81.650 107.445,81.833 107.212 C 82.017 106.979,82.167 106.658,82.167 106.498 C 82.167 106.338,82.279 106.114,82.417 106.000 C 82.554 105.886,82.667 105.626,82.667 105.422 C 82.667 105.218,82.817 104.916,83.000 104.750 C 83.183 104.584,83.333 104.284,83.333 104.083 C 83.333 103.883,83.474 103.591,83.645 103.436 C 83.817 103.281,84.003 102.815,84.060 102.397 C 84.117 101.980,84.315 101.448,84.499 101.214 C 84.683 100.980,84.833 100.679,84.833 100.545 C 84.833 100.412,84.983 100.112,85.167 99.879 C 85.350 99.646,85.500 99.346,85.500 99.212 C 85.500 99.079,85.650 98.779,85.833 98.545 C 86.017 98.312,86.167 98.012,86.167 97.879 C 86.167 97.745,86.317 97.445,86.500 97.212 C 86.683 96.979,86.833 96.679,86.833 96.545 C 86.833 96.412,86.983 96.112,87.167 95.879 C 87.350 95.646,87.500 95.346,87.500 95.212 C 87.500 95.079,87.650 94.779,87.833 94.545 C 88.017 94.312,88.167 93.991,88.167 93.831 C 88.167 93.672,88.279 93.447,88.417 93.333 C 88.554 93.219,88.667 92.959,88.667 92.755 C 88.667 92.552,88.817 92.249,89.000 92.083 C 89.183 91.917,89.333 91.617,89.333 91.417 C 89.333 91.216,89.474 90.924,89.646 90.769 C 89.817 90.614,89.999 90.182,90.049 89.810 C 90.099 89.438,90.295 88.968,90.486 88.765 C 90.677 88.561,90.833 88.224,90.833 88.016 C 90.833 87.807,90.983 87.445,91.167 87.212 C 91.350 86.979,91.500 86.679,91.500 86.545 C 91.500 86.412,91.650 86.112,91.833 85.879 C 92.017 85.646,92.167 85.346,92.167 85.212 C 92.167 85.079,92.317 84.779,92.500 84.545 C 92.683 84.312,92.833 84.012,92.833 83.879 C 92.833 83.745,92.983 83.445,93.167 83.212 C 93.350 82.979,93.500 82.679,93.500 82.545 C 93.500 82.412,93.650 82.112,93.833 81.879 C 94.017 81.646,94.167 81.324,94.167 81.165 C 94.167 81.005,94.279 80.781,94.417 80.667 C 94.554 80.553,94.667 80.292,94.667 80.089 C 94.667 79.885,94.807 79.591,94.978 79.436 C 95.150 79.281,95.336 78.815,95.394 78.397 C 95.451 77.980,95.648 77.448,95.832 77.214 C 96.016 76.980,96.167 76.679,96.167 76.545 C 96.167 76.412,96.317 76.112,96.500 75.879 C 96.683 75.646,96.833 75.346,96.833 75.212 C 96.833 75.079,96.983 74.779,97.167 74.545 C 97.350 74.312,97.500 74.012,97.500 73.879 C 97.500 73.745,97.650 73.445,97.833 73.212 C 98.017 72.979,98.167 72.679,98.167 72.545 C 98.167 72.412,98.317 72.112,98.500 71.879 C 98.683 71.646,98.833 71.346,98.833 71.212 C 98.833 71.079,98.983 70.779,99.167 70.545 C 99.350 70.312,99.500 69.991,99.500 69.831 C 99.500 69.672,99.612 69.447,99.750 69.333 C 99.888 69.219,100.000 68.959,100.000 68.755 C 100.000 68.552,100.150 68.249,100.333 68.083 C 100.517 67.917,100.667 67.617,100.667 67.417 C 100.667 67.216,100.807 66.925,100.978 66.770 C 101.150 66.614,101.336 66.148,101.394 65.730 C 101.451 65.314,101.648 64.781,101.832 64.547 C 102.016 64.313,102.167 64.012,102.167 63.879 C 102.167 63.745,102.317 63.445,102.500 63.212 C 102.683 62.979,102.833 62.679,102.833 62.545 C 102.833 62.412,102.983 62.112,103.167 61.879 C 103.350 61.646,103.500 61.346,103.500 61.212 C 103.500 61.079,103.650 60.779,103.833 60.545 C 104.017 60.312,104.167 60.012,104.167 59.879 C 104.167 59.745,104.317 59.445,104.500 59.212 C 104.683 58.979,104.833 58.679,104.833 58.545 C 104.833 58.412,104.983 58.112,105.167 57.879 C 105.350 57.646,105.500 57.346,105.500 57.212 C 105.500 57.079,105.650 56.779,105.833 56.545 C 106.017 56.312,106.167 56.009,106.167 55.871 C 106.167 55.733,106.467 55.295,106.833 54.897 C 107.200 54.500,107.500 54.050,107.500 53.897 C 107.500 53.745,107.800 53.295,108.167 52.897 C 108.533 52.500,108.833 52.063,108.833 51.926 C 108.833 51.790,108.983 51.598,109.167 51.500 C 109.350 51.402,109.500 51.231,109.500 51.121 C 109.500 50.889,114.836 45.500,115.065 45.500 C 115.149 45.500,115.488 45.216,115.817 44.869 C 116.147 44.522,116.621 44.149,116.870 44.041 C 117.147 43.922,117.368 43.663,117.437 43.381 C 117.500 43.125,117.689 42.738,117.859 42.519 C 118.145 42.150,118.167 41.707,118.167 36.291 L 118.167 30.461 117.520 29.814 L 116.873 29.167 99.061 29.192 C 89.265 29.205,81.025 29.249,80.750 29.288 M96.814 35.192 C 97.033 35.361,97.282 35.500,97.369 35.500 C 97.736 35.500,98.525 36.525,98.616 37.122 C 98.669 37.467,98.826 37.881,98.965 38.042 C 99.192 38.303,99.192 38.364,98.965 38.625 C 98.825 38.785,98.660 39.253,98.597 39.665 C 98.485 40.403,97.965 41.167,97.575 41.167 C 97.464 41.167,97.271 41.320,97.145 41.507 C 96.942 41.811,96.737 41.849,95.273 41.857 L 93.629 41.866 92.904 41.154 C 92.328 40.589,92.156 40.285,92.069 39.679 C 92.009 39.260,91.844 38.785,91.704 38.625 C 91.475 38.364,91.475 38.303,91.702 38.042 C 91.842 37.881,92.007 37.413,92.070 37.002 C 92.191 36.205,92.709 35.500,93.173 35.500 C 93.328 35.500,93.639 35.355,93.864 35.179 C 94.577 34.617,96.081 34.624,96.814 35.192 M145.018 37.861 L 144.500 38.566 144.500 69.855 C 144.500 103.000,144.473 101.936,145.327 102.107 C 145.601 102.162,145.912 102.310,146.017 102.437 C 146.174 102.626,147.578 102.667,153.989 102.667 L 161.771 102.667 162.260 102.156 L 162.750 101.645 162.833 91.197 L 162.917 80.750 169.921 80.750 L 176.925 80.750 177.402 81.125 C 177.664 81.331,178.012 81.500,178.176 81.500 C 178.702 81.500,180.448 83.607,180.550 84.364 C 180.598 84.728,180.753 85.152,180.892 85.307 C 181.096 85.532,181.170 86.337,181.265 89.378 C 181.355 92.237,181.439 93.214,181.609 93.354 C 181.773 93.491,181.834 94.057,181.834 95.479 C 181.835 96.545,181.884 98.266,181.944 99.305 L 182.052 101.193 182.791 101.931 L 183.529 102.670 191.723 102.627 L 199.917 102.583 200.092 102.042 C 200.188 101.744,200.357 101.410,200.467 101.300 C 200.771 100.996,200.744 96.272,200.437 96.017 C 200.261 95.871,200.179 94.938,200.087 92.038 C 200.002 89.381,199.903 88.175,199.755 88.000 C 199.614 87.833,199.510 86.844,199.442 85.017 C 199.368 83.025,199.277 82.212,199.106 82.017 C 198.977 81.870,198.840 81.284,198.801 80.715 C 198.757 80.083,198.625 79.563,198.461 79.381 C 198.313 79.217,198.142 78.880,198.080 78.632 C 198.018 78.384,197.867 78.097,197.744 77.995 C 197.622 77.894,197.475 77.599,197.418 77.341 C 197.290 76.757,195.002 74.500,194.538 74.500 C 194.356 74.500,194.114 74.387,194.000 74.250 C 193.886 74.112,193.626 74.000,193.422 74.000 C 193.218 74.000,192.916 73.850,192.750 73.667 C 192.584 73.483,192.277 73.333,192.068 73.333 C 191.352 73.333,190.833 73.032,190.833 72.617 C 190.833 72.181,191.462 71.500,191.863 71.500 C 192.005 71.500,192.301 71.360,192.519 71.190 C 192.738 71.019,193.104 70.824,193.333 70.756 C 193.945 70.576,198.000 66.504,198.000 66.070 C 198.000 65.877,198.150 65.583,198.333 65.417 C 198.517 65.251,198.667 64.951,198.667 64.750 C 198.667 64.549,198.807 64.258,198.978 64.103 C 199.152 63.946,199.337 63.479,199.396 63.048 C 199.454 62.622,199.633 62.130,199.793 61.953 C 200.218 61.483,200.237 52.545,199.814 52.059 C 199.665 51.889,199.503 51.425,199.453 51.029 C 199.403 50.632,199.253 50.182,199.119 50.029 C 198.986 49.875,198.836 49.422,198.785 49.020 C 198.717 48.487,198.536 48.129,198.108 47.687 C 197.786 47.355,197.471 46.873,197.407 46.615 C 197.263 46.027,192.624 41.401,192.029 41.251 C 191.798 41.193,191.425 41.001,191.199 40.823 C 190.973 40.645,190.679 40.500,190.545 40.500 C 190.412 40.500,190.112 40.350,189.879 40.167 C 189.646 39.983,189.346 39.833,189.212 39.833 C 189.079 39.833,188.779 39.683,188.545 39.500 C 188.312 39.317,187.991 39.167,187.831 39.167 C 187.672 39.167,187.456 39.064,187.352 38.939 C 187.248 38.814,186.813 38.664,186.385 38.605 C 185.958 38.546,185.487 38.389,185.340 38.256 C 185.177 38.109,184.520 37.970,183.661 37.902 C 182.732 37.828,182.144 37.697,181.941 37.520 C 181.661 37.275,179.934 37.246,163.584 37.203 L 145.536 37.157 145.018 37.861 M209.873 37.737 L 209.250 38.307 209.200 42.294 C 209.138 47.224,209.221 47.851,209.962 48.092 C 210.258 48.188,210.590 48.357,210.700 48.467 C 210.850 48.616,212.855 48.667,218.687 48.667 L 226.474 48.667 227.237 47.904 L 228.000 47.140 228.000 43.007 C 228.000 39.697,227.954 38.836,227.770 38.683 C 227.644 38.578,227.495 38.268,227.440 37.994 C 227.279 37.186,227.068 37.167,218.487 37.167 L 210.495 37.167 209.873 37.737 M180.558 37.458 C 180.600 37.527,180.249 37.562,179.776 37.536 C 178.243 37.451,178.057 37.384,179.282 37.358 C 179.941 37.345,180.515 37.390,180.558 37.458 M44.552 39.182 C 44.477 39.257,44.453 38.890,44.497 38.367 L 44.578 37.417 44.632 38.232 C 44.662 38.680,44.626 39.108,44.552 39.182 M195.533 44.507 C 195.812 44.787,196.013 45.041,195.979 45.074 C 195.945 45.106,195.667 44.878,195.361 44.566 C 195.055 44.255,194.855 44.000,194.915 44.000 C 194.976 44.000,195.254 44.228,195.533 44.507 M174.771 51.966 C 174.508 51.999,174.227 51.960,174.147 51.880 C 174.063 51.796,174.267 51.771,174.625 51.820 C 175.200 51.900,175.212 51.911,174.771 51.966 M175.941 52.353 C 176.111 52.501,176.579 52.672,176.981 52.733 C 177.383 52.794,177.899 52.992,178.128 53.172 C 178.357 53.353,178.678 53.500,178.840 53.500 C 179.299 53.500,180.503 55.049,180.615 55.784 C 180.668 56.132,180.832 56.555,180.979 56.724 C 181.386 57.191,181.368 60.835,180.957 61.289 C 180.797 61.465,180.667 61.766,180.667 61.958 C 180.667 62.543,178.450 64.440,177.641 64.549 C 177.274 64.598,176.822 64.776,176.636 64.944 C 176.320 65.230,175.864 65.250,169.608 65.250 L 162.917 65.250 162.873 58.834 C 162.849 55.305,162.868 52.316,162.916 52.191 C 163.058 51.823,175.510 51.977,175.941 52.353 M315.839 52.612 C 314.828 52.656,314.170 52.762,314.006 52.908 C 313.865 53.033,313.246 53.188,312.630 53.253 C 312.014 53.318,311.429 53.468,311.331 53.586 C 311.233 53.704,310.636 53.853,310.005 53.916 C 309.193 53.998,308.772 54.125,308.569 54.349 C 308.411 54.524,308.117 54.667,307.917 54.667 C 307.716 54.667,307.416 54.817,307.250 55.000 C 307.084 55.183,306.782 55.333,306.578 55.333 C 306.374 55.333,306.114 55.446,306.000 55.583 C 305.886 55.721,305.658 55.833,305.495 55.833 C 305.331 55.833,304.817 56.133,304.353 56.500 C 303.889 56.867,303.426 57.167,303.324 57.167 C 303.222 57.167,302.676 57.606,302.111 58.143 C 301.546 58.681,300.872 59.171,300.614 59.233 C 300.289 59.311,300.071 59.521,299.906 59.916 C 299.775 60.229,299.003 61.183,298.190 62.035 C 297.377 62.886,296.656 63.771,296.586 64.000 C 296.517 64.229,296.366 64.529,296.250 64.667 C 296.134 64.804,295.984 65.104,295.917 65.333 C 295.849 65.563,295.699 65.862,295.583 66.000 C 295.468 66.137,295.318 66.438,295.250 66.667 C 295.182 66.896,295.017 67.209,294.883 67.362 C 294.748 67.515,294.597 67.965,294.547 68.362 C 294.497 68.759,294.362 69.196,294.246 69.333 C 294.130 69.471,293.982 70.071,293.917 70.667 C 293.849 71.284,293.680 71.883,293.524 72.059 C 293.107 72.531,293.109 83.473,293.526 83.941 C 293.689 84.123,293.850 84.709,293.920 85.370 C 293.985 85.986,294.140 86.576,294.266 86.680 C 294.391 86.783,294.542 87.234,294.601 87.681 C 294.660 88.128,294.812 88.580,294.938 88.684 C 295.064 88.789,295.167 89.005,295.167 89.165 C 295.167 89.324,295.312 89.640,295.490 89.866 C 295.667 90.092,295.862 90.471,295.921 90.709 C 295.981 90.947,296.173 91.272,296.348 91.430 C 296.523 91.589,296.668 91.875,296.670 92.067 C 296.672 92.260,297.080 92.850,297.577 93.380 C 298.074 93.910,298.530 94.510,298.591 94.713 C 298.751 95.252,301.478 97.959,301.985 98.083 C 302.223 98.140,302.829 98.588,303.333 99.076 C 303.837 99.565,304.438 100.019,304.667 100.086 C 304.896 100.152,305.209 100.316,305.362 100.451 C 305.515 100.585,305.965 100.737,306.362 100.789 C 306.759 100.841,307.262 101.022,307.481 101.192 C 307.699 101.361,307.994 101.500,308.134 101.500 C 308.275 101.500,308.522 101.619,308.682 101.764 C 308.843 101.909,309.299 102.069,309.695 102.119 C 310.092 102.169,310.551 102.327,310.715 102.470 C 310.889 102.622,311.440 102.759,312.048 102.801 C 312.649 102.842,313.205 102.979,313.373 103.127 C 313.594 103.321,314.236 103.401,316.080 103.464 C 317.835 103.523,318.549 103.608,318.686 103.773 C 318.943 104.083,321.055 104.085,321.312 103.776 C 321.444 103.617,322.212 103.519,323.946 103.441 C 325.636 103.364,326.476 103.259,326.656 103.102 C 326.799 102.978,327.404 102.823,328.000 102.759 C 328.596 102.694,329.196 102.545,329.333 102.426 C 329.471 102.307,329.908 102.169,330.305 102.119 C 330.701 102.069,331.157 101.910,331.317 101.765 C 331.477 101.620,331.956 101.454,332.381 101.396 C 332.813 101.337,333.279 101.152,333.436 100.978 C 333.591 100.807,333.879 100.667,334.076 100.667 C 334.273 100.667,334.689 100.404,335.000 100.083 C 335.311 99.763,335.691 99.500,335.844 99.500 C 335.997 99.500,336.306 99.355,336.532 99.177 C 336.758 98.999,337.134 98.806,337.367 98.748 C 337.830 98.631,342.167 94.354,342.167 94.014 C 342.167 93.900,342.420 93.493,342.730 93.111 C 343.039 92.729,343.350 92.229,343.419 92.000 C 343.489 91.771,343.686 91.404,343.856 91.186 C 344.027 90.967,344.167 90.673,344.167 90.532 C 344.167 90.391,344.291 90.139,344.442 89.971 C 344.690 89.698,344.692 89.637,344.465 89.375 C 344.325 89.215,344.167 88.894,344.112 88.662 C 344.057 88.430,343.798 88.036,343.536 87.785 L 343.060 87.329 339.322 87.225 C 336.736 87.154,335.506 87.059,335.333 86.917 C 335.007 86.648,328.398 86.420,327.777 86.656 C 327.541 86.746,326.698 87.494,325.905 88.317 C 324.997 89.259,324.287 89.854,323.992 89.918 C 323.734 89.975,323.435 90.128,323.327 90.257 C 323.220 90.387,322.766 90.542,322.319 90.601 C 321.872 90.660,321.420 90.812,321.316 90.938 C 321.054 91.253,318.946 91.253,318.684 90.938 C 318.580 90.812,318.155 90.671,317.741 90.624 C 317.326 90.578,316.858 90.427,316.702 90.289 C 316.545 90.152,316.229 89.985,316.000 89.919 C 315.469 89.766,313.500 87.849,313.500 87.486 C 313.500 87.335,313.353 87.024,313.172 86.795 C 312.992 86.566,312.794 86.049,312.733 85.647 C 312.672 85.246,312.515 84.793,312.384 84.642 C 312.234 84.469,312.165 84.098,312.198 83.642 L 312.250 82.917 328.274 82.833 C 346.201 82.740,344.392 82.870,345.537 81.590 C 346.070 80.995,346.260 77.090,345.775 76.688 C 345.621 76.560,345.515 75.840,345.438 74.384 C 345.361 72.958,345.249 72.182,345.095 72.008 C 344.968 71.866,344.812 71.246,344.747 70.630 C 344.682 70.011,344.525 69.424,344.398 69.318 C 344.271 69.212,344.167 68.995,344.167 68.835 C 344.167 68.676,344.017 68.354,343.833 68.121 C 343.650 67.888,343.500 67.588,343.500 67.455 C 343.500 67.321,343.349 67.020,343.165 66.786 C 342.981 66.552,342.784 66.023,342.728 65.609 C 342.652 65.055,342.478 64.716,342.062 64.313 C 341.753 64.013,341.500 63.637,341.500 63.477 C 341.500 63.317,341.051 62.675,340.503 62.051 C 339.954 61.427,339.504 60.818,339.503 60.698 C 339.498 60.361,337.863 58.710,337.424 58.600 C 337.209 58.546,336.594 58.089,336.058 57.583 C 335.522 57.078,334.896 56.618,334.667 56.562 C 334.438 56.505,333.987 56.213,333.667 55.914 C 333.346 55.615,332.896 55.315,332.667 55.248 C 332.438 55.182,332.137 55.032,332.000 54.917 C 331.862 54.801,331.563 54.651,331.333 54.583 C 331.104 54.516,330.804 54.365,330.667 54.248 C 330.529 54.131,329.929 53.982,329.333 53.917 C 328.737 53.851,328.125 53.687,327.971 53.551 C 327.818 53.416,327.368 53.264,326.971 53.214 C 326.575 53.164,326.134 53.022,325.992 52.899 C 325.716 52.661,319.066 52.473,315.839 52.612 M319.000 52.761 C 318.415 52.890,317.368 52.913,317.441 52.795 C 317.484 52.724,317.909 52.675,318.385 52.686 C 318.861 52.697,319.137 52.730,319.000 52.761 M322.559 52.795 C 322.603 52.865,322.326 52.899,321.944 52.869 C 320.823 52.783,320.686 52.707,321.615 52.686 C 322.091 52.675,322.516 52.724,322.559 52.795 M211.333 53.583 C 211.219 53.721,210.988 53.833,210.819 53.833 C 210.650 53.833,210.246 54.066,209.922 54.351 L 209.333 54.868 209.333 78.004 L 209.333 101.140 210.096 101.904 L 210.860 102.667 218.313 102.667 C 223.886 102.667,225.817 102.616,225.967 102.467 C 226.076 102.357,226.405 102.188,226.696 102.092 C 227.063 101.970,227.274 101.763,227.384 101.417 C 227.472 101.142,227.646 100.798,227.772 100.654 C 228.196 100.165,228.102 55.644,227.676 55.259 C 227.498 55.097,227.329 54.773,227.301 54.537 C 227.264 54.229,227.109 54.064,226.750 53.949 C 226.475 53.862,226.132 53.687,225.987 53.562 C 225.576 53.205,211.630 53.226,211.333 53.583 M236.683 53.563 C 236.578 53.690,236.268 53.838,235.994 53.893 C 235.123 54.067,234.791 56.310,235.501 57.214 C 235.685 57.448,235.883 57.982,235.940 58.401 C 235.998 58.820,236.146 59.247,236.269 59.349 C 236.392 59.451,236.542 59.901,236.601 60.348 C 236.660 60.795,236.812 61.246,236.938 61.351 C 237.064 61.455,237.167 61.672,237.167 61.831 C 237.167 61.991,237.305 62.301,237.475 62.519 C 237.645 62.738,237.826 63.241,237.878 63.638 C 237.929 64.035,238.090 64.490,238.235 64.650 C 238.380 64.810,238.546 65.291,238.605 65.719 C 238.664 66.146,238.814 66.581,238.939 66.685 C 239.064 66.789,239.167 67.005,239.167 67.165 C 239.167 67.324,239.305 67.634,239.475 67.853 C 239.645 68.071,239.826 68.575,239.878 68.971 C 239.929 69.368,240.087 69.820,240.228 69.976 C 240.369 70.131,240.535 70.594,240.598 71.004 C 240.660 71.414,240.810 71.864,240.931 72.004 C 241.052 72.144,241.202 72.594,241.264 73.004 C 241.327 73.414,241.474 73.862,241.593 74.000 C 241.711 74.137,241.858 74.453,241.920 74.701 C 241.982 74.950,242.136 75.239,242.263 75.344 C 242.390 75.449,242.542 75.901,242.601 76.348 C 242.660 76.795,242.808 77.243,242.930 77.344 C 243.051 77.445,243.201 77.877,243.262 78.305 C 243.324 78.733,243.472 79.196,243.591 79.333 C 243.710 79.471,243.858 79.787,243.920 80.035 C 243.982 80.283,244.136 80.572,244.263 80.677 C 244.390 80.783,244.542 81.234,244.601 81.681 C 244.660 82.128,244.808 82.577,244.930 82.677 C 245.051 82.778,245.201 83.211,245.262 83.639 C 245.324 84.067,245.472 84.529,245.591 84.667 C 245.710 84.804,245.858 85.120,245.920 85.368 C 245.982 85.616,246.136 85.906,246.263 86.011 C 246.390 86.116,246.542 86.568,246.601 87.015 C 246.660 87.462,246.810 87.912,246.934 88.015 C 247.058 88.118,247.208 88.568,247.268 89.015 C 247.327 89.462,247.479 89.913,247.604 90.017 C 247.730 90.122,247.833 90.338,247.833 90.498 C 247.833 90.658,247.984 90.980,248.168 91.214 C 248.352 91.448,248.550 91.982,248.607 92.401 C 248.664 92.820,248.812 93.247,248.936 93.349 C 249.059 93.451,249.208 93.901,249.268 94.348 C 249.327 94.795,249.479 95.246,249.604 95.351 C 249.730 95.455,249.833 95.672,249.833 95.831 C 249.833 95.991,249.984 96.313,250.168 96.547 C 250.352 96.781,250.550 97.315,250.607 97.734 C 250.664 98.154,250.812 98.580,250.936 98.682 C 251.059 98.785,251.208 99.234,251.268 99.681 C 251.327 100.128,251.479 100.580,251.604 100.684 C 251.730 100.789,251.833 101.012,251.833 101.181 C 251.833 101.350,252.066 101.754,252.351 102.078 L 252.868 102.667 262.667 102.667 L 272.465 102.667 272.983 102.078 C 273.267 101.754,273.500 101.350,273.500 101.181 C 273.500 101.012,273.605 100.787,273.734 100.680 C 273.862 100.574,274.018 100.283,274.080 100.035 C 274.142 99.787,274.289 99.471,274.408 99.333 C 274.526 99.196,274.664 98.759,274.714 98.362 C 274.764 97.965,274.930 97.502,275.083 97.333 C 275.236 97.164,275.403 96.701,275.453 96.305 C 275.503 95.908,275.638 95.471,275.752 95.333 C 275.867 95.196,276.016 94.896,276.083 94.667 C 276.151 94.438,276.300 94.138,276.414 94.000 C 276.529 93.862,276.664 93.425,276.714 93.029 C 276.764 92.632,276.930 92.169,277.083 92.000 C 277.236 91.831,277.403 91.368,277.453 90.971 C 277.503 90.575,277.638 90.138,277.752 90.000 C 277.867 89.862,278.016 89.563,278.083 89.333 C 278.151 89.104,278.300 88.804,278.414 88.667 C 278.529 88.529,278.664 88.092,278.714 87.695 C 278.764 87.299,278.930 86.836,279.083 86.667 C 279.236 86.498,279.403 86.035,279.453 85.638 C 279.503 85.241,279.638 84.804,279.752 84.667 C 279.867 84.529,280.016 84.229,280.083 84.000 C 280.151 83.771,280.300 83.471,280.414 83.333 C 280.529 83.196,280.664 82.759,280.714 82.362 C 280.764 81.965,280.930 81.502,281.083 81.333 C 281.236 81.164,281.403 80.701,281.453 80.305 C 281.503 79.908,281.638 79.471,281.752 79.333 C 281.867 79.196,282.016 78.896,282.083 78.667 C 282.151 78.438,282.300 78.137,282.414 78.000 C 282.529 77.862,282.664 77.425,282.714 77.029 C 282.764 76.632,282.930 76.169,283.083 76.000 C 283.236 75.831,283.403 75.368,283.453 74.971 C 283.503 74.575,283.638 74.137,283.752 74.000 C 283.867 73.862,284.016 73.563,284.083 73.333 C 284.151 73.104,284.300 72.804,284.414 72.667 C 284.529 72.529,284.664 72.092,284.714 71.695 C 284.764 71.299,284.930 70.836,285.083 70.667 C 285.236 70.498,285.403 70.035,285.453 69.638 C 285.503 69.241,285.638 68.804,285.752 68.667 C 285.867 68.529,286.016 68.229,286.083 68.000 C 286.151 67.771,286.300 67.471,286.414 67.333 C 286.529 67.196,286.664 66.759,286.714 66.362 C 286.764 65.965,286.930 65.502,287.083 65.333 C 287.236 65.164,287.403 64.701,287.453 64.305 C 287.503 63.908,287.638 63.471,287.752 63.333 C 287.867 63.196,288.016 62.896,288.083 62.667 C 288.151 62.438,288.300 62.137,288.414 62.000 C 288.529 61.862,288.664 61.425,288.714 61.029 C 288.764 60.632,288.930 60.169,289.083 60.000 C 289.236 59.831,289.403 59.368,289.453 58.971 C 289.503 58.575,289.641 58.137,289.759 58.000 C 289.877 57.862,290.025 57.547,290.087 57.299 C 290.149 57.050,290.305 56.760,290.433 56.653 C 290.719 56.416,290.739 55.639,290.467 55.367 C 290.357 55.257,290.188 54.923,290.092 54.625 C 289.964 54.231,289.769 54.036,289.375 53.908 C 289.077 53.812,288.743 53.643,288.633 53.533 C 288.302 53.202,274.276 53.250,274.000 53.583 C 273.886 53.721,273.651 53.833,273.477 53.833 C 272.868 53.833,271.988 54.846,271.884 55.667 C 271.832 56.079,271.681 56.542,271.547 56.695 C 271.414 56.849,271.264 57.299,271.214 57.695 C 271.164 58.092,271.014 58.542,270.881 58.695 C 270.747 58.849,270.597 59.299,270.547 59.695 C 270.497 60.092,270.347 60.542,270.214 60.695 C 270.081 60.849,269.931 61.299,269.881 61.695 C 269.831 62.092,269.681 62.542,269.547 62.695 C 269.414 62.849,269.264 63.299,269.214 63.695 C 269.164 64.092,269.014 64.542,268.881 64.695 C 268.747 64.849,268.597 65.299,268.547 65.695 C 268.497 66.092,268.363 66.529,268.250 66.667 C 268.137 66.804,268.003 67.241,267.953 67.638 C 267.903 68.035,267.753 68.485,267.619 68.638 C 267.486 68.791,267.336 69.241,267.286 69.638 C 267.236 70.035,267.086 70.485,266.953 70.638 C 266.819 70.791,266.669 71.241,266.619 71.638 C 266.569 72.035,266.419 72.485,266.286 72.638 C 266.153 72.791,266.003 73.241,265.953 73.638 C 265.903 74.035,265.753 74.485,265.619 74.638 C 265.486 74.791,265.336 75.241,265.286 75.638 C 265.236 76.035,265.084 76.485,264.949 76.638 C 264.813 76.791,264.649 77.404,264.583 78.000 C 264.518 78.596,264.353 79.209,264.218 79.362 C 264.083 79.515,263.931 79.965,263.881 80.362 C 263.831 80.759,263.693 81.196,263.574 81.333 C 263.456 81.471,263.321 81.771,263.273 82.000 C 263.226 82.229,263.140 82.637,263.083 82.906 L 262.978 83.395 262.579 82.906 C 262.350 82.626,262.132 82.079,262.068 81.628 C 262.008 81.194,261.856 80.755,261.732 80.652 C 261.608 80.549,261.458 80.099,261.399 79.652 C 261.340 79.205,261.190 78.755,261.066 78.652 C 260.942 78.549,260.792 78.099,260.732 77.652 C 260.673 77.205,260.523 76.755,260.399 76.652 C 260.275 76.549,260.125 76.099,260.066 75.652 C 260.006 75.205,259.856 74.755,259.732 74.652 C 259.608 74.549,259.458 74.099,259.399 73.652 C 259.340 73.205,259.190 72.755,259.066 72.652 C 258.942 72.549,258.792 72.099,258.732 71.652 C 258.673 71.205,258.523 70.755,258.399 70.652 C 258.275 70.549,258.125 70.099,258.066 69.652 C 258.006 69.205,257.856 68.755,257.732 68.652 C 257.608 68.549,257.458 68.099,257.399 67.652 C 257.340 67.205,257.190 66.755,257.066 66.652 C 256.942 66.549,256.792 66.099,256.732 65.652 C 256.673 65.205,256.523 64.755,256.399 64.652 C 256.275 64.549,256.125 64.099,256.066 63.652 C 256.006 63.205,255.856 62.755,255.732 62.652 C 255.608 62.549,255.458 62.099,255.399 61.652 C 255.340 61.205,255.190 60.755,255.066 60.652 C 254.942 60.549,254.792 60.099,254.732 59.652 C 254.673 59.205,254.523 58.755,254.399 58.652 C 254.275 58.549,254.125 58.099,254.066 57.652 C 254.006 57.205,253.858 56.757,253.737 56.656 C 253.616 56.555,253.467 56.123,253.406 55.695 C 253.318 55.072,253.143 54.758,252.529 54.125 L 251.763 53.333 244.318 53.333 C 238.194 53.333,236.840 53.374,236.683 53.563 M327.228 53.465 C 327.273 53.538,327.053 53.567,326.738 53.530 C 326.424 53.494,326.167 53.434,326.167 53.398 C 326.167 53.273,327.148 53.335,327.228 53.465 M354.009 53.573 C 353.900 53.704,353.586 53.861,353.312 53.921 C 352.472 54.106,352.491 53.504,352.538 78.259 L 352.583 101.645 353.073 102.156 L 353.562 102.667 361.344 102.667 C 368.058 102.667,369.154 102.632,369.333 102.417 C 369.447 102.279,369.646 102.167,369.775 102.167 C 369.903 102.167,370.085 101.998,370.178 101.792 C 370.271 101.585,370.456 101.229,370.588 101.000 C 370.792 100.647,370.829 98.577,370.831 87.395 C 370.833 76.285,370.870 74.177,371.067 74.013 C 371.200 73.903,371.351 73.324,371.417 72.667 C 371.480 72.033,371.633 71.431,371.756 71.329 C 371.878 71.227,372.025 70.932,372.082 70.673 C 372.196 70.154,374.150 68.167,374.546 68.167 C 374.680 68.167,374.988 68.009,375.233 67.817 C 375.532 67.582,376.016 67.438,376.714 67.379 C 377.284 67.330,377.874 67.182,378.026 67.050 C 378.244 66.860,379.215 66.790,382.693 66.713 C 387.037 66.617,387.089 66.611,387.627 66.203 C 388.056 65.878,388.131 65.741,387.982 65.562 C 387.833 65.382,387.860 65.331,388.105 65.320 C 388.278 65.313,388.325 65.270,388.210 65.223 C 388.056 65.161,388.049 65.054,388.180 64.809 C 388.302 64.580,388.417 64.529,388.553 64.642 C 388.704 64.767,388.750 63.712,388.750 60.166 C 388.750 57.313,388.689 55.538,388.591 55.556 C 388.503 55.571,388.424 55.508,388.414 55.417 C 388.343 54.749,387.808 53.987,387.344 53.894 C 387.067 53.838,386.755 53.690,386.650 53.563 C 386.373 53.230,380.961 53.229,380.684 53.562 C 380.578 53.690,379.988 53.841,379.344 53.904 C 378.665 53.971,378.111 54.117,377.993 54.259 C 377.883 54.391,377.662 54.500,377.502 54.500 C 377.342 54.500,377.033 54.639,376.814 54.808 C 376.596 54.977,376.221 55.164,375.982 55.222 C 375.430 55.356,372.137 58.667,371.938 59.287 C 371.857 59.542,371.697 59.862,371.583 60.000 C 371.470 60.137,371.305 60.475,371.216 60.750 C 370.923 61.661,370.751 61.190,370.703 59.350 C 370.668 57.999,370.593 57.480,370.411 57.329 C 370.257 57.201,370.163 56.809,370.157 56.271 C 370.139 54.655,369.971 54.128,369.416 53.950 C 369.141 53.862,368.798 53.687,368.654 53.562 C 368.253 53.214,354.297 53.225,354.009 53.573 M199.966 55.102 L 199.911 55.917 199.831 54.966 C 199.786 54.443,199.811 54.077,199.885 54.151 C 199.959 54.226,199.996 54.654,199.966 55.102 M272.182 55.958 C 272.120 56.418,272.081 56.481,272.036 56.196 C 271.979 55.839,272.081 55.333,272.211 55.333 C 272.242 55.333,272.228 55.615,272.182 55.958 M181.530 57.405 C 181.567 57.719,181.538 57.940,181.465 57.895 C 181.335 57.814,181.273 56.833,181.398 56.833 C 181.434 56.833,181.494 57.091,181.530 57.405 M271.515 57.958 C 271.453 58.418,271.415 58.481,271.369 58.196 C 271.312 57.839,271.415 57.333,271.545 57.333 C 271.575 57.333,271.562 57.615,271.515 57.958 M336.886 58.527 C 337.189 58.830,337.273 58.978,337.082 58.873 C 336.739 58.686,336.097 58.000,336.264 58.000 C 336.316 58.000,336.596 58.237,336.886 58.527 M199.880 59.853 C 199.796 59.937,199.771 59.733,199.820 59.375 C 199.900 58.800,199.911 58.788,199.966 59.229 C 199.999 59.492,199.960 59.773,199.880 59.853 M270.849 59.958 C 270.787 60.418,270.748 60.481,270.702 60.196 C 270.645 59.839,270.748 59.333,270.878 59.333 C 270.908 59.333,270.895 59.615,270.849 59.958 M270.182 61.958 C 270.120 62.418,270.081 62.481,270.036 62.196 C 269.979 61.839,270.081 61.333,270.211 61.333 C 270.242 61.333,270.228 61.615,270.182 61.958 M269.515 63.958 C 269.453 64.418,269.415 64.481,269.369 64.196 C 269.312 63.839,269.415 63.333,269.545 63.333 C 269.575 63.333,269.562 63.615,269.515 63.958 M175.833 65.398 C 175.833 65.434,175.576 65.494,175.262 65.530 C 174.947 65.567,174.727 65.538,174.772 65.465 C 174.852 65.335,175.833 65.273,175.833 65.398 M268.849 65.958 C 268.787 66.418,268.748 66.481,268.702 66.196 C 268.645 65.839,268.748 65.333,268.878 65.333 C 268.908 65.333,268.895 65.615,268.849 65.958 M323.629 66.036 C 323.971 66.363,324.430 66.685,324.649 66.751 C 325.082 66.881,325.820 67.629,325.828 67.946 C 325.831 68.053,326.021 68.364,326.250 68.636 C 326.479 68.909,326.667 69.265,326.667 69.428 C 326.667 69.590,326.792 69.862,326.945 70.032 C 327.144 70.251,327.228 70.661,327.237 71.461 L 327.250 72.583 319.750 72.583 L 312.250 72.583 312.196 72.110 C 312.164 71.836,312.258 71.508,312.418 71.332 C 312.570 71.163,312.737 70.701,312.789 70.305 C 312.841 69.908,313.022 69.404,313.192 69.186 C 313.361 68.967,313.500 68.704,313.500 68.600 C 313.500 68.274,315.513 66.167,315.824 66.167 C 315.988 66.167,316.301 66.026,316.520 65.853 C 317.125 65.378,317.373 65.348,320.296 65.396 L 323.009 65.441 323.629 66.036 M325.540 66.987 C 325.984 67.517,325.706 67.399,325.114 66.806 C 324.811 66.503,324.727 66.356,324.918 66.460 C 325.101 66.560,325.381 66.797,325.540 66.987 M380.583 66.500 C 380.527 66.592,380.091 66.654,379.615 66.640 L 378.750 66.612 379.667 66.500 C 380.171 66.438,380.607 66.375,380.635 66.360 C 380.663 66.346,380.640 66.408,380.583 66.500 M294.849 68.625 C 294.787 69.085,294.748 69.148,294.702 68.863 C 294.645 68.506,294.748 68.000,294.878 68.000 C 294.908 68.000,294.895 68.281,294.849 68.625 M293.504 74.958 C 293.426 75.886,293.422 75.893,293.368 75.189 C 293.319 74.549,293.397 74.000,293.536 74.000 C 293.562 74.000,293.547 74.431,293.504 74.958 M370.543 100.524 C 370.473 100.593,370.454 94.823,370.500 87.700 L 370.583 74.750 370.626 87.574 C 370.650 94.627,370.612 100.455,370.543 100.524 M198.633 80.771 C 198.578 81.212,198.566 81.200,198.487 80.625 C 198.437 80.267,198.463 80.063,198.547 80.147 C 198.627 80.227,198.666 80.508,198.633 80.771 M293.530 80.738 C 293.567 81.053,293.538 81.273,293.465 81.228 C 293.335 81.148,293.273 80.167,293.398 80.167 C 293.434 80.167,293.494 80.424,293.530 80.738 M343.250 82.500 C 343.182 82.610,337.834 82.653,327.615 82.626 L 312.083 82.586 327.667 82.500 C 336.237 82.453,343.273 82.396,343.302 82.374 C 343.330 82.352,343.307 82.408,343.250 82.500 M199.299 85.102 L 199.245 85.917 199.164 84.966 C 199.120 84.443,199.144 84.077,199.218 84.151 C 199.293 84.226,199.329 84.654,199.299 85.102 M330.558 86.792 C 330.600 86.860,330.049 86.917,329.333 86.917 C 328.618 86.917,328.067 86.860,328.109 86.792 C 328.152 86.723,328.702 86.667,329.333 86.667 C 329.964 86.667,330.515 86.723,330.558 86.792 M181.536 87.944 C 181.565 88.326,181.532 88.603,181.461 88.559 C 181.391 88.516,181.342 88.091,181.353 87.615 C 181.373 86.686,181.449 86.823,181.536 87.944 M340.558 87.458 C 340.601 87.527,340.137 87.563,339.526 87.537 C 337.593 87.457,337.366 87.388,338.948 87.360 C 339.791 87.345,340.515 87.390,340.558 87.458 M199.966 93.102 L 199.911 93.917 199.831 92.966 C 199.786 92.443,199.811 92.077,199.885 92.151 C 199.959 92.226,199.996 92.654,199.966 93.102 M298.873 94.415 C 298.978 94.606,298.830 94.523,298.527 94.220 C 298.237 93.930,298.000 93.650,298.000 93.598 C 298.000 93.430,298.686 94.072,298.873 94.415 M182.202 97.776 C 182.229 98.249,182.194 98.600,182.125 98.558 C 182.056 98.515,182.011 97.941,182.025 97.282 C 182.050 96.057,182.117 96.243,182.202 97.776 M312.105 102.633 C 311.841 102.666,311.560 102.627,311.480 102.547 C 311.396 102.463,311.600 102.437,311.958 102.487 C 312.534 102.566,312.545 102.578,312.105 102.633 M316.100 103.298 C 315.467 103.327,314.889 103.290,314.816 103.217 C 314.742 103.143,315.260 103.120,315.966 103.165 L 317.250 103.247 316.100 103.298 " stroke="none" fill="#fcfcf4" fill-rule="evenodd"></path><path id="path1" d="" stroke="none" fill="#100fcf4" fill-rule="evenodd"></path><path id="path2" d="" stroke="none" fill="#100fcf4" fill-rule="evenodd"></path><path id="path3" d="" stroke="none" fill="#100fcf4" fill-rule="evenodd"></path><path id="path4" d="" stroke="none" fill="#100fcf4" fill-rule="evenodd"></path></g></svg>