<svg width="300" height="32" viewBox="0 0 300 32" fill="none" xmlns="http://www.w3.org/2000/svg">
<g clip-path="url(#clip0_894_433)">
<path d="M118.246 31.4211H135.031V0.593934H118.246V31.4211ZM105.629 0.586419H115.578V4.56733H106.377C104.858 4.56733 103.616 5.0013 102.649 5.86737C101.68 6.73344 101.197 7.87192 101.197 9.28092C101.197 10.6899 101.68 11.8735 102.649 12.7396C103.616 13.6056 104.86 14.0396 106.377 14.0396H115.578V31.423H95.4936V27.4345H106.023C107.66 27.4345 108.994 26.9799 110.019 26.0688C111.047 25.1595 111.561 23.9985 111.561 22.5895C111.561 21.1804 111.047 20.0345 110.019 19.1534C108.992 18.2723 107.66 17.8326 106.023 17.8326L104.687 17.8552C100.39 17.8552 96.9 14.4341 96.8733 10.1958L96.8676 9.26589V9.23208C96.8676 4.45837 100.792 0.588298 105.631 0.588298L105.629 0.586419ZM147.302 0.586419H156.942V4.56733H148.051C146.533 4.56733 145.29 5.0013 144.323 5.86737C143.355 6.73344 142.871 7.87192 142.871 9.28092C142.871 10.6899 143.355 11.8735 144.323 12.7396C145.29 13.6056 146.535 14.0396 148.051 14.0396H156.942V22.6139C156.942 27.4796 152.944 31.423 148.011 31.423H137.781V27.4345H147.387C149.024 27.4345 150.358 26.9799 151.384 26.0688C152.411 25.1595 152.925 23.9985 152.925 22.5895C152.925 21.1804 152.411 20.0345 151.384 19.1534C150.356 18.2723 149.024 17.8552 147.387 17.8552H138.595L138.54 9.26589V9.23208C138.54 4.45837 142.464 0.588298 147.303 0.588298L147.302 0.586419ZM15.6295 0.586419H26.884V4.56733H15.9435C13.8902 4.56733 11.9909 5.07457 10.2497 6.08718C8.50841 7.09978 7.13062 8.48061 6.11822 10.2278C5.10581 11.9749 4.5996 13.8762 4.5996 15.9314C4.5996 17.9867 5.10581 20.0626 6.11822 21.7948C7.13062 23.5288 8.50651 24.9002 10.2497 25.9128C11.9909 26.9254 13.8902 27.4327 15.9435 27.4327H22.5965V17.8533H11.7892V13.9776H26.884V31.4211H15.6409C7.00502 31.4267 0 24.5226 0 16.0047C0 7.48867 6.99741 0.586419 15.6295 0.586419ZM59.6655 14.9V31.4324H55.6824V14.9526C55.6824 9.21705 50.9686 4.56733 45.153 4.56733C39.3374 4.56733 34.6236 9.21705 34.6236 14.9526V31.4324H30.6063V0.605206H45.1739C53.1781 0.605206 59.6674 7.00585 59.6674 14.9019L59.6655 14.9ZM132.058 9.88961C132.058 12.8466 129.63 15.242 126.637 15.242C123.643 15.242 121.215 12.8448 121.215 9.88961C121.215 6.93446 123.643 4.53727 126.637 4.53727C129.63 4.53727 132.058 6.93446 132.058 9.88961ZM167.791 15.9784V16.0141C167.791 24.5282 174.789 31.4211 183.421 31.4211H190.026V27.4327H183.527C177.042 27.4327 171.799 22.178 171.938 15.7492C172.073 9.49885 177.402 4.56545 183.741 4.56545H190.026V0.605206H183.377C174.768 0.605206 167.789 7.48867 167.789 15.9803L167.791 15.9784ZM285.509 0.605206H270.941V31.4211H274.958V14.9526C274.958 9.21705 279.672 4.56733 285.488 4.56733C291.303 4.56733 296.017 9.21705 296.017 14.9526V31.4211H300V14.9C300 7.00397 293.511 0.603327 285.507 0.603327L285.509 0.605206ZM212.794 10.9398C212.794 11.7908 212.488 12.5104 211.879 13.0984C211.268 13.6864 210.547 13.9795 209.713 13.9795H200.426C199.562 13.9795 198.833 13.6864 198.238 13.0984C197.642 12.5122 197.345 11.7927 197.345 10.9398V0.605206H193.328V31.4211H197.345V20.893C197.345 20.042 197.642 19.3224 198.238 18.7344C198.833 18.1483 199.562 17.8533 200.426 17.8533H209.713C210.547 17.8533 211.268 18.1464 211.879 18.7344C212.488 19.3224 212.794 20.042 212.794 20.893V31.4211H216.768V0.605206H212.794V10.9398ZM250.856 0.605206V31.4211H267.641V0.605206H250.856ZM259.249 15.2438C256.253 15.2438 253.827 12.8466 253.827 9.89149C253.827 6.93634 256.255 4.53915 259.249 4.53915C262.242 4.53915 264.67 6.93634 264.67 9.89149C264.67 12.8466 262.242 15.2438 259.249 15.2438ZM236.148 2.24529C235.617 1.08427 234.867 0.501879 233.895 0.501879C232.922 0.501879 232.172 1.08239 231.642 2.24529L218.26 31.4211H249.397L236.148 2.24529ZM233.895 26.3712C230.899 26.3712 228.473 23.974 228.473 21.0189C228.473 18.0637 230.901 15.6665 233.895 15.6665C236.888 15.6665 239.316 18.0637 239.316 21.0189C239.316 23.974 236.888 26.3712 233.895 26.3712ZM92.2147 8.1556C90.7818 5.77532 88.8483 3.90416 86.4181 2.54212C83.9861 1.18196 81.3371 0.5 78.4711 0.5C75.6052 0.5 73.0646 1.18196 70.5888 2.54212C68.113 3.90416 66.1795 5.77532 64.7922 8.1556C63.4011 10.5378 62.7084 13.1303 62.7084 15.9371C62.7084 18.7438 63.403 21.3383 64.7922 23.7185C66.1814 26.1007 68.1149 27.9925 70.5888 29.3959C73.0646 30.7993 75.6889 31.5 78.4711 31.5C81.2533 31.5 83.9842 30.7993 86.4181 29.3959C88.8483 27.9925 90.7818 26.1007 92.2147 23.7185C93.6477 21.3383 94.3633 18.7419 94.3633 15.9371C94.3633 13.1322 93.6477 10.5359 92.2147 8.1556ZM78.5377 21.3777C75.5348 21.3777 73.1008 18.973 73.1008 16.0066C73.1008 13.0401 75.5348 10.6354 78.5377 10.6354C81.5407 10.6354 83.9747 13.0401 83.9747 16.0066C83.9747 18.973 81.5407 21.3777 78.5377 21.3777Z" fill="#FDFFF9"/>
</g>
<defs>
<clipPath id="clip0_894_433">
<rect width="300" height="32" fill="white"/>
</clipPath>
</defs>
</svg>
