<svg width="500" height="124" viewBox="0 0 500 124" fill="none" xmlns="http://www.w3.org/2000/svg">
<path fill-rule="evenodd" clip-rule="evenodd" d="M116.223 7.57821C113.344 4.24099 109.084 2.12864 104.331 2.12864H40.5777C39.3248 2.12864 38.1062 2.27538 36.9381 2.55263C33.4556 2.90806 30.1981 4.6311 27.9384 7.42888C27.9384 7.42888 4.86585 37.7939 2.95427 40.1606C1.04269 42.5273 0 45.4777 0 48.52V68.0631C0 71.5915 1.40167 74.9755 3.89665 77.4704L7.06125 80.635C9.35474 82.9285 12.4654 84.217 15.7088 84.217C22.463 84.217 27.9384 89.6923 27.9384 96.4465V106.436C27.9384 109.964 28.4318 114.477 31.5402 118.084C34.5471 121.573 38.2336 123.344 42.0967 123.344H447.92C455.857 123.344 464.199 118.987 468.596 115.896C472.993 112.805 487.952 93.136 492.366 86.9706C496.781 80.8052 500 73.868 500 65.8309V59.7643C500 54.5542 498.388 49.7093 495.635 45.7036C498.445 42.7745 500.134 38.7128 499.776 34.057C498.777 21.047 494.294 11.6125 485.909 6.02094C478.377 0.998207 469.409 0.453707 463.602 0.123199L463.307 0.10643H429.592C420.743 0.10643 412.479 3.66115 406.287 9.64474C403.528 5.13672 398.558 2.12864 392.885 2.12864H373.727C368.266 2.12864 363.456 4.9166 360.643 9.14686C357.734 4.76374 352.823 2.12864 347.561 2.12864H322.959C319.958 2.12864 317.154 2.97059 314.769 4.43118C312.41 2.97984 309.615 2.12864 306.561 2.12864H291.595C284.885 2.12864 278.917 6.3919 276.742 12.7388L276.731 12.7712C274.587 6.46196 268.641 2.12864 261.866 2.12864H251.245C244.471 2.12864 238.524 6.46197 236.381 12.7713L236.37 12.7388C234.194 6.3919 228.226 2.12864 221.516 2.12864H206.55C202.037 2.12864 198.089 3.98764 195.279 6.89537L194.863 6.84105C189.251 2.54684 182.244 0 174.678 0H137.427C129.517 0 122.125 2.77434 116.223 7.57821ZM174.678 10.3828H137.426C131.253 10.3828 125.506 12.8307 121.142 17.088C116.885 21.3453 114.437 27.1991 114.544 33.2657V65.8339C114.437 71.9005 116.885 77.6478 121.142 82.0115C125.506 86.2688 131.36 88.7168 137.426 88.7168H174.678C187.237 88.7168 197.56 78.3929 197.56 65.8339V33.2657C197.56 20.6003 187.237 10.3828 174.678 10.3828ZM167.653 57.5322C167.653 61.683 164.247 65.0889 160.096 65.0889H151.901C147.75 65.0889 144.344 61.683 144.344 57.5322V41.5674C144.344 37.4165 147.75 34.0107 151.901 34.0107H160.096C164.247 34.0107 167.653 37.4165 167.653 41.5674V57.5322ZM40.5775 12.5114C37.6384 12.5114 35.2559 14.894 35.2559 17.833V32.7335C35.2559 35.6726 37.6384 38.0551 40.5775 38.0551H52.1443C55.0834 38.0551 57.4659 40.4377 57.4659 43.3767V82.4487C57.4659 85.3877 59.8485 87.7703 62.7875 87.7703H82.1201C85.0592 87.7703 87.4417 85.3877 87.4417 82.4487V43.3767C87.4417 40.4377 89.8243 38.0551 92.7634 38.0551H104.33C107.269 38.0551 109.652 35.6726 109.652 32.7335V17.833C109.652 14.894 107.269 12.5114 104.33 12.5114H40.5775ZM286.561 16.1075C287.298 13.9564 289.321 12.5114 291.595 12.5114H306.561C310.232 12.5114 312.801 16.1415 311.579 19.6038L289.046 83.463C288.295 85.5908 286.284 87.0138 284.028 87.0138H265.315C263.501 87.0138 261.865 85.9558 261.101 84.3387C260.972 84.0659 260.909 83.7666 260.873 83.467C260.162 77.569 259.529 74.2498 256.667 74.2498C253.803 74.2498 252.935 77.5078 252.218 83.4675C252.182 83.7617 252.122 84.056 251.997 84.3249C251.243 85.9523 249.606 87.0138 247.786 87.0138H229.083C226.827 87.0138 224.816 85.5908 224.065 83.463L201.531 19.6038C200.31 16.1415 202.878 12.5114 206.55 12.5114H221.516C223.79 12.5114 225.813 13.9564 226.55 16.1075L232.208 32.6135C233.939 37.6645 241.2 37.3037 242.423 32.106L246.065 16.615C246.63 14.2108 248.775 12.5114 251.245 12.5114H261.866C264.335 12.5114 266.481 14.2108 267.046 16.615L270.688 32.106C271.91 37.3037 279.171 37.6645 280.903 32.6135L286.561 16.1075ZM373.727 12.5114C370.788 12.5114 368.405 14.894 368.405 17.833V21.989C368.405 27.2617 361.561 29.3239 358.648 24.9288L351.997 14.8932C351.011 13.4058 349.346 12.5114 347.561 12.5114H322.959C320.02 12.5114 317.637 14.894 317.637 17.833V81.7987C317.637 84.7377 320.02 87.1203 322.959 87.1203H342.968C345.907 87.1203 348.29 84.7377 348.29 81.7987V70.8324C348.29 65.3629 355.551 63.4517 358.243 68.2126L367.41 84.4185C368.354 86.0881 370.123 87.1203 372.042 87.1203H392.885C395.824 87.1203 398.206 84.7377 398.206 81.7987V17.8331C398.206 14.894 395.824 12.5114 392.885 12.5114H373.727ZM438.784 42.5668C438.968 42.6198 439.155 42.638 439.346 42.6511C440.977 42.7631 449.497 43.3463 459.819 44.0153C463.544 44.3194 467.541 44.6235 471.537 44.9276C473.136 45.0492 474.735 45.1709 476.316 45.2925C483.766 45.9311 489.62 52.2106 489.62 59.7673V65.8339C489.62 78.3929 479.402 88.6103 466.737 88.6103H427.783C415.224 88.6103 406.816 78.3929 406.816 65.8339V64.2374C406.816 61.2984 409.198 58.9158 412.137 58.9158H431.561C433.142 58.9158 434.999 59.6076 436.856 60.2994C438.713 60.9912 440.57 61.683 442.151 61.683H456.2C459.298 61.683 460.192 57.274 457.52 56.526C457.352 56.479 457.18 56.4612 457.006 56.4474C455.416 56.3209 446.702 55.62 436.51 54.6585C435.433 54.555 434.34 54.4514 433.239 54.3471L433.239 54.347C428.68 53.9152 423.98 53.4699 419.694 52.9556C412.35 52.1041 406.709 45.9311 406.816 38.5873V33.3721C406.709 27.3055 409.157 21.4517 413.415 17.1945C417.778 12.9372 423.526 10.4892 429.592 10.4892H463.012C475.188 11.1822 487.732 12.7958 489.426 34.8549C489.651 37.7853 487.237 40.1838 484.298 40.1838H464.859C463.264 40.1838 461.391 39.5186 459.519 38.8534C457.646 38.1882 455.773 37.523 454.178 37.523H440.129C437.04 37.523 436.143 41.8051 438.784 42.5668Z" fill="white"/>
</svg>
