<svg width="130" height="52" viewBox="0 0 130 52" fill="none" xmlns="http://www.w3.org/2000/svg">
<g clip-path="url(#clip0_895_500)">
<path d="M0.192426 40.4283L0.0690308 39.396C1.72209 38.7367 2.01212 37.8277 2.13541 36.0096C2.2587 34.6478 2.2587 32.8298 2.2587 31.3846V20.4064C2.2587 18.9614 2.2587 17.1433 2.13541 15.7814C2.01212 13.9634 1.72209 13.0577 0.0690308 12.3951L0.192426 11.3629C1.80546 11.486 2.91861 11.486 3.9518 11.486H11.5539C13.2469 11.486 14.5301 11.486 16.1398 11.3629C16.4297 13.4672 16.5931 14.9956 16.7198 17.2665L15.5199 17.473C14.9833 15.9445 14.5268 15.0789 13.9068 14.4162C13.2869 13.7536 12.3371 13.424 11.5505 13.3008C10.5174 13.1343 9.60752 13.0943 7.99779 13.0943C6.05481 13.0943 5.80812 13.424 5.68482 15.0755C5.56153 16.3541 5.56153 17.8425 5.56153 19.3276V24.6119C6.96801 24.6119 9.86082 24.5287 11.1806 24.4055C13.0403 24.199 13.6202 23.5397 14.2402 21.6384L15.2333 21.8449C15.1099 23.4565 15.1099 24.3622 15.1099 25.3944C15.1099 26.4267 15.1099 27.3757 15.2333 28.9872L14.2402 29.1937C13.6202 27.2957 13.0403 26.6763 11.1806 26.4267C9.85751 26.2601 6.92467 26.2202 5.56153 26.2202V31.7942C5.56153 33.2393 5.64479 35.4702 5.68482 36.296C5.76819 38.3205 6.47132 38.6901 8.33105 38.6901C10.1908 38.6901 11.5972 38.6502 12.7104 38.4836C14.1568 38.2772 14.8167 37.6979 15.4366 36.8321C15.9332 36.0462 16.3465 35.1805 16.883 33.6522L17.9995 33.8586C17.7929 36.336 17.4629 38.3605 17.0064 40.5048C13.9902 40.3383 10.2308 40.2984 4.93825 40.2984C2.9119 40.2984 1.79875 40.2984 0.185719 40.4216L0.192426 40.4283Z" fill="#FDFFF9"/>
<path d="M23.5204 27.5062C24.1004 25.9379 24.2237 25.1521 24.2237 24.7392C24.2237 24.4927 24.1004 24.3662 23.8937 24.3662C23.4804 24.3662 22.6539 25.0255 20.7542 27.2564L19.9677 26.5538C22.3239 23.1276 24.017 21.5592 25.3801 21.5592C26.2466 21.5592 27.0332 22.345 27.0332 23.5837C27.0332 24.9056 26.3733 26.7203 25.7534 28.4152L23.0672 36.0104C22.6139 37.249 22.5306 37.5786 22.5306 37.7452C22.5306 37.9516 22.6972 38.1581 22.9439 38.1581C23.3971 38.1581 24.2237 37.7052 26.25 34.815L27.0765 35.3943C24.8869 39.6465 22.9838 40.8018 21.5374 40.8018C20.5876 40.8018 19.761 39.9761 19.761 38.9039C19.761 37.9549 20.051 37.046 21.0408 34.3622L23.5204 27.5095V27.5062ZM26.7033 10.2081C27.943 10.2081 28.8929 11.1571 28.8929 12.3958C28.8929 13.6344 27.943 14.5834 26.7033 14.5834C25.4634 14.5834 24.5136 13.6344 24.5136 12.3958C24.5136 11.1571 25.4634 10.2081 26.7033 10.2081Z" fill="#FDFFF9"/>
<path d="M42.2621 24.5758C43.2552 25.6913 43.6251 27.0931 43.6251 28.6215C43.6251 32.6671 40.6489 35.5574 37.0129 35.5574C35.1531 35.5574 33.7901 35.0213 32.5903 34.0289C31.3105 35.0213 31.0205 35.9702 31.0205 36.9192C31.0205 38.118 31.9704 38.9004 33.83 38.9836L38.8293 39.1501C42.8386 39.2733 44.7783 41.6674 44.7783 44.7641C44.7783 48.4801 41.0989 51.7399 35.3565 51.7399C30.6872 51.7399 28.3309 49.6755 28.3309 46.8685C28.3309 44.9273 29.2808 43.3988 31.6371 41.7907C29.8607 41.1713 28.6609 39.8094 28.6609 37.8682C28.6609 36.2566 29.4042 34.6051 31.5138 32.9968C30.5639 31.7181 30.1074 30.3963 30.1074 28.6215C30.1074 24.739 33.2069 21.6855 36.8429 21.6855C39.2392 21.6855 39.859 22.5114 42.2153 22.5114C43.2485 22.5114 44.6949 22.4714 46.1414 22.3449L46.4714 23.0474L46.1414 24.5758H42.2554H42.2621ZM38.0894 42.2867C36.2297 42.2867 34.7432 42.2867 33.0468 42.1635C31.6004 43.5254 31.0205 44.8872 31.0205 46.1693C31.0205 47.944 32.5503 49.4324 36.0197 49.4324C40.7722 49.4324 42.5087 47.4079 42.5087 45.47C42.5087 43.532 41.1856 42.2901 38.0861 42.2901L38.0894 42.2867ZM33.2968 28.3718C33.2968 32.0044 34.7033 33.9058 37.0162 33.9058C39.1659 33.9058 40.489 32.4607 40.489 28.8279C40.489 25.4016 39.0425 23.3372 36.7696 23.3372C34.7432 23.3372 33.2968 24.9054 33.2968 28.3751V28.3718Z" fill="#FDFFF9"/>
<path d="M55.7024 32.4606C59.6685 32.4606 62.688 35.3908 62.688 39.3566C62.688 39.6862 62.688 39.9758 62.6047 40.3055H49.8768C49.7934 40.8016 49.7934 41.2545 49.7934 41.8738C49.7934 46.1259 52.3564 49.0161 55.6625 49.0161C58.3087 49.0161 59.9185 48.1071 61.6116 45.673L62.6047 46.2924C61.3649 49.389 58.9253 51.9496 55.2492 51.9496C50.0833 51.9496 46.6539 47.5743 46.6539 42.5364C46.6539 36.796 50.5799 32.464 55.7024 32.464V32.4606ZM59.0486 38.6539C59.0086 35.847 57.1056 34.3186 54.7927 34.3186C52.273 34.3186 50.66 36.2165 50.1634 38.6539H59.0486Z" fill="#FDFFF9"/>
<path d="M79.9118 43.4023C79.9118 44.6809 79.9118 46.126 79.9954 47.4079C80.1182 49.0995 80.3689 49.7621 81.8948 50.3814L81.771 51.3304C80.3255 51.2072 79.4155 51.2072 78.4653 51.2072C77.5151 51.2072 76.6061 51.2072 75.1593 51.3304L75.036 50.3814C76.5659 49.7621 76.7722 49.1028 76.896 47.4079C77.0188 46.1293 77.0188 44.6842 77.0188 43.4023V39.0269C77.0188 36.7161 75.6125 35.1445 73.4229 35.1445C70.57 35.1445 68.7936 37.0857 68.7936 39.7263V43.4023C68.7936 44.6809 68.7936 46.126 68.877 47.4079C69.0003 49.0995 69.2503 49.7621 70.7766 50.3814L70.6533 51.3304C69.2069 51.2072 68.297 51.2072 67.3472 51.2072C66.3974 51.2072 65.4875 51.2072 64.0411 51.3304L63.9178 50.3814C65.4475 49.7621 65.6541 49.1028 65.7774 47.4079C65.9008 46.1293 65.9008 44.6842 65.9008 43.4023V42.37C65.9008 41.0914 65.9008 39.7695 65.7774 38.4875C65.6541 36.796 65.2409 36.4231 63.7512 36.1334V35.2677C65.6508 34.3587 66.684 33.6993 68.1304 32.3774L68.997 32.7071C68.8736 34.029 68.7903 35.1445 68.7503 36.1767L68.7903 36.2167C69.9068 34.1122 71.8497 32.4607 74.3293 32.4607C76.3554 32.4607 78.0485 33.4097 79.042 35.0213C79.5786 35.9703 79.9087 37.0024 79.9087 38.6541V43.4023H79.9118Z" fill="#FDFFF9"/>
<path d="M55.0941 20.4884C55.0941 21.9335 55.1341 24.1644 55.2174 24.9902C55.4241 27.0147 56.0039 27.3843 57.8636 27.3843C59.7234 27.3843 60.8798 27.3843 62.0797 27.1778C63.5661 26.8881 64.3526 26.2288 64.9725 25.2798C65.5091 24.4941 65.9656 23.5451 66.5022 21.9368L67.7021 22.1432C67.4954 24.7871 67.1221 26.8915 66.6689 29.2023C63.4028 29.0358 59.7667 28.9959 54.4775 28.9959C52.4512 28.9959 51.3381 28.9959 49.725 29.1191L49.6016 28.0869C51.2547 27.4276 51.5447 26.5186 51.668 24.7005C51.7913 23.3386 51.7913 21.5206 51.7913 20.0755V9.09402C51.7913 7.64885 51.7913 5.83081 51.668 4.46891C51.5447 2.65087 51.2547 1.7452 49.6016 1.08262L49.725 0.050354C51.3381 0.173544 52.4512 0.173544 53.4044 0.173544C54.4375 0.173544 55.5541 0.173544 57.1638 0.050354L57.2871 1.08262C55.634 1.7419 55.3441 2.65087 55.2207 4.46891C55.0974 5.83081 55.0974 7.64885 55.0974 9.09402V20.4884H55.0941Z" fill="#FDFFF9"/>
<path d="M70.8353 13.3025C71.6218 11.8575 73.6881 10.329 76.1244 10.329C78.1506 10.329 79.721 11.0317 80.7104 12.4768C81.3707 13.4257 81.9506 15.0773 81.9506 16.9353V20.8977C81.9506 22.1764 81.9506 23.3751 82.0331 24.6537C82.1167 26.0155 82.777 27.0478 84.0997 27.6671L83.5632 29.3186C80.7104 29.1954 79.6374 27.9568 79.2639 26.0988H79.1803C78.064 28.6161 76.2481 29.6483 74.388 29.6483C71.7418 29.6483 70.0887 27.9135 70.0887 25.7259C70.0887 23.7846 71.0818 22.6292 72.6917 21.5969C74.2213 20.6047 76.9476 19.6158 79.0534 19.0797V17.0552C79.0534 15.7766 78.7243 14.7843 78.1878 14.0817C77.5677 13.2559 76.4947 12.9263 75.5845 12.9263C74.178 12.9263 73.0215 13.5057 71.6185 14.6178L70.832 13.2959L70.8353 13.3025ZM79.0576 20.5282C78.1909 20.8178 77.4439 21.1474 76.6608 21.4771C73.8515 22.6758 73.0249 23.9145 73.0249 25.0266C73.0249 26.1388 73.6448 27.131 75.0912 27.131C76.7846 27.131 79.0576 25.6459 79.0576 22.7956V20.5248V20.5282Z" fill="#FDFFF9"/>
<path d="M91.9977 25.0704L94.7236 18.6707C95.8399 16.0701 96.004 15.1212 96.004 14.3353C96.004 13.4695 95.7966 12.807 94.5575 12.1477L94.7236 11.1987C95.9235 11.3219 96.623 11.3219 97.533 11.3219C98.443 11.3219 99.0198 11.3219 100.22 11.1987L100.342 12.1477C99.5996 12.807 99.1425 13.5528 98.3595 15.1212C97.7404 16.3598 97.2431 17.5985 96.7468 18.7139L89.4318 35.2295C88.6445 37.0043 87.8614 38.2862 87.035 39.152C86.3314 39.8545 85.215 40.4738 83.8954 40.4738C82.7791 40.4738 81.9526 39.7313 81.9526 38.7391C81.9526 37.83 82.5727 37.0475 83.5219 37.0475C84.3091 37.0475 84.5949 37.254 85.3419 37.254C86.2086 37.254 86.8287 36.5947 87.4487 35.2728L90.4243 28.8331L86.3314 18.7172C85.8784 17.5619 85.3388 16.0334 84.6785 14.5484C84.0584 13.1865 83.7685 12.8136 82.7791 12.1543L82.9452 11.2054C84.1451 11.2885 85.3852 11.3286 86.2922 11.3286C87.198 11.3286 87.945 11.2885 89.1449 11.2054L89.2677 12.1543C88.3577 12.5672 88.0286 13.1466 88.0286 13.8059C88.0286 14.7549 88.1947 15.5407 89.4348 18.6374L91.9977 25.0771V25.0704Z" fill="#FDFFF9"/>
<path d="M109.11 10.2496C113.076 10.2496 116.093 13.1797 116.093 17.1455C116.093 17.4751 116.093 17.7648 116.01 18.0945H103.282C103.198 18.5906 103.198 19.0435 103.198 19.6628C103.198 23.9148 105.761 26.8051 109.067 26.8051C111.713 26.8051 113.323 25.8961 115.016 23.462L116.01 24.0814C114.769 27.178 112.33 29.7386 108.654 29.7386C103.488 29.7386 100.059 25.3633 100.059 20.3254C100.059 14.5849 103.985 10.2529 109.107 10.2529L109.11 10.2496ZM112.456 16.4429C112.417 13.636 110.513 12.1075 108.2 12.1075C105.681 12.1075 104.068 14.0055 103.572 16.4429H112.456Z" fill="#FDFFF9"/>
<path d="M125.881 13.0164C123.938 13.0164 122.329 15.2873 122.329 19.2497V21.1909C122.329 22.4695 122.329 23.9146 122.413 25.1966C122.535 26.8881 122.909 27.634 124.725 28.17L124.602 29.119C123.155 28.9959 121.833 28.9959 120.882 28.9959C119.932 28.9959 119.022 28.9959 117.577 29.119L117.453 28.17C118.983 27.5507 119.189 26.8914 119.313 25.1966C119.436 23.918 119.436 22.4728 119.436 21.1909V20.1586C119.436 18.8801 119.436 17.5581 119.313 16.2762C119.189 14.5847 118.776 14.2118 117.287 13.922V13.0563C119.186 12.1473 120.219 11.4881 121.666 10.1661L122.532 10.4957C122.408 11.8177 122.326 13.4692 122.286 14.5015L122.326 14.5414C123.442 11.8177 125.342 10.246 127.284 10.246C128.978 10.246 129.931 11.195 129.931 12.3105C129.931 13.426 129.311 13.7556 128.444 13.7556C127.371 13.7556 126.875 13.0131 125.881 13.0131V13.0164Z" fill="#FDFFF9"/>
</g>
<defs>
<clipPath id="clip0_895_500">
<rect width="130" height="52" fill="white"/>
</clipPath>
</defs>
</svg>
