<svg width="23" height="22" viewBox="0 0 23 22" fill="none" xmlns="http://www.w3.org/2000/svg">
<path fill-rule="evenodd" clip-rule="evenodd" d="M12.4151 0.826558C15.933 1.42753 19.9226 2.34306 21.5098 5.34819C23.1486 8.45071 21.4329 11.8384 19.7893 14.7878C18.0941 17.8298 16.0621 20.9965 12.4005 21.6947C8.52409 22.4338 4.01279 21.2303 1.43147 18.288C-0.875056 15.6589 0.547496 12.0916 1.14333 8.8632C1.60094 6.38378 2.23883 3.93111 4.36039 2.41848C6.61737 0.80928 9.52008 0.331981 12.4151 0.826558Z" fill="#FFFAF4"/>
<path d="M10.0542 17.1957C8.70344 17.1957 7.25641 16.881 6.69667 15.6674C6.47595 15.1885 6.14355 14.1741 6.40488 12.7624C6.40973 12.7372 7.00744 10.1283 7.83028 9.57298C7.9037 9.51953 7.98727 9.48166 8.07586 9.4617C8.16445 9.44173 8.25619 9.44009 8.34543 9.45688C10.8532 9.96674 11.7229 9.48557 11.7313 9.48071C11.7707 9.45499 11.8149 9.43741 11.8612 9.42901C11.9075 9.42061 11.955 9.42155 12.001 9.43179C12.047 9.44203 12.0904 9.46135 12.1288 9.48862C12.1671 9.51589 12.1997 9.55056 12.2245 9.59059C12.2493 9.63062 12.2658 9.6752 12.2731 9.72171C12.2804 9.76822 12.2783 9.81572 12.267 9.86142C12.2557 9.90712 12.2353 9.95009 12.2071 9.98781C12.179 10.0255 12.1435 10.0572 12.1029 10.0811C11.9961 10.1473 10.9835 10.7088 8.23198 10.1543C8.17636 10.1888 7.92607 10.391 7.55129 11.393C7.36786 11.8819 7.217 12.3824 7.0997 12.8913C6.87368 14.1109 7.15179 14.9687 7.33763 15.3717C7.58616 15.9098 8.29511 16.5415 10.2621 16.4868C11.0725 16.4566 11.8776 16.3436 12.6649 16.1495C12.7098 16.1372 12.7568 16.1338 12.803 16.1397C12.8492 16.1456 12.8938 16.1606 12.9342 16.1838C12.9746 16.207 13.01 16.238 13.0384 16.2749C13.0668 16.3119 13.0876 16.3541 13.0996 16.3991C13.1116 16.4441 13.1146 16.4911 13.1083 16.5373C13.1021 16.5834 13.0868 16.6279 13.0633 16.6682C13.0398 16.7084 13.0086 16.7436 12.9714 16.7717C12.9342 16.7998 12.8919 16.8203 12.8468 16.832C12.743 16.8584 11.4501 17.1957 10.0542 17.1957Z" fill="#261704"/>
<path d="M11.5317 19.624H11.5198C11.4262 19.6208 11.3376 19.5807 11.2736 19.5123C11.2097 19.4439 11.1754 19.3529 11.1785 19.2593L11.2633 16.703C11.2648 16.6566 11.2755 16.611 11.2947 16.5687C11.3138 16.5265 11.3411 16.4884 11.375 16.4567C11.4089 16.425 11.4487 16.4003 11.4921 16.3839C11.5355 16.3676 11.5818 16.36 11.6281 16.3615C11.6745 16.3631 11.7201 16.3737 11.7624 16.3929C11.8047 16.412 11.8427 16.4393 11.8744 16.4732C11.9061 16.5071 11.9309 16.5469 11.9472 16.5903C11.9635 16.6338 11.9711 16.68 11.9696 16.7264L11.8848 19.2823C11.8819 19.3739 11.8433 19.4608 11.7774 19.5246C11.7115 19.5884 11.6234 19.624 11.5317 19.624Z" fill="#261704"/>
<path d="M14.1909 19.6461C14.1803 19.6461 14.1702 19.6461 14.1596 19.6461C14.1134 19.642 14.0684 19.6289 14.0273 19.6075C13.9862 19.586 13.9496 19.5567 13.9198 19.5212C13.89 19.4856 13.8675 19.4446 13.8536 19.4003C13.8397 19.3561 13.8346 19.3095 13.8387 19.2633L14.1918 15.2463C14.1971 15.18 14.2209 15.1165 14.2607 15.0631C14.3004 15.0098 14.3544 14.9688 14.4165 14.9448C14.8641 14.7739 15.5642 14.3766 15.6455 14.0659C15.7748 13.5697 15.6746 13.345 15.2482 13.1751C15.0477 13.0947 14.9687 13.1309 14.8593 13.1795C14.737 13.2342 14.3653 13.4002 14.0814 12.9455C13.6868 12.312 13.4634 10.4492 13.4392 10.2386C13.4339 10.1925 13.4377 10.1459 13.4505 10.1013C13.4633 10.0567 13.4847 10.015 13.5135 9.9787C13.5424 9.94238 13.5781 9.9121 13.6187 9.88959C13.6592 9.86708 13.7038 9.85278 13.7499 9.84751C13.796 9.84223 13.8427 9.84608 13.8873 9.85885C13.9319 9.87161 13.9735 9.89303 14.0098 9.92189C14.0462 9.95075 14.0764 9.98648 14.0989 10.027C14.1215 10.0676 14.1358 10.1122 14.141 10.1583C14.2209 10.8522 14.4231 12.0565 14.6429 12.5032C14.816 12.4321 15.0967 12.3535 15.5104 12.5191C16.2714 12.8237 16.5464 13.402 16.3279 14.2438C16.1619 14.8799 15.3055 15.3297 14.8734 15.5195L14.5392 19.3229C14.5317 19.4105 14.4919 19.4921 14.4275 19.5518C14.3631 19.6116 14.2788 19.6452 14.1909 19.6461V19.6461Z" fill="#261704"/>
<path d="M15.4998 13.2145C15.4768 13.0887 15.4089 12.3921 16.3244 11.0184C17.2399 9.64464 16.9274 8.83416 16.5305 8.11904L16.5226 8.10535C16.3191 7.73896 16.0406 7.23705 15.0036 6.7188C13.7676 6.10079 12.9955 5.87169 12.4874 5.72071C12.2792 5.66547 12.0753 5.59509 11.8774 5.51015C11.7948 6.07033 11.6937 6.69011 11.2594 6.85167C11.1035 6.90906 10.8563 6.92451 10.5623 6.6698C10.2533 6.40097 10.1399 6.31003 10.0326 6.22219C9.98846 6.18555 9.94431 6.14979 9.88693 6.103C9.88726 6.28818 9.84626 6.4711 9.76691 6.63843C9.68756 6.80575 9.57187 6.95325 9.42828 7.07018C8.9758 7.45114 8.48934 7.20571 8.23993 7.02604C7.96977 6.83093 7.7102 6.54355 7.43828 6.23146C7.46653 6.48749 7.51244 6.77575 7.53937 6.94305C7.62766 7.49838 7.64796 7.64935 7.57424 7.79679C7.29437 8.35697 6.6949 8.44835 6.14752 8.4148C6.91209 8.85579 7.92739 9.28178 8.36883 9.44953C8.45438 9.48424 8.52294 9.55108 8.55981 9.63573C8.59669 9.72037 8.59895 9.81609 8.5661 9.90238C8.53326 9.98867 8.46793 10.0587 8.38411 10.0974C8.30028 10.1361 8.20464 10.1404 8.11765 10.1095C8.02274 10.0737 5.77804 9.21512 4.94196 8.42539C4.81968 8.30974 4.56497 8.06915 4.7102 7.78266C4.85544 7.49617 5.16223 7.54958 5.54893 7.62066C5.97933 7.69923 6.68475 7.82813 6.91032 7.53237C6.90105 7.42907 6.86618 7.22336 6.84146 7.05385C6.6768 6.01074 6.60308 5.4095 7.0092 5.22057C7.35352 5.059 7.64929 5.39714 7.7464 5.50794C7.79055 5.55827 7.83469 5.60888 7.87883 5.6598C8.1437 5.96615 8.42003 6.2831 8.65488 6.45438C8.8756 6.61462 8.93343 6.56651 8.97536 6.53163C9.13295 6.3992 9.27201 6.21468 9.0866 5.56577C9.03672 5.3892 8.96079 5.12433 9.20712 4.96851C9.46359 4.80606 9.6927 5.00647 9.87677 5.16759C10.2418 5.48587 10.3553 5.57681 10.4736 5.67436C10.5862 5.76574 10.7027 5.86021 11.0197 6.13478C11.0973 5.95203 11.1556 5.55341 11.183 5.36624C11.2474 4.92966 11.2898 4.64096 11.5803 4.57165C11.6599 4.55287 11.7433 4.55911 11.8193 4.58953C11.8952 4.61995 11.9599 4.67306 12.0045 4.74161C12.0954 4.86653 12.2508 4.91818 12.687 5.04708C13.2207 5.20512 14.0272 5.44437 15.3201 6.0902C16.5522 6.70821 16.9062 7.34432 17.1406 7.76765L17.1481 7.78178C17.6646 8.7088 17.9935 9.79429 16.9128 11.4157C16.15 12.5594 16.1964 13.1011 16.1973 13.1064C16.1973 13.0976 16.1951 13.0931 16.1951 13.0931L15.4998 13.2145Z" fill="#261704"/>
<path d="M8.18649 12.6269C8.12288 12.6271 8.06045 12.6098 8.00594 12.577C7.60203 12.3356 7.09791 12.4751 7.09261 12.4764C7.00315 12.5015 6.90739 12.4903 6.8261 12.4453C6.74481 12.4003 6.68453 12.3251 6.65834 12.2359C6.63214 12.1468 6.64214 12.0509 6.68616 11.9691C6.73019 11.8872 6.80469 11.8261 6.89352 11.7988C6.92619 11.7891 7.69385 11.5679 8.36792 11.9705C8.43434 12.0101 8.48592 12.0705 8.51472 12.1423C8.54352 12.214 8.54796 12.2933 8.52736 12.3678C8.50675 12.4424 8.46224 12.5081 8.40066 12.5549C8.33908 12.6017 8.26384 12.627 8.18649 12.6269V12.6269Z" fill="#261704"/>
<path d="M9.10511 15.5182C8.84235 15.5155 8.58171 15.4707 8.33304 15.3858C8.25342 15.3485 8.19055 15.2829 8.15672 15.2018C8.12289 15.1207 8.12053 15.0299 8.15011 14.9471C8.17969 14.8643 8.23908 14.7955 8.31666 14.7542C8.39425 14.7129 8.48446 14.702 8.56965 14.7236C8.74811 14.7819 8.93462 14.8117 9.12233 14.8119C9.5055 14.8075 9.61277 14.6411 9.66353 14.4967C9.69584 14.4102 9.76078 14.3397 9.84442 14.3005C9.92806 14.2613 10.0237 14.2564 10.1109 14.2869C10.1982 14.3174 10.2699 14.3808 10.3109 14.4636C10.3519 14.5464 10.3588 14.642 10.3301 14.7298C10.2829 14.8724 10.2075 15.0039 10.1083 15.1166C10.009 15.2294 9.88811 15.3209 9.7527 15.3858C9.54929 15.4773 9.32811 15.5225 9.10511 15.5182V15.5182Z" fill="#261704"/>
<path d="M9.29004 12.5785C9.26752 12.5785 9.24505 12.5763 9.22295 12.5719C9.13099 12.5542 9.04981 12.5008 8.99725 12.4233C8.94468 12.3459 8.92504 12.2507 8.94263 12.1587C9.01812 11.7658 9.25561 10.8406 9.83301 10.7382C10.15 10.6821 10.4404 10.8706 10.6969 11.297C10.7451 11.3775 10.7594 11.4738 10.7367 11.5647C10.7139 11.6557 10.6559 11.7339 10.5755 11.7822C10.4951 11.8304 10.3988 11.8447 10.3078 11.8219C10.2168 11.7992 10.1386 11.7412 10.0904 11.6608C10.0499 11.5886 10.0003 11.5218 9.94293 11.4621C9.84625 11.5817 9.70588 11.9274 9.63392 12.292C9.61852 12.3721 9.57585 12.4445 9.51316 12.4967C9.45048 12.5489 9.37163 12.5778 9.29004 12.5785V12.5785Z" fill="#261704"/>
<path d="M8.40765 13.5097C8.40765 13.7534 8.25403 14.0394 8.01036 14.0394C7.76669 14.0394 7.52478 13.7534 7.52478 13.5097C7.52478 13.266 7.76669 12.98 8.01036 12.98C8.25403 12.98 8.40765 13.2669 8.40765 13.5097Z" fill="#261704"/>
<path d="M10.3942 13.1127C10.3942 13.3564 10.2405 13.6425 9.99687 13.6425C9.7532 13.6425 9.51129 13.3564 9.51129 13.1127C9.51129 12.8691 9.7532 12.583 9.99687 12.583C10.2405 12.583 10.3942 12.8699 10.3942 13.1127Z" fill="#261704"/>
<path d="M11.4182 21.5366C7.06342 21.5366 4.75559 19.8796 3.588 18.4898C2.06681 16.6813 1.43467 14.1568 1.70924 10.9862C1.96351 8.03784 2.80709 5.71699 4.21616 4.08341C5.71704 2.34469 7.79886 1.46338 10.4029 1.46338C12.1479 1.46338 13.8589 1.76257 15.3523 2.3294C17.0611 2.97747 18.3982 3.93095 19.3252 5.16259C20.6217 6.8865 21.034 9.04485 20.5497 11.5774L20.2028 11.5L20.5484 11.5774C19.9715 14.597 18.9862 16.9719 17.6199 18.636C16.0396 20.5607 13.9534 21.5366 11.4182 21.5366ZM10.4029 2.22807C8.00236 2.22807 6.09403 3.02814 4.7322 4.6058C3.43261 6.11081 2.65171 8.28159 2.41113 11.0579C2.15598 14.0049 2.72719 16.3324 4.10889 17.9751C5.18202 19.2507 7.32122 20.7719 11.4182 20.7719C13.7428 20.7719 15.6516 19.8825 17.092 18.128C18.3752 16.5651 19.3053 14.3093 19.8567 11.4226C20.2959 9.12849 19.9322 7.18234 18.7761 5.6453C17.9334 4.52503 16.7013 3.65184 15.1183 3.0506C13.6995 2.51483 12.0693 2.22807 10.4029 2.22807Z" fill="#261704"/>
</svg>
