<svg width="48" height="48" viewBox="0 0 48 48" fill="none" xmlns="http://www.w3.org/2000/svg">
<path d="M42 9H6C5.60218 9 5.22064 9.15804 4.93934 9.43934C4.65804 9.72064 4.5 10.1022 4.5 10.5V36C4.5 36.7956 4.81607 37.5587 5.37868 38.1213C5.94129 38.6839 6.70435 39 7.5 39H40.5C41.2957 39 42.0587 38.6839 42.6213 38.1213C43.1839 37.5587 43.5 36.7956 43.5 36V10.5C43.5 10.1022 43.342 9.72064 43.0607 9.43934C42.7794 9.15804 42.3978 9 42 9ZM24 24.9656L9.85687 12H38.1431L24 24.9656ZM18.5081 24L7.5 34.0894V13.9106L18.5081 24ZM20.7281 26.0344L22.9781 28.1062C23.2549 28.3603 23.6168 28.5012 23.9925 28.5012C24.3682 28.5012 24.7301 28.3603 25.0069 28.1062L27.2569 26.0344L38.1319 36H9.85687L20.7281 26.0344ZM29.4919 24L40.5 13.9088V34.0913L29.4919 24Z" fill="#15002E"/>
</svg>
