<svg width="24" height="24" viewBox="0 0 24 24" fill="none" xmlns="http://www.w3.org/2000/svg">
<path opacity="0.2" d="M10.5 5.25V18.75L3.75 12L10.5 5.25Z" fill="#FDFFF9"/>
<path d="M9.96935 4.71936L3.21935 11.4694C3.14962 11.539 3.0943 11.6217 3.05656 11.7128C3.01882 11.8038 2.99939 11.9014 2.99939 12C2.99939 12.0986 3.01882 12.1961 3.05656 12.2872C3.0943 12.3782 3.14962 12.461 3.21935 12.5306L9.96935 19.2806C10.0742 19.3856 10.2079 19.4571 10.3535 19.4861C10.4991 19.5151 10.65 19.5003 10.7871 19.4435C10.9242 19.3866 11.0414 19.2904 11.1238 19.167C11.2062 19.0435 11.2501 18.8984 11.25 18.75V12.75H20.25C20.4489 12.75 20.6397 12.671 20.7803 12.5303C20.921 12.3897 21 12.1989 21 12C21 11.8011 20.921 11.6103 20.7803 11.4697C20.6397 11.329 20.4489 11.25 20.25 11.25L11.25 11.25V5.24999C11.2501 5.10157 11.2062 4.95645 11.1238 4.833C11.0414 4.70956 10.9242 4.61334 10.7871 4.55652C10.65 4.49971 10.4991 4.48485 10.3535 4.51384C10.2079 4.54283 10.0742 4.61436 9.96935 4.71936ZM9.74998 16.9397L4.81029 12L9.74998 7.0603V16.9397Z" fill="#FDFFF9"/>
</svg>
