<svg width="26" height="28" viewBox="0 0 26 28" fill="none" xmlns="http://www.w3.org/2000/svg">
<path fill-rule="evenodd" clip-rule="evenodd" d="M14.6233 3.36118C18.1534 3.96423 22.1567 4.88292 23.7495 7.89843C25.3938 11.0117 23.6723 14.4111 22.023 17.3707C20.3219 20.4231 18.2829 23.6008 14.6086 24.3014C10.7189 25.043 6.19197 23.8354 3.60173 20.8829C1.28724 18.2447 2.7147 14.6651 3.3126 11.4256C3.77179 8.9376 4.41188 6.47646 6.54077 4.9586C8.80554 3.34384 11.7183 2.8649 14.6233 3.36118Z" fill="#FFCD9C"/>
<path d="M12.2543 19.7865C10.8988 19.7865 9.44679 19.4707 8.88511 18.253C8.66363 17.7724 8.33008 16.7544 8.59231 15.3379C8.59719 15.3126 9.19696 12.6947 10.0226 12.1375C10.0963 12.0838 10.1802 12.0458 10.2691 12.0258C10.358 12.0058 10.45 12.0041 10.5396 12.021C13.056 12.5326 13.9287 12.0498 13.9371 12.0449C13.9766 12.0191 14.021 12.0014 14.0675 11.993C14.1139 11.9846 14.1616 11.9855 14.2078 11.9958C14.2539 12.0061 14.2975 12.0254 14.336 12.0528C14.3745 12.0802 14.4071 12.115 14.432 12.1551C14.4569 12.1953 14.4735 12.24 14.4808 12.2867C14.4881 12.3334 14.486 12.381 14.4747 12.4269C14.4633 12.4728 14.4429 12.5159 14.4146 12.5537C14.3864 12.5916 14.3508 12.6234 14.3101 12.6473C14.2029 12.7137 13.1867 13.2772 10.4257 12.7208C10.3699 12.7554 10.1188 12.9583 9.74268 13.9638C9.55862 14.4544 9.40724 14.9566 9.28953 15.4672C9.06274 16.6911 9.3418 17.5518 9.52829 17.9562C9.77768 18.4962 10.4891 19.13 12.4629 19.0751C13.276 19.0449 14.0839 18.9315 14.8739 18.7367C14.919 18.7243 14.9661 18.721 15.0125 18.7269C15.0589 18.7328 15.1036 18.7478 15.1442 18.7711C15.1847 18.7944 15.2203 18.8255 15.2488 18.8626C15.2772 18.8996 15.2981 18.942 15.3101 18.9872C15.3222 19.0324 15.3252 19.0795 15.3189 19.1258C15.3127 19.1721 15.2973 19.2168 15.2737 19.2572C15.2501 19.2975 15.2188 19.3328 15.1815 19.361C15.1442 19.3893 15.1017 19.4098 15.0564 19.4215C14.9523 19.4481 13.6549 19.7865 12.2543 19.7865Z" fill="#15002E"/>
<path d="M13.7368 22.2241H13.7249C13.6309 22.221 13.5421 22.1807 13.4779 22.1121C13.4137 22.0434 13.3794 21.9521 13.3825 21.8582L13.4675 19.293C13.469 19.2465 13.4797 19.2007 13.499 19.1583C13.5182 19.1159 13.5456 19.0777 13.5796 19.0459C13.6136 19.0141 13.6535 18.9893 13.6971 18.9729C13.7407 18.9565 13.7871 18.9488 13.8336 18.9504C13.8801 18.9519 13.9259 18.9626 13.9683 18.9819C14.0107 19.0011 14.0489 19.0285 14.0808 19.0625C14.1126 19.0965 14.1374 19.1364 14.1538 19.18C14.1701 19.2236 14.1778 19.27 14.1762 19.3165L14.0912 21.8812C14.0882 21.9732 14.0496 22.0604 13.9834 22.1244C13.9173 22.1884 13.8288 22.2241 13.7368 22.2241Z" fill="#15002E"/>
<path d="M16.4053 22.2458C16.3947 22.2458 16.3845 22.2458 16.3738 22.2458C16.3275 22.2418 16.2824 22.2286 16.2411 22.2071C16.1998 22.1856 16.1632 22.1562 16.1333 22.1205C16.1034 22.0849 16.0808 22.0437 16.0668 21.9993C16.0528 21.9549 16.0477 21.9082 16.0518 21.8618L16.4062 17.8308C16.4114 17.7643 16.4354 17.7006 16.4753 17.6471C16.5152 17.5935 16.5694 17.5524 16.6316 17.5283C17.0808 17.3569 17.7833 16.9582 17.8648 16.6464C17.9946 16.1485 17.8941 15.923 17.4662 15.7525C17.2651 15.6719 17.1858 15.7082 17.0759 15.7569C16.9532 15.8118 16.5803 15.9784 16.2954 15.5221C15.8994 14.8865 15.6753 13.0172 15.6509 12.8059C15.6456 12.7597 15.6495 12.7128 15.6623 12.6681C15.6751 12.6233 15.6966 12.5815 15.7256 12.5451C15.7545 12.5086 15.7904 12.4783 15.8311 12.4557C15.8718 12.4331 15.9165 12.4187 15.9628 12.4134C16.009 12.4081 16.0558 12.412 16.1006 12.4248C16.1453 12.4376 16.1871 12.4591 16.2236 12.4881C16.26 12.517 16.2904 12.5529 16.313 12.5936C16.3356 12.6343 16.3499 12.679 16.3552 12.7253C16.4354 13.4216 16.6383 14.63 16.8589 15.0783C17.0325 15.007 17.3142 14.9281 17.7293 15.0942C18.493 15.3999 18.7689 15.9802 18.5497 16.8249C18.3831 17.4632 17.5238 17.9146 17.0901 18.105L16.7548 21.9216C16.7473 22.0094 16.7073 22.0913 16.6427 22.1513C16.5781 22.2112 16.4934 22.245 16.4053 22.2458V22.2458Z" fill="#15002E"/>
<path d="M17.7187 15.7918C17.6956 15.6655 17.6274 14.9666 18.5461 13.5881C19.4648 12.2096 19.1512 11.3963 18.753 10.6787L18.745 10.665C18.5408 10.2973 18.2613 9.79365 17.2208 9.27362C15.9805 8.65347 15.2057 8.42358 14.6959 8.27208C14.487 8.21665 14.2824 8.14603 14.0837 8.06079C14.0009 8.62291 13.8995 9.24483 13.4636 9.40695C13.3072 9.46453 13.0592 9.48004 12.7641 9.22445C12.4541 8.95469 12.3402 8.86344 12.2326 8.77529C12.1883 8.73852 12.144 8.70264 12.0864 8.65569C12.0867 8.84151 12.0456 9.02506 11.966 9.19297C11.8864 9.36087 11.7703 9.50888 11.6262 9.62622C11.1721 10.0085 10.684 9.7622 10.4337 9.58192C10.1626 9.38613 9.90218 9.09776 9.62931 8.78459C9.65766 9.04151 9.70373 9.33076 9.73075 9.49864C9.81934 10.0559 9.83972 10.2074 9.76574 10.3553C9.48491 10.9174 8.88336 11.0091 8.33409 10.9755C9.1013 11.418 10.1201 11.8455 10.5631 12.0138C10.6489 12.0486 10.7177 12.1157 10.7547 12.2006C10.7917 12.2856 10.794 12.3816 10.761 12.4682C10.7281 12.5548 10.6625 12.625 10.5784 12.6639C10.4943 12.7027 10.3983 12.7071 10.311 12.676C10.2158 12.6401 7.96333 11.7786 7.12437 10.9861C7.00167 10.8701 6.74608 10.6286 6.89181 10.3412C7.03755 10.0537 7.3454 10.1073 7.73344 10.1786C8.16532 10.2574 8.87318 10.3868 9.09953 10.09C9.09023 9.98634 9.05523 9.77992 9.03043 9.60983C8.8652 8.56311 8.79123 7.9598 9.19875 7.77021C9.54426 7.60808 9.84105 7.94739 9.9385 8.05858C9.98279 8.10907 10.0271 8.15987 10.0714 8.21095C10.3372 8.51837 10.6145 8.83642 10.8501 9.00828C11.0716 9.16908 11.1296 9.1208 11.1717 9.0858C11.3298 8.95291 11.4694 8.76776 11.2833 8.1166C11.2333 7.93942 11.1571 7.67364 11.4043 7.51728C11.6616 7.35427 11.8915 7.55537 12.0762 7.71705C12.4426 8.03643 12.5564 8.12768 12.6751 8.22557C12.7881 8.31726 12.905 8.41206 13.2231 8.68758C13.301 8.50419 13.3595 8.1042 13.387 7.91638C13.4516 7.4783 13.4941 7.1886 13.7856 7.11905C13.8655 7.10021 13.9492 7.10647 14.0254 7.13699C14.1016 7.16751 14.1665 7.22081 14.2113 7.2896C14.3026 7.41495 14.4585 7.46678 14.8961 7.59612C15.4317 7.7547 16.2409 7.99479 17.5384 8.64284C18.7747 9.26299 19.1299 9.90129 19.3652 10.3261L19.3727 10.3403C19.891 11.2705 20.221 12.3597 19.1366 13.9867C18.3711 15.1344 18.4177 15.6779 18.4185 15.6833C18.4185 15.6744 18.4163 15.67 18.4163 15.67L17.7187 15.7918Z" fill="#15002E"/>
<path d="M10.3801 15.2023C10.3163 15.2024 10.2536 15.1851 10.1989 15.1522C9.7936 14.9099 9.28774 15.0499 9.28242 15.0512C9.19265 15.0764 9.09656 15.0652 9.01499 15.0201C8.93342 14.9749 8.87293 14.8994 8.84665 14.8099C8.82036 14.7205 8.8304 14.6243 8.87457 14.5422C8.91875 14.46 8.99351 14.3987 9.08265 14.3713C9.11543 14.3615 9.88574 14.1396 10.5621 14.5436C10.6288 14.5834 10.6805 14.6439 10.7094 14.7159C10.7383 14.788 10.7428 14.8675 10.7221 14.9423C10.7014 15.0171 10.6568 15.0831 10.595 15.13C10.5332 15.177 10.4577 15.2024 10.3801 15.2023V15.2023Z" fill="#15002E"/>
<path d="M11.3018 18.1041C11.0382 18.1013 10.7766 18.0565 10.5271 17.9712C10.4472 17.9338 10.3841 17.868 10.3502 17.7866C10.3162 17.7052 10.3139 17.614 10.3435 17.531C10.3732 17.4479 10.4328 17.3789 10.5107 17.3374C10.5885 17.296 10.679 17.285 10.7645 17.3068C10.9436 17.3652 11.1308 17.3951 11.3191 17.3954C11.7036 17.3909 11.8112 17.2239 11.8622 17.0791C11.8946 16.9922 11.9598 16.9215 12.0437 16.8822C12.1276 16.8428 12.2236 16.8379 12.3112 16.8685C12.3987 16.8991 12.4707 16.9628 12.5118 17.0459C12.5529 17.1289 12.5598 17.2248 12.5311 17.313C12.4837 17.456 12.408 17.588 12.3084 17.7011C12.2089 17.8142 12.0875 17.9061 11.9517 17.9712C11.7476 18.063 11.5256 18.1084 11.3018 18.1041V18.1041Z" fill="#15002E"/>
<path d="M11.4875 15.1542C11.4649 15.1542 11.4423 15.152 11.4202 15.1476C11.3279 15.1299 11.2464 15.0763 11.1937 14.9985C11.1409 14.9208 11.1212 14.8253 11.1389 14.733C11.2146 14.3387 11.4529 13.4103 12.0323 13.3075C12.3504 13.2513 12.6419 13.4404 12.8992 13.8683C12.9476 13.949 12.962 14.0457 12.9391 14.137C12.9163 14.2283 12.8581 14.3067 12.7774 14.3551C12.6967 14.4035 12.6001 14.4179 12.5088 14.3951C12.4175 14.3722 12.339 14.314 12.2906 14.2333C12.2499 14.1609 12.2002 14.0939 12.1426 14.034C12.0456 14.154 11.9048 14.5009 11.8326 14.8668C11.8171 14.9472 11.7743 15.0197 11.7114 15.0721C11.6485 15.1246 11.5694 15.1536 11.4875 15.1542V15.1542Z" fill="#15002E"/>
<path d="M10.6019 16.0892C10.6019 16.3337 10.4478 16.6207 10.2033 16.6207C9.95875 16.6207 9.716 16.3337 9.716 16.0892C9.716 15.8447 9.95875 15.5576 10.2033 15.5576C10.4478 15.5576 10.6019 15.8455 10.6019 16.0892Z" fill="#15002E"/>
<path d="M12.5953 15.6898C12.5953 15.9343 12.4412 16.2213 12.1967 16.2213C11.9522 16.2213 11.7094 15.9343 11.7094 15.6898C11.7094 15.4452 11.9522 15.1582 12.1967 15.1582C12.4412 15.1582 12.5953 15.4461 12.5953 15.6898Z" fill="#15002E"/>
<path d="M13.6229 24.1426C9.25306 24.1426 6.93726 22.4799 5.76563 21.0852C4.23919 19.2705 3.60486 16.7373 3.88039 13.5557C4.13553 10.5972 4.98203 8.26831 6.39596 6.62909C7.90203 4.88436 9.99104 4 12.6041 4C14.3551 4 16.072 4.30022 17.5705 4.86901C19.2852 5.51933 20.627 6.4761 21.5572 7.71199C22.8582 9.44185 23.2719 11.6077 22.786 14.149L22.4378 14.0713L22.7846 14.149C22.2057 17.179 21.217 19.5621 19.846 21.232C18.2602 23.1633 16.1668 24.1426 13.6229 24.1426ZM12.6041 4.76734C10.1952 4.76734 8.28032 5.57016 6.91378 7.15327C5.60971 8.66349 4.82611 10.8418 4.58469 13.6277C4.32866 16.5848 4.90185 18.9204 6.28832 20.5687C7.36516 21.8487 9.51175 23.3752 13.6229 23.3752C15.9555 23.3752 17.8709 22.4827 19.3163 20.7222C20.6039 19.1539 21.5373 16.8903 22.0905 13.9936C22.5313 11.6916 22.1663 9.73872 21.0062 8.19637C20.1605 7.07222 18.9242 6.19602 17.3358 5.5927C15.9121 5.05509 14.2762 4.76734 12.6041 4.76734Z" fill="#15002E"/>
</svg>
