<svg width="48" height="48" viewBox="0 0 48 48" fill="none" xmlns="http://www.w3.org/2000/svg">
<path d="M40.2656 39.6956L28.5281 21.2494L40.11 8.50875C40.3719 8.21348 40.5069 7.82687 40.4857 7.43273C40.4645 7.03859 40.2888 6.66869 39.9967 6.40323C39.7046 6.13777 39.3197 5.99814 38.9253 6.01462C38.5309 6.03109 38.159 6.20235 37.89 6.49125L26.8575 18.6262L19.2656 6.69563C19.1303 6.48254 18.9433 6.30707 18.722 6.18547C18.5008 6.06387 18.2525 6.00008 18 6H9C8.73106 5.99987 8.46702 6.07205 8.23554 6.20899C8.00407 6.34592 7.81366 6.54258 7.68427 6.77835C7.55488 7.01413 7.49126 7.28036 7.50008 7.54916C7.50889 7.81797 7.58982 8.07946 7.73438 8.30625L19.4719 26.7506L7.89 39.5006C7.75475 39.6459 7.64968 39.8166 7.58089 40.0028C7.51209 40.189 7.48093 40.387 7.48921 40.5853C7.4975 40.7836 7.54507 40.9783 7.62916 41.1581C7.71325 41.3379 7.83219 41.4993 7.97909 41.6328C8.12598 41.7663 8.29792 41.8693 8.48492 41.9358C8.67192 42.0024 8.87028 42.0312 9.06849 42.0205C9.2667 42.0099 9.46082 41.96 9.6396 41.8737C9.81839 41.7875 9.97828 41.6666 10.11 41.5181L21.1425 29.3831L28.7344 41.3138C28.8709 41.5251 29.0583 41.6987 29.2795 41.8186C29.5006 41.9386 29.7484 42.0009 30 42H39C39.2687 41.9999 39.5324 41.9277 39.7636 41.7908C39.9948 41.654 40.185 41.4576 40.3143 41.2221C40.4436 40.9866 40.5073 40.7207 40.4988 40.4522C40.4902 40.1837 40.4097 39.9224 40.2656 39.6956ZM30.8231 39L11.7319 9H17.1694L36.2681 39H30.8231Z" fill="#15002E"/>
</svg>
