<svg width="30" height="37" viewBox="0 0 30 37" fill="none" xmlns="http://www.w3.org/2000/svg">
<path d="M4.30983 15.6261C4.36261 15.6769 4.64487 15.7114 4.87643 15.6955C4.94205 15.691 5.1229 15.5861 5.27844 15.4623C5.43392 15.3385 5.57207 15.2372 5.58552 15.2372C5.59891 15.2372 5.59863 15.3142 5.58484 15.4082C5.55507 15.6108 5.69817 15.7999 5.88111 15.7999C6.33753 15.7999 6.9729 15.4026 7.09158 15.043C7.18021 14.7744 7.08055 14.4411 6.83948 14.2001C6.68333 14.044 6.56521 13.9903 6.20873 13.9134C5.18323 13.6923 4.21766 13.2864 3.54065 12.7919C3.29508 12.6125 3.27926 12.5848 3.25496 12.2911C3.22462 11.9255 3.1423 11.8046 2.92368 11.8046C2.76854 11.8046 2.71767 11.8393 2.57474 12.0426C2.51217 12.1316 2.48026 12.1199 2.20126 11.906C1.63815 11.4744 1.29703 11.2981 1.02507 11.2981C0.560541 11.2981 0.225442 11.6347 0.228537 12.0982C0.231576 12.5532 0.591941 12.9723 1.50749 13.5859C1.90561 13.8527 1.97173 13.9196 1.97173 14.0556C1.97173 14.1637 2.02693 14.2607 2.14488 14.3599C2.35421 14.5361 2.55037 14.546 2.7081 14.3883C2.81097 14.2854 2.84563 14.2793 2.98907 14.3387C3.14027 14.4013 3.15001 14.4229 3.11776 14.6245C3.07686 14.8803 3.14826 14.9921 3.42681 15.1085C3.53075 15.152 3.60671 15.1938 3.59563 15.2016C3.73068 15.3285 4.12803 15.5375 4.30983 15.6261Z" fill="#28338B"/>
<path fill-rule="evenodd" clip-rule="evenodd" d="M2.89324 5.65315C3.00697 5.35536 3.18237 5.18092 3.47166 5.07777C3.48869 5.0717 3.50448 5.06602 3.5192 5.06073C3.62302 5.02341 3.67304 5.00544 3.72348 5.00417C3.77036 5.003 3.81761 5.01627 3.90878 5.04189L3.90891 5.04192C3.92274 5.04581 3.93758 5.04997 3.95357 5.05442C4.20584 5.12448 4.47673 5.34248 4.59445 5.57015C4.642 5.6621 4.75494 6.13912 4.84548 6.6302C5.02932 7.62723 5.08779 7.82412 5.43443 8.613C5.74156 9.31196 6.10046 9.89555 6.62278 10.5453C7.12748 11.1732 7.20424 11.3155 7.20469 11.6245C7.20559 12.2532 6.62137 12.6467 5.68568 12.6477C5.30123 12.648 4.89787 12.5639 4.89787 12.4833C4.89787 12.4571 5.02448 12.3391 5.17923 12.2211C5.33398 12.1031 5.46059 11.9879 5.46059 11.9652C5.46059 11.8732 5.35221 11.8674 5.18559 11.9505C4.8703 12.1078 4.45586 11.9162 4.29891 11.5406C4.20353 11.3124 4.2696 11.1479 4.47746 11.0957C4.48591 11.0936 4.49392 11.0916 4.5015 11.0898C4.5584 11.0758 4.59093 11.0678 4.60216 11.0478C4.61716 11.0211 4.59414 10.973 4.54038 10.8608C4.53504 10.8497 4.52939 10.8379 4.52344 10.8254C4.43228 10.6342 4.4248 10.6309 4.15942 10.6623C3.81779 10.7028 3.6609 10.608 3.49186 10.2587C3.37487 10.0171 3.37285 9.99279 3.4586 9.8619C3.50886 9.78526 3.60277 9.72252 3.66726 9.72252C3.76382 9.72252 3.77845 9.69798 3.74992 9.58431C3.65758 9.21629 3.61285 9.1598 3.41387 9.1598C3.26514 9.1598 3.18293 9.11602 3.0521 8.96701C2.95902 8.86099 2.86606 8.69792 2.84558 8.60456C2.81024 8.44362 2.88581 8.20418 2.97253 8.20233C2.99464 8.20182 3.04512 8.18095 3.08462 8.15585C3.14134 8.11983 3.12615 7.99846 3.01242 7.57991C2.81789 6.86424 2.76398 5.99174 2.89324 5.65315ZM21.1833 11.7033C21.2901 11.4979 21.4867 11.3217 21.7236 11.219C21.9911 11.103 22.2498 11.1086 22.4992 11.2359C22.7571 11.3675 22.8755 11.4953 22.9872 11.7626C23.2309 12.3461 22.877 12.9679 22.2135 13.1219C21.8711 13.2014 21.3685 12.9403 21.1866 12.5885C21.082 12.3862 21.0802 11.9014 21.1833 11.7033ZM12.4121 15.1308C12.0619 14.6367 12.2517 13.9045 12.7937 13.6583C13.4535 13.3589 14.1288 13.7155 14.2737 14.4399C14.3446 14.7947 14.0706 15.2611 13.6715 15.4647C13.2211 15.6945 12.7169 15.5608 12.4121 15.1308ZM18.6379 15.8582C19.6941 15.5798 20.7598 15.082 21.3692 14.5824C21.5718 14.4164 21.7584 14.2805 21.784 14.2805C21.9173 14.2805 22.1173 14.4264 22.175 14.5659C22.2799 14.8192 22.1536 15.0919 21.7449 15.4947C20.9155 16.3119 19.3823 16.976 17.7789 17.2124C17.161 17.3035 15.7936 17.3028 15.2238 17.2111C14.5449 17.1018 14.3516 16.9668 14.3516 16.6022C14.3516 16.2457 14.3804 16.2374 15.6784 16.2215C16.9029 16.2066 17.6768 16.1115 18.6379 15.8582Z" fill="#28338B"/>
<path d="M27.0545 20.7915L20.59 23.8546V31.2513L27.1576 27.9062L27.0545 20.7915Z" fill="#28338B"/>
<path fill-rule="evenodd" clip-rule="evenodd" d="M20.59 23.8546V31.2513L27.1576 27.9062L27.0545 20.7915L20.59 23.8546Z" fill="#28338B"/>
<path fill-rule="evenodd" clip-rule="evenodd" d="M19.0235 1.23625C19.089 1.12877 19.2376 1.00441 19.375 0.942062C19.6826 0.802394 19.831 0.804476 20.1369 0.952584C20.418 1.08859 20.6741 1.41013 20.8587 1.85856C20.9543 2.0908 21.0131 2.15962 21.1448 2.19372C21.4561 2.27441 21.5441 2.73967 21.2951 2.98867C21.154 3.1298 21.151 3.14607 21.2161 3.41747C21.2757 3.66579 21.2962 3.69297 21.3873 3.64424C21.5363 3.5645 21.5965 3.57475 21.7232 3.70141C21.7988 3.77704 21.8357 3.88897 21.8357 4.04276C21.8357 4.33093 21.7644 4.46503 21.5527 4.57448C21.405 4.65084 21.3856 4.69034 21.3856 4.91334V5.16584L21.5993 5.13162C21.8624 5.08959 21.9729 5.19679 21.9647 5.48647C21.9574 5.74167 21.7921 5.9627 21.5642 6.02173C21.399 6.06461 21.3856 6.08588 21.3856 6.3063C21.3856 6.49926 21.4096 6.5553 21.5122 6.60077C21.6406 6.65772 21.6574 6.73082 21.5902 6.94167C21.5597 7.03716 21.6166 7.11009 21.8978 7.33557C22.0876 7.48779 22.2564 7.61232 22.2731 7.61232C22.3315 7.61232 22.5151 6.98663 22.6532 6.31604C22.7447 5.87188 22.8094 5.30894 22.841 4.68223C22.9008 3.49709 22.9715 3.32602 23.4909 3.10898C23.7889 2.98445 24.0769 3.04326 24.3614 3.2868C24.7985 3.6609 24.8652 4.33853 24.6171 5.88195C24.5853 6.07992 24.5942 6.12111 24.669 6.12111C24.7187 6.12111 24.8015 6.18554 24.8532 6.26432C24.9313 6.38356 24.9364 6.44287 24.8839 6.61805C24.8036 6.88613 24.6257 7.07773 24.4571 7.07773C24.2894 7.07773 24.2023 7.18392 24.1609 7.43849C24.1308 7.62385 24.1394 7.64045 24.2649 7.64045C24.5352 7.64045 24.6156 7.8876 24.4497 8.20841C24.3465 8.40783 24.1276 8.50474 23.8835 8.45893C23.7267 8.42956 23.6995 8.44486 23.6358 8.59865C23.5675 8.76347 23.5736 8.78007 23.7691 8.95913C23.9872 9.1589 24.0074 9.21736 23.917 9.3864C23.8721 9.47031 23.8973 9.55381 24.0347 9.77721L24.2096 10.0614L24.4279 9.88846C24.6963 9.67587 25.2212 9.10341 25.4491 8.77478C25.6273 8.51768 25.6417 8.43546 25.5757 8.04899C25.5481 7.88676 25.5576 7.78316 25.6055 7.72542C25.6968 7.61541 25.9676 7.6162 26.0781 7.72672C26.1556 7.80415 26.181 7.78271 26.3286 7.5157C26.8218 6.62351 27.0026 6.44934 27.4361 6.44934C28.1226 6.44934 28.4026 7.17221 28.0251 7.97009C27.9321 8.16682 27.7159 8.53101 27.5449 8.77934C27.2491 9.2087 27.2385 9.23605 27.3291 9.33615C27.4802 9.50317 27.3508 9.85222 27.0685 10.039C26.8745 10.1675 26.8262 10.1775 26.6687 10.1226C26.4261 10.038 26.4213 10.0393 26.3441 10.2087C26.285 10.3384 26.2924 10.3743 26.4019 10.4909C26.5658 10.6653 26.4981 10.8816 26.2308 11.0376L26.0404 11.1489L25.794 11.0182C25.6585 10.9463 25.5312 10.9039 25.5111 10.924C25.491 10.9441 25.5025 11.0517 25.5367 11.1631C25.5741 11.2849 25.5797 11.416 25.5509 11.4919C25.4991 11.6282 25.205 11.7792 25.0828 11.7323C25.0253 11.7103 25.0339 11.8038 25.1198 12.1339C25.1814 12.3706 25.2395 12.5742 25.2487 12.5864C25.2786 12.6255 25.9621 12.3569 26.2812 12.1806C26.8837 11.8479 26.9013 11.8289 26.8881 11.5256C26.8811 11.3654 26.9071 11.217 26.9514 11.1636C27.0471 11.0483 27.3705 11.0461 27.4651 11.1601C27.5049 11.208 27.5524 11.227 27.5706 11.2023C27.7477 10.9627 28.3269 10.5093 28.5238 10.4563C28.9889 10.331 29.4325 10.6853 29.4325 11.1818C29.4325 11.581 29.1878 11.9139 28.3633 12.6365C27.7939 13.1356 27.687 13.1866 27.4581 13.0682C27.2259 12.9481 27.1725 13.0032 27.2144 13.3197C27.2491 13.5807 27.2444 13.5921 27.0545 13.7094C26.799 13.8673 26.6455 13.8622 26.4731 13.6897C26.2526 13.4692 26.0788 13.5096 26.1737 13.7592C26.2459 13.9492 26.1968 14.0808 26.0243 14.1594C25.8296 14.2481 25.6612 14.2408 25.5483 14.1386C25.4606 14.0592 25.4512 14.0831 25.4218 14.4621C25.4043 14.6872 25.3715 14.9186 25.3489 14.9762C25.3489 15.5327 25.1962 16.0383 25.1198 16.2215L25.9329 16.6324L27.7528 17.5526C29.2765 18.323 29.5933 18.5039 29.6995 18.664L29.8264 18.8552V24.1993V29.7632L19.3929 35.3484C17.0786 36.337 14.6038 36.6101 11.987 36.1656C9.3742 35.7219 6.77184 34.3384 4.97058 32.4354C3.19745 30.5622 2.05169 28.1192 1.68148 25.4224C1.63838 25.1086 1.6081 24.3418 1.6081 23.5654C1.6081 22.789 1.63838 22.0223 1.68148 21.7085C1.84433 20.522 2.22816 19.1152 2.65127 18.1536L2.66905 18.1132C2.83822 17.7289 2.88061 17.6326 2.85494 17.6084C2.84636 17.6002 2.83017 17.6002 2.80856 17.6001C2.80634 17.6001 2.80407 17.6001 2.80174 17.6001C2.67367 17.5991 1.49679 17.0028 1.30851 16.8433C1.05934 16.6324 0.958834 16.4201 0.958834 16.1048C0.958834 15.7737 1.11662 15.5071 1.38892 15.3778C1.66223 15.2481 1.9239 15.2961 2.48712 15.5793L2.93876 15.8064C3.08117 15.878 3.32346 15.9871 3.42681 16.0328C3.53892 16.0664 3.68416 16.126 3.85415 16.1956C4.25272 16.359 4.78737 16.5781 5.35024 16.6503C5.77324 16.7045 5.97852 16.7027 6.41316 16.6409C7.35538 16.5068 7.49668 16.5576 8.21792 17.2903C9.03645 18.1219 9.79156 18.5974 10.8513 18.9485C12.5165 19.5002 15.0825 19.6604 17.1089 19.3392C19.0819 19.0264 20.6149 18.5441 21.6918 17.8973C23.7266 16.6753 24.6582 14.8591 24.3452 12.7248C24.1768 11.5761 23.7813 10.6841 22.9711 9.62534C22.5635 9.09266 21.8232 8.37013 21.3293 8.02305C20.4913 7.4341 19.3278 6.98635 17.9629 6.7275C17.4107 6.62283 17.1127 6.60314 16.096 6.60404C14.7167 6.60527 14.0246 6.69019 12.925 6.99299C11.0207 7.51744 9.60671 8.29298 8.37368 9.48927L7.88226 9.966L7.66032 9.89955C7.41059 9.82471 7.14875 9.55145 7.14875 9.36564C7.14875 9.29789 7.09766 9.15423 7.03514 9.04635C6.72637 8.5134 6.7096 8.34335 6.95973 8.28055C7.05202 8.25742 7.08713 8.21673 7.06873 8.15444C7.05376 8.10385 7.02591 7.99677 7.00683 7.91647C6.9783 7.79638 6.92614 7.76133 6.71405 7.71952C6.41868 7.66122 6.26348 7.49555 6.21301 7.18471C6.1717 6.93008 6.29387 6.79637 6.56791 6.79637C6.72626 6.79637 6.75991 6.7782 6.73273 6.70735C6.71394 6.65839 6.69858 6.54641 6.69858 6.45852C6.69858 6.32555 6.66526 6.28767 6.50067 6.23332C6.26545 6.15572 6.13586 5.93935 6.13586 5.62434C6.13586 5.37342 6.20378 5.29521 6.44535 5.26791C6.59627 5.25092 6.61602 5.22616 6.63184 5.03461C6.64664 4.85505 6.61698 4.78437 6.44895 4.59833C6.2937 4.42648 6.2484 4.3284 6.2484 4.16397C6.2484 3.90112 6.38098 3.70141 6.55542 3.70141C6.6732 3.70141 6.697 3.65792 6.77826 3.29344C6.86643 2.89813 7.06457 2.41853 7.21701 2.23142C7.47952 1.90915 8.03177 1.80477 8.37317 2.01297C8.70383 2.21454 8.7893 2.42415 8.76331 2.96988C8.75076 3.23295 8.69685 3.71408 8.64345 4.03905C8.51177 4.8407 8.54559 6.04036 8.72206 6.83087L8.84912 7.4L9.44791 7.03232C10.833 6.18188 12.3737 5.61725 13.9858 5.36937C14.9385 5.2229 15.0565 5.21372 15.9697 5.21485C17.2536 5.21642 18.55 5.42187 19.3648 5.75298L19.7146 5.89512L19.6777 5.26251C19.628 4.40926 19.4811 3.71261 19.1315 2.6722C18.8152 1.73111 18.805 1.59448 19.0235 1.23625ZM19.4735 22.3071L16.0691 20.8644C14.7549 21.0129 13.8763 21.0899 12.7213 20.7915C12.4867 20.7309 12.2171 20.6612 11.8897 20.584L11.8193 24.3892C11.8193 24.3892 11.6529 24.6986 13.368 24.6142V21.8591L18.311 23.8546L18.3254 31.2513L13.3678 28.8404L13.368 28.8403L13.3562 28.8347L13.356 28.8421C12.7989 28.9247 12.3513 28.9235 11.8193 28.7559V29.923L13.3161 30.7198L18.3254 33.1571L19.3929 33.7303L20.59 33.1571L28.7009 28.996V19.3392L24.3848 17.0969L23.1875 18.3118L25.6055 19.3392L19.4735 22.3071ZM3.73029 19.4013C3.94626 18.7823 4.21985 18.1691 4.35581 17.9993C4.40808 17.934 4.42249 17.9441 4.43599 18.0556C4.47538 18.3819 4.67712 18.5572 5.01306 18.5572C5.16426 18.5572 5.40432 18.3932 5.40432 18.2899C5.40432 18.2667 5.56576 18.2477 5.76305 18.2477C6.09421 18.2477 6.12854 18.2595 6.20946 18.4004C6.38722 18.7102 6.81967 18.6677 7.00565 18.3223L7.11578 18.1177L7.59651 18.6072C8.27881 19.3018 8.94585 19.7215 10.0186 20.1311L10.5532 20.3352L10.5613 21.7655L10.5618 21.8591V21.8591C10.5669 22.7344 10.5689 23.0768 10.5066 23.0889C10.4666 23.0967 10.4 22.968 10.2906 22.7566L10.2724 22.7213C9.93934 22.0782 9.4083 21.8744 9.05238 22.2533C8.94692 22.3655 8.92132 22.4552 8.92132 22.7124C8.92132 22.9877 8.9561 23.0928 9.17269 23.4713C9.67339 24.3465 10.5709 25.1404 11.4936 25.5246C11.6043 25.5706 11.7117 25.6111 11.8193 25.6463C12.3677 25.8257 12.9199 25.8699 13.9178 25.8353L14.0702 25.83L14.9424 25.7998L15.2323 25.9469C15.7338 26.2013 15.8716 26.502 15.652 26.8623C15.5098 27.0954 15.1453 27.3 14.5417 27.4854C14.0831 27.6263 13.9659 27.6389 13.1136 27.6384C12.0055 27.6378 11.6041 27.5491 10.7146 27.1086C9.73276 26.6222 9.03718 26.0716 8.31955 25.2124C7.76037 24.5429 7.45982 24.4212 7.1819 24.7515C7.02523 24.9377 7.00357 25.1058 7.09428 25.4323C7.16608 25.6909 7.52515 26.2329 7.88631 26.6281C7.98142 26.7322 8.37672 27.0174 8.83499 27.348C9.60516 27.9036 10.5532 28.5533 10.5532 28.5533V30.6354C10.5532 30.6354 11.3985 31.0855 11.8193 31.2513L18.2074 34.3493L17.8366 34.4414C15.469 35.1622 12.9104 35.0978 10.4101 34.2544C7.5749 33.2981 5.20652 31.1227 4.02735 28.3917C3.2616 26.6182 2.9956 25.1869 3.05817 23.1769C3.10555 21.6549 3.27386 20.7096 3.73029 19.4013Z" fill="#28338B"/>
</svg>
