<svg width="96" height="96" viewBox="0 0 96 96" fill="none" xmlns="http://www.w3.org/2000/svg">
<path opacity="0.2" d="M51 12.0001V81.0001H15V32.0063C14.9997 31.5123 15.1214 31.0258 15.3543 30.5901C15.5872 30.1544 15.924 29.783 16.335 29.5088L46.335 9.51007C46.7864 9.20891 47.311 9.03582 47.853 9.00922C48.3949 8.98262 48.934 9.10352 49.4127 9.35903C49.8914 9.61454 50.2918 9.9951 50.5713 10.4602C50.8508 10.9253 50.999 11.4574 51 12.0001Z" fill="#58A1C6"/>
<path d="M90 78H84V36C84 34.4087 83.3679 32.8826 82.2426 31.7574C81.1174 30.6321 79.5913 30 78 30H54V12C54.0007 10.9135 53.7064 9.84717 53.1484 8.91487C52.5904 7.98257 51.7898 7.21927 50.8319 6.70646C49.874 6.19364 48.7949 5.95055 47.7096 6.00312C46.6244 6.0557 45.5738 6.40198 44.67 7.00499L14.67 27C13.847 27.5491 13.1726 28.2931 12.7067 29.1659C12.2409 30.0387 11.9981 31.0132 12 32.0025V78H6C5.20435 78 4.44129 78.3161 3.87868 78.8787C3.31607 79.4413 3 80.2043 3 81C3 81.7956 3.31607 82.5587 3.87868 83.1213C4.44129 83.6839 5.20435 84 6 84H90C90.7956 84 91.5587 83.6839 92.1213 83.1213C92.6839 82.5587 93 81.7956 93 81C93 80.2043 92.6839 79.4413 92.1213 78.8787C91.5587 78.3161 90.7956 78 90 78ZM78 36V78H54V36H78ZM18 32.0025L48 12V78H18V32.0025ZM42 42V48C42 48.7956 41.6839 49.5587 41.1213 50.1213C40.5587 50.6839 39.7956 51 39 51C38.2044 51 37.4413 50.6839 36.8787 50.1213C36.3161 49.5587 36 48.7956 36 48V42C36 41.2043 36.3161 40.4413 36.8787 39.8787C37.4413 39.3161 38.2044 39 39 39C39.7956 39 40.5587 39.3161 41.1213 39.8787C41.6839 40.4413 42 41.2043 42 42ZM30 42V48C30 48.7956 29.6839 49.5587 29.1213 50.1213C28.5587 50.6839 27.7956 51 27 51C26.2044 51 25.4413 50.6839 24.8787 50.1213C24.3161 49.5587 24 48.7956 24 48V42C24 41.2043 24.3161 40.4413 24.8787 39.8787C25.4413 39.3161 26.2044 39 27 39C27.7956 39 28.5587 39.3161 29.1213 39.8787C29.6839 40.4413 30 41.2043 30 42ZM30 63V69C30 69.7956 29.6839 70.5587 29.1213 71.1213C28.5587 71.6839 27.7956 72 27 72C26.2044 72 25.4413 71.6839 24.8787 71.1213C24.3161 70.5587 24 69.7956 24 69V63C24 62.2043 24.3161 61.4413 24.8787 60.8787C25.4413 60.3161 26.2044 60 27 60C27.7956 60 28.5587 60.3161 29.1213 60.8787C29.6839 61.4413 30 62.2043 30 63ZM42 63V69C42 69.7956 41.6839 70.5587 41.1213 71.1213C40.5587 71.6839 39.7956 72 39 72C38.2044 72 37.4413 71.6839 36.8787 71.1213C36.3161 70.5587 36 69.7956 36 69V63C36 62.2043 36.3161 61.4413 36.8787 60.8787C37.4413 60.3161 38.2044 60 39 60C39.7956 60 40.5587 60.3161 41.1213 60.8787C41.6839 61.4413 42 62.2043 42 63Z" fill="#58A1C6"/>
</svg>
