<svg width="96" height="96" viewBox="0 0 96 96" fill="none" xmlns="http://www.w3.org/2000/svg">
<g clip-path="url(#clip0_869_426)">
<path fill-rule="evenodd" clip-rule="evenodd" d="M48 96C21.489 96 0 74.511 0 48C0 21.489 21.489 0 48 0C74.511 0 96 21.489 96 48C96 74.511 74.511 96 48 96ZM69.567 42.06C70.509 35.772 65.718 32.391 59.172 30.135L61.296 21.615L56.112 20.325L54.042 28.62C52.68 28.278 51.282 27.96 49.887 27.642L51.972 19.293L46.788 18L44.664 26.517C43.536 26.259 42.426 26.007 41.352 25.737L41.358 25.71L34.206 23.925L32.826 29.463C32.826 29.463 36.675 30.345 36.594 30.399C38.694 30.924 39.072 32.313 39.009 33.417L36.591 43.122C36.735 43.158 36.921 43.212 37.131 43.293L36.582 43.158L33.192 56.754C32.934 57.39 32.283 58.347 30.813 57.984C30.867 58.059 27.045 57.045 27.045 57.045L24.471 62.979L31.221 64.662C32.475 64.977 33.705 65.307 34.914 65.616L32.769 74.232L37.95 75.522L40.074 67.002C41.49 67.383 42.864 67.737 44.208 68.073L42.09 76.557L47.274 77.847L49.419 69.249C58.263 70.923 64.911 70.248 67.71 62.25C69.966 55.812 67.599 52.095 62.946 49.674C66.336 48.894 68.886 46.665 69.567 42.06ZM57.717 58.674C56.118 65.115 45.273 61.632 41.757 60.759L44.607 49.344C48.123 50.223 59.394 51.96 57.717 58.674ZM59.322 41.967C57.861 47.826 48.837 44.847 45.912 44.118L48.492 33.768C51.417 34.497 60.846 35.856 59.322 41.967Z" fill="#58A1C6"/>
</g>
<defs>
<clipPath id="clip0_869_426">
<rect width="96" height="96" fill="white"/>
</clipPath>
</defs>
</svg>
