<svg width="512" height="512" viewBox="0 0 512 512" fill="none" xmlns="http://www.w3.org/2000/svg">
<rect width="512" height="512" rx="256" fill="#FDFFF9"/>
<path d="M141.972 209.346C142.536 209.887 145.546 210.256 148.016 210.086C148.716 210.038 150.645 208.918 152.304 207.598C153.963 206.277 155.436 205.197 155.58 205.197C155.723 205.197 155.72 206.018 155.573 207.021C155.255 209.182 156.781 211.199 158.733 211.199C163.601 211.199 170.379 206.961 171.645 203.125C172.59 200.261 171.527 196.706 168.955 194.135C167.29 192.469 166.03 191.897 162.227 191.077C151.289 188.718 140.989 184.388 133.768 179.114C131.148 177.2 130.98 176.905 130.721 173.772C130.397 169.872 129.519 168.582 127.187 168.582C125.532 168.582 124.989 168.953 123.465 171.121C122.797 172.07 122.457 171.946 119.481 169.665C113.475 165.061 109.836 163.18 106.935 163.18C101.98 163.18 98.4057 166.77 98.4387 171.715C98.4711 176.567 102.315 181.039 112.081 187.584C116.327 190.429 117.033 191.143 117.033 192.594C117.033 193.746 117.622 194.782 118.88 195.84C121.113 197.719 123.205 197.824 124.887 196.142C125.985 195.044 126.354 194.979 127.884 195.613C129.497 196.281 129.601 196.511 129.257 198.662C128.821 201.39 129.582 202.582 132.554 203.824C133.662 204.288 134.473 204.735 134.354 204.817C135.795 206.171 140.033 208.4 141.972 209.346Z" fill="#15002E"/>
<path fill-rule="evenodd" clip-rule="evenodd" d="M126.862 102.967C128.075 99.7908 129.946 97.9301 133.032 96.8299C133.214 96.7651 133.382 96.7046 133.539 96.6481C134.647 96.2501 135.18 96.0583 135.718 96.0449C136.218 96.0323 136.722 96.1739 137.695 96.4471L137.696 96.4475C137.844 96.4889 138.002 96.5334 138.172 96.5808C140.863 97.3281 143.753 99.6534 145.008 102.082C145.516 103.063 146.72 108.151 147.686 113.389C149.647 124.024 150.271 126.124 153.968 134.539C157.244 141.995 161.073 148.22 166.644 155.15C172.027 161.848 172.846 163.366 172.851 166.662C172.861 173.368 166.629 177.566 156.648 177.576C152.547 177.579 148.245 176.681 148.245 175.822C148.245 175.543 149.595 174.284 151.246 173.025C152.897 171.767 154.247 170.538 154.247 170.296C154.247 169.314 153.091 169.252 151.314 170.14C147.951 171.817 143.53 169.773 141.856 165.767C140.839 163.333 141.543 161.578 143.761 161.021C143.851 160.999 143.936 160.978 144.017 160.958C144.624 160.808 144.971 160.723 145.091 160.51C145.251 160.225 145.005 159.713 144.432 158.516C144.375 158.397 144.314 158.271 144.251 158.138C143.279 156.099 143.199 156.063 140.368 156.398C136.724 156.83 135.051 155.819 133.248 152.093C132 149.516 131.978 149.257 132.893 147.861C133.429 147.043 134.431 146.374 135.118 146.374C136.148 146.374 136.304 146.112 136 144.9C135.015 140.974 134.538 140.371 132.416 140.371C130.829 140.371 129.952 139.905 128.557 138.315C127.564 137.184 126.572 135.445 126.354 134.449C125.977 132.732 126.783 130.178 127.708 130.158C127.944 130.153 128.482 129.93 128.904 129.663C129.509 129.279 129.347 127.984 128.133 123.519C126.058 115.886 125.483 106.579 126.862 102.967ZM321.956 167.502C323.096 165.311 325.193 163.432 327.719 162.336C330.573 161.099 333.332 161.159 335.992 162.517C338.743 163.92 340.006 165.284 341.197 168.135C343.798 174.359 340.023 180.992 332.945 182.634C329.292 183.482 323.932 180.696 321.991 176.944C320.875 174.787 320.856 169.616 321.956 167.502ZM228.397 204.062C224.661 198.792 226.686 190.981 232.467 188.356C239.505 185.162 246.709 188.965 248.254 196.692C249.011 200.477 246.087 205.452 241.83 207.624C237.026 210.075 231.648 208.649 228.397 204.062ZM294.805 211.821C306.071 208.851 317.438 203.541 323.939 198.213C326.1 196.442 328.091 194.993 328.363 194.993C329.786 194.993 331.918 196.549 332.534 198.037C333.654 200.738 332.306 203.648 327.946 207.944C319.1 216.661 302.745 223.744 285.642 226.266C279.052 227.238 264.466 227.23 258.388 226.252C251.147 225.086 249.084 223.646 249.084 219.757C249.084 215.954 249.392 215.866 263.237 215.697C276.299 215.537 284.554 214.523 294.805 211.821Z" fill="#15002E"/>
<path d="M384.582 264.443L315.628 297.116V376.015L385.682 340.333L384.582 264.443Z" fill="#15002E"/>
<path fill-rule="evenodd" clip-rule="evenodd" d="M315.628 297.116V376.015L385.682 340.333L384.582 264.443L315.628 297.116Z" fill="#15002E"/>
<path fill-rule="evenodd" clip-rule="evenodd" d="M298.918 55.8537C299.617 54.7072 301.202 53.3807 302.668 52.7156C305.949 51.2259 307.532 51.2481 310.795 52.8279C313.793 54.2787 316.525 57.7084 318.494 62.4917C319.514 64.9688 320.141 65.7029 321.545 66.0667C324.866 66.9274 325.805 71.8901 323.149 74.5462C321.644 76.0516 321.612 76.225 322.306 79.12C322.942 81.7688 323.16 82.0587 324.132 81.5389C325.721 80.6884 326.364 80.7976 327.715 82.1487C328.522 82.9555 328.916 84.1493 328.916 85.7898C328.916 88.8636 328.154 90.2939 325.896 91.4614C324.321 92.2759 324.114 92.6973 324.114 95.076V97.7692L326.393 97.4043C329.2 96.9559 330.378 98.0994 330.291 101.189C330.213 103.911 328.45 106.269 326.019 106.899C324.256 107.356 324.114 107.583 324.114 109.934C324.114 111.992 324.371 112.59 325.464 113.075C326.835 113.683 327.013 114.462 326.296 116.711C325.971 117.73 326.578 118.508 329.578 120.913C331.602 122.537 333.403 123.865 333.581 123.865C334.204 123.865 336.162 117.191 337.635 110.038C338.611 105.3 339.301 99.2956 339.639 92.6108C340.276 79.9693 341.03 78.1446 346.571 75.8295C349.75 74.5012 352.821 75.1284 355.856 77.7262C360.518 81.7166 361.23 88.9446 358.584 105.408C358.244 107.519 358.34 107.959 359.137 107.959C359.667 107.959 360.55 108.646 361.101 109.486C361.934 110.758 361.989 111.391 361.43 113.259C360.573 116.119 358.675 118.163 356.876 118.163C355.088 118.163 354.158 119.295 353.718 122.011C353.397 123.988 353.488 124.165 354.827 124.165C357.709 124.165 358.567 126.801 356.798 130.223C355.697 132.351 353.362 133.384 350.758 132.896C349.086 132.582 348.795 132.746 348.116 134.386C347.388 136.144 347.453 136.321 349.538 138.231C351.865 140.362 352.08 140.986 351.115 142.789C350.637 143.684 350.905 144.574 352.371 146.957L354.236 149.988L356.565 148.144C359.428 145.876 365.027 139.77 367.458 136.265C369.359 133.522 369.512 132.645 368.809 128.523C368.514 126.792 368.615 125.687 369.126 125.072C370.1 123.898 372.988 123.906 374.167 125.085C374.994 125.911 375.265 125.683 376.839 122.834C382.1 113.318 384.029 111.46 388.653 111.46C395.975 111.46 398.962 119.171 394.936 127.681C393.943 129.78 391.638 133.664 389.813 136.313C386.658 140.893 386.545 141.185 387.512 142.253C389.123 144.034 387.743 147.757 384.731 149.75C382.662 151.12 382.147 151.227 380.467 150.641C377.88 149.739 377.829 149.753 377.005 151.56C376.375 152.943 376.453 153.326 377.622 154.57C379.369 156.43 378.647 158.737 375.796 160.402L373.765 161.589L371.137 160.194C369.692 159.428 368.334 158.976 368.119 159.19C367.905 159.404 368.028 160.552 368.393 161.74C368.792 163.039 368.852 164.438 368.544 165.248C367.991 166.701 364.854 168.312 363.551 167.812C362.937 167.577 363.029 168.574 363.946 172.095C364.603 174.62 365.222 176.792 365.321 176.922C365.64 177.339 372.93 174.474 376.334 172.594C382.76 169.044 382.948 168.842 382.807 165.607C382.733 163.898 383.01 162.315 383.483 161.745C384.503 160.515 387.953 160.492 388.962 161.708C389.387 162.219 389.893 162.422 390.087 162.158C391.976 159.602 398.155 154.766 400.255 154.201C405.216 152.865 409.947 156.643 409.947 161.94C409.947 166.197 407.337 169.748 398.543 177.456C392.469 182.78 391.329 183.324 388.887 182.061C386.411 180.78 385.841 181.368 386.288 184.744C386.658 187.528 386.608 187.649 384.582 188.901C381.857 190.585 380.22 190.53 378.38 188.69C376.029 186.339 374.175 186.769 375.187 189.432C375.958 191.459 375.434 192.863 373.593 193.701C371.517 194.647 369.72 194.568 368.516 193.478C367.58 192.632 367.481 192.887 367.167 196.93C366.981 199.331 366.63 201.798 366.389 202.413C366.389 208.349 364.76 213.742 363.946 215.697L372.619 220.079L392.031 229.895C408.284 238.112 411.663 240.042 412.796 241.75L414.149 243.789V300.793V360.141L302.858 419.716C278.172 430.261 251.775 433.174 223.863 428.434C195.992 423.7 168.234 408.943 149.02 388.645C130.107 368.664 117.886 342.605 113.937 313.839C113.477 310.492 113.154 302.313 113.154 294.032C113.154 285.75 113.477 277.571 113.937 274.224C115.674 261.568 119.768 246.562 124.281 236.306L124.471 235.875C126.275 231.775 126.728 230.748 126.454 230.489C126.362 230.403 126.189 230.402 125.959 230.402C125.935 230.402 125.911 230.401 125.886 230.401C124.52 230.391 111.967 224.03 109.958 222.329C107.301 220.08 106.229 217.815 106.229 214.451C106.229 210.919 107.912 208.076 110.816 206.697C113.731 205.313 116.523 205.826 122.53 208.846L127.348 211.268C128.867 212.032 131.451 213.197 132.554 213.683C133.749 214.042 135.299 214.677 137.112 215.42C141.363 217.163 147.066 219.5 153.07 220.27C157.582 220.849 159.772 220.829 164.408 220.17C174.458 218.739 175.966 219.281 183.659 227.097C192.39 235.967 200.444 241.039 211.748 244.784C229.51 250.669 256.881 252.378 278.496 248.951C299.541 245.615 315.893 240.47 327.381 233.572C349.085 220.537 359.022 201.164 355.684 178.398C353.886 166.146 349.669 156.631 341.026 145.337C336.678 139.655 328.782 131.948 323.513 128.246C314.575 121.964 302.164 117.188 287.605 114.427C281.715 113.311 278.536 113.1 267.692 113.11C252.979 113.123 245.596 114.029 233.868 117.259C213.555 122.853 198.473 131.125 185.32 143.886L180.078 148.971L177.711 148.262C175.047 147.464 172.254 144.549 172.254 142.567C172.254 141.844 171.709 140.312 171.042 139.161C167.749 133.477 167.57 131.663 170.238 130.993C171.223 130.746 171.597 130.312 171.401 129.648C171.241 129.108 170.944 127.966 170.741 127.109C170.436 125.828 169.88 125.454 167.618 125.008C164.467 124.387 162.811 122.62 162.273 119.304C161.832 116.588 163.136 115.162 166.059 115.162C167.748 115.162 168.107 114.968 167.817 114.212C167.616 113.69 167.452 112.495 167.452 111.558C167.452 110.139 167.097 109.736 165.341 109.156C162.832 108.328 161.45 106.02 161.45 102.66C161.45 99.9835 162.175 99.1492 164.751 98.8581C166.361 98.6768 166.572 98.4127 166.741 96.3695C166.898 94.4541 166.582 93.7003 164.79 91.7159C163.134 89.8828 162.651 88.8366 162.651 87.0827C162.651 84.279 164.065 82.1487 165.925 82.1487C167.182 82.1487 167.436 81.6848 168.302 77.797C169.243 73.5804 171.356 68.4646 172.982 66.4688C175.783 63.0313 181.673 61.9178 185.315 64.1387C188.842 66.2887 189.754 68.5246 189.476 74.3457C189.342 77.1518 188.767 82.2838 188.198 85.7501C186.793 94.3011 187.154 107.097 189.036 115.53L190.392 121.6L196.779 117.678C211.553 108.607 227.987 102.584 245.183 99.9403C255.345 98.3779 256.603 98.28 266.345 98.292C280.04 98.3088 293.867 100.5 302.559 104.032L306.29 105.548L305.897 98.8004C305.367 89.6991 303.799 82.2682 300.07 71.1705C296.697 61.1321 296.587 59.6748 298.918 55.8537ZM303.719 280.61L267.404 265.22C253.387 266.804 244.015 267.625 231.695 264.443C229.192 263.796 226.316 263.053 222.824 262.229L222.074 302.818C222.074 302.818 220.299 306.118 238.593 305.218V275.831L291.319 297.116L291.472 376.015L238.591 350.297L238.593 350.297L238.467 350.237L238.465 350.316C232.522 351.197 227.748 351.185 222.074 349.397V361.846L238.04 370.345L291.472 396.343L302.858 402.457L315.628 396.343L402.144 351.957V248.951L356.106 225.034L343.334 237.993L369.126 248.951L303.719 280.61ZM135.791 249.614C138.094 243.012 141.013 236.47 142.463 234.659C143.021 233.963 143.174 234.071 143.318 235.26C143.738 238.74 145.89 240.611 149.474 240.611C151.086 240.611 153.647 238.862 153.647 237.76C153.647 237.512 155.369 237.309 157.474 237.309C161.006 237.309 161.372 237.435 162.235 238.938C164.131 242.242 168.744 241.789 170.728 238.105L171.903 235.923L177.03 241.144C184.308 248.553 191.423 253.029 202.866 257.399L208.569 259.576L208.655 274.832L208.661 275.831V275.831C208.715 285.167 208.736 288.82 208.071 288.949C207.644 289.032 206.934 287.659 205.768 285.404L205.573 285.028C202.021 278.167 196.356 275.994 192.56 280.035C191.435 281.233 191.162 282.189 191.162 284.933C191.162 287.87 191.533 288.99 193.843 293.027C199.184 302.363 208.757 310.831 218.6 314.929C219.78 315.421 220.926 315.852 222.074 316.227C227.923 318.142 233.813 318.612 244.457 318.243L246.083 318.187L255.387 317.864L258.479 319.433C263.828 322.148 265.298 325.355 262.955 329.199C261.439 331.685 257.551 333.867 251.112 335.845C246.221 337.348 244.97 337.482 235.879 337.476C224.059 337.47 219.778 336.525 210.291 331.825C199.817 326.637 192.398 320.764 184.743 311.599C178.778 304.458 175.572 303.159 172.608 306.683C170.937 308.669 170.706 310.462 171.673 313.945C172.439 316.703 176.269 322.485 180.122 326.7C181.136 327.811 185.353 330.853 190.241 334.379C198.456 340.306 208.569 347.236 208.569 347.236V369.444C208.569 369.444 217.585 374.246 222.074 376.015L290.213 409.06L286.258 410.042C261.003 417.731 233.712 417.044 207.042 408.047C176.8 397.846 151.537 374.642 138.959 345.512C130.791 326.594 127.954 311.327 128.621 289.887C129.127 273.653 130.922 263.569 135.791 249.614Z" fill="#15002E"/>
</svg>
