<svg width="60" height="60" viewBox="0 0 60 60" fill="none" xmlns="http://www.w3.org/2000/svg">
<g clip-path="url(#clip0_510_2402)">
<path fill-rule="evenodd" clip-rule="evenodd" d="M30 60C13.4306 60 0 46.5694 0 30C0 13.4306 13.4306 0 30 0C46.5694 0 60 13.4306 60 30C60 46.5694 46.5694 60 30 60ZM43.4794 26.2875C44.0681 22.3575 41.0738 20.2444 36.9825 18.8344L38.31 13.5094L35.07 12.7031L33.7762 17.8875C32.925 17.6737 32.0513 17.475 31.1794 17.2762L32.4825 12.0581L29.2425 11.25L27.915 16.5731C27.21 16.4119 26.5163 16.2544 25.845 16.0856L25.8488 16.0687L21.3787 14.9531L20.5163 18.4144C20.5163 18.4144 22.9219 18.9656 22.8713 18.9994C24.1838 19.3275 24.42 20.1956 24.3806 20.8856L22.8694 26.9513C22.9594 26.9737 23.0756 27.0075 23.2069 27.0581L22.8638 26.9737L20.745 35.4712C20.5837 35.8687 20.1769 36.4669 19.2581 36.24C19.2919 36.2869 16.9031 35.6531 16.9031 35.6531L15.2944 39.3619L19.5131 40.4137C20.2969 40.6106 21.0656 40.8169 21.8212 41.01L20.4806 46.395L23.7188 47.2012L25.0462 41.8763C25.9312 42.1144 26.79 42.3356 27.63 42.5456L26.3062 47.8481L29.5463 48.6544L30.8869 43.2806C36.4144 44.3269 40.5694 43.905 42.3187 38.9062C43.7287 34.8825 42.2494 32.5594 39.3413 31.0463C41.46 30.5588 43.0537 29.1656 43.4794 26.2875ZM36.0731 36.6712C35.0737 40.6969 28.2956 38.52 26.0981 37.9744L27.8794 30.84C30.0769 31.3894 37.1213 32.475 36.0731 36.6712ZM37.0763 26.2294C36.1631 29.8913 30.5231 28.0294 28.695 27.5738L30.3075 21.105C32.1356 21.5606 38.0288 22.41 37.0763 26.2294Z" fill="#58A1C6"/>
</g>
<defs>
<clipPath id="clip0_510_2402">
<rect width="60" height="60" fill="white"/>
</clipPath>
</defs>
</svg>
