<svg width="43" height="41" viewBox="0 0 43 41" fill="none" xmlns="http://www.w3.org/2000/svg">
<path fill-rule="evenodd" clip-rule="evenodd" d="M21 0.000125433C16.0144 0.000796384 11.1917 1.7752 7.39454 5.00592C3.59738 8.23664 1.07349 12.7129 0.274355 17.634C-0.524785 22.5551 0.452958 27.6001 3.03268 31.8663C5.61241 36.1326 9.62582 39.3419 14.355 40.9201C15.405 41.1151 15.855 40.4701 15.855 39.9151V36.3451C10.02 37.6051 8.79 33.5251 8.79 33.5251C8.37967 32.2394 7.51608 31.1465 6.36 30.4501C4.455 29.1601 6.51 29.1751 6.51 29.1751C7.17541 29.2691 7.81053 29.514 8.36686 29.8909C8.9232 30.2679 9.38602 30.767 9.72 31.3501C10.301 32.3922 11.2721 33.1609 12.4197 33.4872C13.5674 33.8135 14.7976 33.6707 15.84 33.0901C15.9247 32.0258 16.3939 31.0288 17.16 30.2851C12.51 29.7451 7.605 27.9451 7.605 19.9051C7.57099 17.817 8.34484 15.7964 9.765 14.2651C9.12219 12.4564 9.19735 10.4701 9.975 8.71513C9.975 8.71513 11.73 8.14512 15.75 10.8601C19.1872 9.92255 22.8128 9.92255 26.25 10.8601C30.255 8.14512 32.01 8.71513 32.01 8.71513C32.7876 10.4701 32.8628 12.4564 32.22 14.2651C33.6402 15.7964 34.414 17.817 34.38 19.9051C34.38 27.9751 29.475 29.7451 24.795 30.2701C25.2963 30.7783 25.6829 31.388 25.9287 32.0581C26.1745 32.7283 26.2739 33.4433 26.22 34.1551V39.9151C26.22 40.6051 26.595 41.1301 27.72 40.9201C32.4554 39.3399 36.473 36.1244 39.0523 31.8503C41.6316 27.5762 42.604 22.523 41.795 17.5969C40.986 12.6708 38.4486 8.19399 34.6378 4.96928C30.827 1.74457 25.9921 -0.0171208 21 0.000125433Z" fill="#15002E"/>
</svg>
