<svg width="1188" height="500" viewBox="0 0 1188 500" fill="none" xmlns="http://www.w3.org/2000/svg">
<path d="M57.4314 208.072C58.1742 208.786 62.1461 209.273 65.4045 209.048C66.3278 208.985 68.8728 207.508 71.0615 205.766C73.2494 204.024 75.1934 202.599 75.3826 202.599C75.5711 202.599 75.5671 203.682 75.3731 205.005C74.9542 207.856 76.9679 210.517 79.5422 210.517C85.9649 210.517 94.9056 204.926 96.5757 199.866C97.8228 196.088 96.4204 191.398 93.0282 188.006C90.8308 185.809 89.1687 185.054 84.1524 183.972C69.7217 180.86 56.1344 175.149 46.6077 168.19C43.1521 165.666 42.9295 165.276 42.5874 161.143C42.1606 155.998 41.0022 154.297 37.9258 154.297C35.7427 154.297 35.0269 154.786 33.0156 157.646C32.1351 158.899 31.6861 158.735 27.7601 155.725C19.8361 149.652 15.0359 147.171 11.2089 147.171C4.6722 147.171 -0.0432524 151.907 0.000299201 158.429C0.043059 164.831 5.11405 170.729 17.9974 179.363C23.5997 183.118 24.5302 184.059 24.5302 185.973C24.5302 187.493 25.307 188.859 26.9667 190.255C29.9123 192.734 32.6727 192.873 34.8923 190.653C36.3398 189.206 36.8276 189.12 38.846 189.956C40.9737 190.837 41.1107 191.14 40.6569 193.978C40.0813 197.577 41.0861 199.15 45.0058 200.788C46.4683 201.4 47.5373 201.989 47.3813 202.099C49.2817 203.884 54.8732 206.825 57.4314 208.072Z" fill="#28338B"/>
<path fill-rule="evenodd" clip-rule="evenodd" d="M37.4975 67.7374C39.0978 63.547 41.566 61.0923 45.6369 59.6409C45.8765 59.5555 46.0988 59.4756 46.3058 59.4012C47.7668 58.876 48.4706 58.623 49.1804 58.6053C49.8402 58.5888 50.505 58.7756 51.788 59.136L51.7898 59.1365C51.9844 59.1911 52.1931 59.2498 52.4182 59.3123C55.9681 60.2981 59.7801 63.3657 61.4366 66.5694C62.1057 67.8633 63.695 74.5756 64.969 81.486C67.556 95.5156 68.3787 98.2862 73.2565 109.387C77.5784 119.222 82.6288 127.434 89.9788 136.578C97.0809 145.413 98.1609 147.415 98.1672 151.763C98.1799 160.611 89.959 166.148 76.7921 166.161C71.3822 166.166 65.7062 164.981 65.7062 163.848C65.7062 163.479 67.4879 161.819 69.6655 160.158C71.8431 158.498 73.6247 156.877 73.6247 156.557C73.6247 155.262 72.0996 155.181 69.755 156.351C65.3182 158.564 59.4863 155.868 57.2778 150.583C55.9356 147.372 56.8653 145.057 59.7903 144.323C59.9092 144.293 60.0219 144.265 60.1286 144.239C60.9292 144.042 61.3871 143.929 61.545 143.648C61.7561 143.272 61.4322 142.596 60.6757 141.017C60.6005 140.86 60.521 140.694 60.4373 140.519C59.1545 137.829 59.0492 137.781 55.3148 138.224C50.5075 138.793 48.2999 137.459 45.9211 132.545C44.2749 129.145 44.2464 128.803 45.4532 126.961C46.1603 125.882 47.4819 124.999 48.3893 124.999C49.7481 124.999 49.954 124.654 49.5526 123.055C48.2531 117.876 47.6236 117.081 44.8236 117.081C42.7308 117.081 41.5739 116.465 39.7328 114.368C38.4231 112.877 37.115 110.582 36.8268 109.268C36.3295 107.004 37.3929 103.634 38.6132 103.608C38.9244 103.601 39.6347 103.307 40.1905 102.954C40.9887 102.447 40.7749 100.739 39.1746 94.8497C36.4372 84.7792 35.6786 72.5018 37.4975 67.7374ZM294.871 152.872C296.375 149.982 299.141 147.503 302.474 146.057C306.239 144.425 309.879 144.504 313.388 146.295C317.017 148.147 318.683 149.945 320.255 153.707C323.685 161.918 318.706 170.668 309.368 172.834C304.55 173.952 297.478 170.278 294.918 165.328C293.446 162.482 293.42 155.66 294.871 152.872ZM171.445 201.102C166.517 194.15 169.188 183.846 176.815 180.383C186.099 176.168 195.603 181.186 197.641 191.38C198.639 196.373 194.783 202.936 189.166 205.801C182.829 209.034 175.734 207.153 171.445 201.102ZM259.053 211.338C273.915 207.42 288.911 200.415 297.487 193.386C300.338 191.049 302.964 189.138 303.324 189.138C305.201 189.138 308.014 191.19 308.826 193.153C310.303 196.717 308.526 200.555 302.774 206.223C291.103 217.722 269.528 227.067 246.965 230.393C238.27 231.676 219.029 231.666 211.01 230.375C201.457 228.837 198.737 226.938 198.737 221.806C198.737 216.79 199.143 216.674 217.408 216.451C234.639 216.24 245.529 214.902 259.053 211.338Z" fill="#28338B"/>
<path d="M377.489 280.757L286.523 323.859V427.942L378.941 380.871L377.489 280.757Z" fill="#28338B"/>
<path fill-rule="evenodd" clip-rule="evenodd" d="M286.523 323.859V427.942L378.941 380.871L377.489 280.757L286.523 323.859Z" fill="#28338B"/>
<path fill-rule="evenodd" clip-rule="evenodd" d="M264.479 5.58492C265.401 4.07252 267.492 2.32258 269.426 1.44523C273.754 -0.520098 275.843 -0.490802 280.147 1.5933C284.102 3.50716 287.706 8.03169 290.304 14.3418C291.65 17.6097 292.476 18.5781 294.329 19.0579C298.711 20.1934 299.949 26.7403 296.445 30.2441C294.459 32.2301 294.417 32.4589 295.333 36.2779C296.172 39.7723 296.46 40.1547 297.741 39.469C299.838 38.347 300.686 38.4911 302.469 40.2735C303.533 41.3377 304.052 42.9127 304.052 45.0767C304.052 49.1317 303.048 51.0187 300.069 52.5588C297.992 53.6333 297.718 54.1891 297.718 57.3272V60.8801L300.725 60.3987C304.428 59.8072 305.982 61.3156 305.867 65.392C305.764 68.9829 303.438 72.0933 300.232 72.9239C297.906 73.5273 297.718 73.8266 297.718 76.9282C297.718 79.6433 298.057 80.432 299.499 81.0718C301.307 81.8731 301.543 82.9017 300.597 85.8687C300.168 87.2125 300.969 88.2387 304.926 91.4116C307.596 93.5535 309.972 95.3058 310.207 95.3058C311.029 95.3058 313.612 86.5014 315.556 77.0651C316.843 70.8152 317.754 62.8937 318.199 54.0751C319.04 37.3983 320.034 34.9912 327.344 31.9371C331.537 30.1848 335.589 31.0122 339.593 34.4393C345.743 39.7034 346.682 49.2386 343.192 70.957C342.744 73.7426 342.87 74.3223 343.921 74.3223C344.62 74.3223 345.786 75.2289 346.513 76.3375C347.612 78.0154 347.684 78.8499 346.946 81.3149C345.816 85.0872 343.312 87.7834 340.939 87.7834C338.58 87.7834 337.354 89.2776 336.772 92.8598C336.349 95.4681 336.469 95.7017 338.236 95.7017C342.038 95.7017 343.17 99.1794 340.835 103.694C339.384 106.5 336.303 107.863 332.868 107.219C330.662 106.806 330.278 107.021 329.382 109.185C328.422 111.504 328.508 111.738 331.259 114.257C334.328 117.068 334.612 117.891 333.339 120.27C332.708 121.45 333.062 122.626 334.996 125.769L337.457 129.768L340.529 127.335C344.306 124.343 351.692 116.288 354.899 111.663C357.407 108.046 357.609 106.889 356.681 101.45C356.291 99.1676 356.425 97.7098 357.1 96.8974C358.384 95.3494 362.195 95.3604 363.75 96.9156C364.84 98.0051 365.198 97.7035 367.275 93.9462C374.215 81.3917 376.76 78.941 382.86 78.941C392.52 78.941 396.46 89.1129 391.149 100.34C389.839 103.109 386.797 108.233 384.39 111.728C380.228 117.769 380.079 118.154 381.354 119.563C383.48 121.913 381.659 126.825 377.686 129.454C374.957 131.26 374.277 131.402 372.06 130.629C368.647 129.439 368.58 129.458 367.494 131.841C366.662 133.666 366.766 134.171 368.307 135.812C370.613 138.266 369.66 141.309 365.899 143.505L363.219 145.071L359.753 143.231C357.846 142.22 356.055 141.624 355.771 141.907C355.489 142.189 355.651 143.703 356.132 145.271C356.658 146.985 356.737 148.83 356.331 149.898C355.603 151.815 351.464 153.94 349.744 153.281C348.935 152.97 349.056 154.286 350.265 158.931C351.133 162.262 351.949 165.127 352.08 165.298C352.5 165.848 362.118 162.07 366.608 159.589C375.086 154.906 375.334 154.639 375.148 150.372C375.05 148.118 375.415 146.029 376.039 145.278C377.385 143.655 381.937 143.624 383.268 145.228C383.828 145.902 384.495 146.17 384.752 145.822C387.244 142.451 395.395 136.071 398.165 135.325C404.71 133.562 410.952 138.547 410.952 145.534C410.952 151.151 407.509 155.835 395.907 166.004C387.894 173.026 386.39 173.744 383.169 172.079C379.902 170.389 379.15 171.164 379.74 175.617C380.228 179.29 380.162 179.45 377.489 181.102C373.894 183.323 371.735 183.251 369.308 180.824C366.205 177.721 363.76 178.289 365.095 181.802C366.112 184.476 365.421 186.328 362.993 187.434C360.254 188.682 357.883 188.578 356.295 187.14C355.06 186.024 354.929 186.359 354.515 191.693C354.269 194.86 353.807 198.116 353.488 198.926C353.488 206.757 351.34 213.872 350.265 216.451L361.707 222.232L387.316 235.181C408.758 246.021 413.216 248.567 414.71 250.82L416.495 253.511V328.71V407.002L269.677 485.594C237.11 499.505 202.287 503.348 165.463 497.094C128.696 490.849 92.0764 471.382 66.7293 444.604C41.7782 418.246 25.6554 383.869 20.4458 345.921C19.8393 341.504 19.4132 330.715 19.4132 319.79C19.4132 308.865 19.8393 298.076 20.4458 293.66C22.7374 276.964 28.1386 257.168 34.0925 243.638L34.3427 243.07C36.7233 237.661 37.3198 236.306 36.9585 235.965C36.8378 235.851 36.6099 235.85 36.3059 235.849C36.2747 235.849 36.2427 235.849 36.2099 235.849C34.4077 235.835 17.847 227.444 15.1974 225.2C11.6911 222.232 10.2769 219.245 10.2769 214.807C10.2769 210.148 12.4972 206.397 16.329 204.578C20.175 202.753 23.8571 203.429 31.7827 207.413L38.1381 210.608C40.142 211.616 43.5515 213.152 45.0058 213.795C46.5834 214.268 48.6271 215.106 51.0192 216.086C56.6277 218.385 64.1513 221.468 72.0719 222.483C78.0242 223.247 80.9129 223.221 87.0291 222.351C100.288 220.464 102.276 221.179 112.425 231.49C123.943 243.191 134.569 249.882 149.481 254.823C172.914 262.587 209.022 264.84 237.537 260.32C265.301 255.919 286.873 249.132 302.028 240.031C330.66 222.836 343.77 197.279 339.366 167.246C336.995 151.082 331.431 138.531 320.03 123.632C314.293 116.137 303.876 105.969 296.926 101.085C285.134 92.7981 268.761 86.4975 249.554 82.855C241.785 81.3822 237.59 81.1051 223.284 81.1178C203.875 81.1352 194.135 82.33 178.663 86.5909C151.865 93.9708 131.968 104.884 114.617 121.717L107.702 128.426L104.579 127.491C101.065 126.437 97.3802 122.592 97.3802 119.978C97.3802 119.024 96.6612 117.003 95.7814 115.485C91.4365 107.985 91.2006 105.592 94.7203 104.709C96.019 104.383 96.5131 103.811 96.2542 102.934C96.0435 102.222 95.6516 100.716 95.3831 99.5856C94.9817 97.8959 94.2476 97.4026 91.2631 96.8142C87.1067 95.9939 84.9228 93.6627 84.2125 89.2887C83.6313 85.7056 85.3504 83.8242 89.2067 83.8242C91.435 83.8242 91.9085 83.5685 91.526 82.5716C91.2615 81.8827 91.0454 80.3069 91.0454 79.0701C91.0454 77.199 90.5766 76.6661 88.2605 75.9012C84.9505 74.8092 83.1269 71.7646 83.1269 67.332C83.1269 63.8012 84.0827 62.7005 87.4821 62.3165C89.6058 62.0774 89.8837 61.7289 90.1062 59.0336C90.3145 56.5068 89.8972 55.5123 87.5327 52.8945C85.348 50.4762 84.7106 49.0961 84.7106 46.7823C84.7106 43.0837 86.5762 40.2735 89.0309 40.2735C90.6883 40.2735 91.0232 39.6614 92.1666 34.5327C93.4074 28.9701 96.1956 22.2213 98.3407 19.5885C102.035 15.0536 109.806 13.5848 114.61 16.5146C119.263 19.3509 120.466 22.3005 120.1 29.9797C119.923 33.6815 119.165 40.4516 118.413 45.0245C116.56 56.3049 117.036 73.186 119.519 84.3096L121.307 92.3182L129.733 87.1444C149.224 75.1774 170.905 67.2322 193.59 63.7442C206.996 61.683 208.656 61.554 221.507 61.5698C239.574 61.592 257.816 64.483 269.282 69.1421L274.204 71.1423L273.685 62.2405C272.986 50.2339 270.918 40.4311 265.999 25.7909C261.548 12.5483 261.404 10.6257 264.479 5.58492ZM270.812 302.084L222.905 281.782C204.413 283.872 192.049 284.955 175.796 280.757C172.494 279.904 168.701 278.924 164.093 277.836L163.104 331.382C163.104 331.382 160.762 335.735 184.896 334.547V295.78L254.453 323.859L254.656 427.942L184.894 394.016L184.896 394.016L184.73 393.936L184.727 394.041C176.888 395.203 170.589 395.187 163.104 392.828V409.251L184.166 420.463L254.656 454.76L269.677 462.826L286.523 454.76L400.658 396.206V260.32L339.922 228.768L323.074 245.864L357.1 260.32L270.812 302.084ZM49.2762 261.195C52.3153 252.484 56.1653 243.855 58.0784 241.466C58.814 240.548 59.0167 240.69 59.2068 242.258C59.761 246.85 62.5998 249.317 67.3272 249.317C69.4549 249.317 72.8329 247.01 72.8329 245.556C72.8329 245.229 75.1047 244.962 77.8809 244.962C82.5409 244.962 83.024 245.127 84.1626 247.111C86.6641 251.469 92.7494 250.871 95.3665 246.011L96.9161 243.133L103.681 250.02C113.282 259.795 122.669 265.7 137.764 271.464L145.287 274.336L145.401 294.463L145.409 295.779V295.78C145.48 308.096 145.507 312.915 144.631 313.085C144.068 313.195 143.131 311.384 141.592 308.408L141.336 307.913C136.649 298.862 129.176 295.995 124.168 301.326C122.684 302.906 122.323 304.167 122.323 307.787C122.323 311.661 122.813 313.14 125.861 318.465C132.906 330.781 145.536 341.953 158.52 347.358C160.077 348.007 161.589 348.575 163.104 349.071C170.82 351.596 178.59 352.217 192.632 351.73L194.777 351.656L207.051 351.231L211.13 353.3C218.188 356.881 220.127 361.113 217.035 366.183C215.035 369.462 209.906 372.341 201.412 374.951C194.959 376.933 193.309 377.11 181.316 377.103C165.723 377.094 160.075 375.847 147.559 369.648C133.742 362.804 123.954 355.055 113.855 342.965C105.987 333.545 101.757 331.832 97.8466 336.48C95.642 339.1 95.3372 341.465 96.6137 346.06C97.6241 349.698 102.677 357.326 107.759 362.887C109.097 364.352 114.66 368.365 121.108 373.017C131.946 380.835 145.287 389.977 145.287 389.977V419.275C145.287 419.275 157.182 425.61 163.104 427.942L252.995 471.536L247.777 472.832C214.46 482.975 178.457 482.068 143.273 470.2C103.377 456.743 70.0495 426.132 53.4564 387.703C42.6809 362.747 38.9378 342.607 39.8184 314.323C40.4851 292.907 42.8535 279.604 49.2762 261.195Z" fill="#28338B"/>
<path d="M1116.88 350C1075.7 350 1046.57 319.468 1046.57 276.611C1046.57 233.754 1075.7 203.221 1116.88 203.221C1158.05 203.221 1187.47 233.754 1187.47 276.611C1187.47 319.468 1158.05 350 1116.88 350ZM1116.88 321.148C1140.13 321.148 1156.93 302.661 1156.93 276.611C1156.93 250 1140.13 231.233 1116.88 231.233C1093.63 231.233 1077.1 250 1077.1 276.611C1077.1 302.661 1093.63 321.148 1116.88 321.148Z" fill="#28338B"/>
<path d="M1003.79 206.583H1033.2V346.639H1003.79V206.583ZM1018.63 190.616C1007.15 190.616 999.026 181.933 999.026 170.168C999.026 158.403 1007.15 150 1018.63 150C1030.12 150 1038.24 158.403 1038.24 170.168C1038.24 181.933 1030.12 190.616 1018.63 190.616Z" fill="#28338B"/>
<path d="M967.438 348.879C955.673 348.879 946.99 339.916 946.99 327.871C946.99 315.546 955.673 306.863 967.438 306.863C979.483 306.863 987.886 315.546 987.886 327.871C987.886 339.916 979.483 348.879 967.438 348.879Z" fill="#28338B"/>
<path d="M903.655 346.639V156.162H933.067V346.639H903.655Z" fill="#28338B"/>
<path d="M820.034 350C778.858 350 749.726 319.468 749.726 276.611C749.726 233.754 778.858 203.221 820.034 203.221C861.211 203.221 890.622 233.754 890.622 276.611C890.622 319.468 861.211 350 820.034 350ZM820.034 321.148C843.283 321.148 860.09 302.661 860.09 276.611C860.09 250 843.283 231.233 820.034 231.233C796.785 231.233 780.258 250 780.258 276.611C780.258 302.661 796.785 321.148 820.034 321.148Z" fill="#28338B"/>
<path d="M617.676 346.639L670.337 275.21L619.637 206.583H657.172L687.704 251.681L716.556 206.583H753.811L705.071 275.21L757.732 346.639H720.197L687.424 298.179L656.332 346.639H617.676Z" fill="#28338B"/>
<path d="M543.433 350C515.982 350 497.495 333.473 497.495 309.104C497.495 290.336 512.06 274.65 534.189 270.448L578.447 261.765C582.649 261.205 585.45 258.123 585.45 254.482C585.45 240.196 575.086 229.832 560.52 229.832C545.394 229.832 533.629 240.476 532.509 256.443L502.257 249.16C506.738 222.269 530.268 203.221 559.119 203.221C591.612 203.221 614.862 225.07 614.862 255.322V318.627L615.422 346.639H592.173L587.13 327.591C578.447 341.317 562.481 350 543.433 350ZM529.147 305.182C529.147 315.266 537.271 321.989 550.716 321.989C570.324 321.989 585.45 307.703 585.45 286.695V280.252C582.649 280.812 579.567 281.653 576.486 282.213L545.954 287.815C535.59 289.776 529.147 296.499 529.147 305.182Z" fill="#28338B"/>
</svg>
