<svg width="40" height="30" viewBox="0 0 40 30" fill="none" xmlns="http://www.w3.org/2000/svg">
<path d="M38 0H2C1.60218 0 1.22064 0.158036 0.93934 0.43934C0.658035 0.720645 0.5 1.10218 0.5 1.5V27C0.5 27.7956 0.81607 28.5587 1.37868 29.1213C1.94129 29.6839 2.70435 30 3.5 30H36.5C37.2957 30 38.0587 29.6839 38.6213 29.1213C39.1839 28.5587 39.5 27.7956 39.5 27V1.5C39.5 1.10218 39.342 0.720645 39.0607 0.43934C38.7794 0.158036 38.3978 0 38 0ZM20 15.9656L5.85687 3H34.1431L20 15.9656ZM14.5081 15L3.5 25.0894V4.91063L14.5081 15ZM16.7281 17.0344L18.9781 19.1062C19.2549 19.3603 19.6168 19.5012 19.9925 19.5012C20.3682 19.5012 20.7301 19.3603 21.0069 19.1062L23.2569 17.0344L34.1319 27H5.85687L16.7281 17.0344ZM25.4919 15L36.5 4.90875V25.0913L25.4919 15Z" fill="#15002E"/>
</svg>
