<svg width="1782" height="1000" viewBox="0 0 1782 1000" fill="none" xmlns="http://www.w3.org/2000/svg">
<rect width="1782" height="1000" fill="none"/>
<path d="M262.865 639.843L261.669 629.838C277.691 623.448 280.502 614.637 281.697 597.016C282.892 583.817 282.892 566.196 282.892 552.189V445.785C282.892 431.779 282.892 414.158 281.697 400.958C280.502 383.337 277.691 374.559 261.669 368.137L262.865 358.132C278.499 359.326 289.288 359.326 299.302 359.326H372.984C389.393 359.326 401.83 359.326 417.432 358.132C420.242 378.528 421.825 393.342 423.053 415.352L411.424 417.353C406.223 402.539 401.798 394.149 395.789 387.726C389.781 381.304 380.575 378.109 372.951 376.915C362.938 375.301 354.119 374.914 338.517 374.914C319.685 374.914 317.294 378.109 316.099 394.116C314.904 406.509 314.904 420.935 314.904 435.329V486.546C328.536 486.546 356.574 485.739 369.366 484.545C387.391 482.544 393.011 476.154 399.02 457.726L408.646 459.727C407.45 475.347 407.45 484.126 407.45 494.13C407.45 504.135 407.45 513.333 408.646 528.953L399.02 530.954C393.011 512.558 387.391 506.555 369.366 504.135C356.542 502.521 328.116 502.134 314.904 502.134V556.159C314.904 570.165 315.711 591.788 316.099 599.792C316.907 619.414 323.722 622.996 341.747 622.996C359.772 622.996 373.404 622.609 384.193 620.995C398.212 618.994 404.608 613.379 410.616 604.988C415.429 597.371 419.435 588.98 424.635 574.167L435.457 576.168C433.454 600.179 430.256 619.801 425.831 640.585C396.597 638.971 360.16 638.584 308.863 638.584C289.223 638.584 278.434 638.584 262.8 639.778L262.865 639.843Z" fill="#FDFFF9"/>
<path d="M488.967 514.599C494.588 499.398 495.783 491.782 495.783 487.78C495.783 485.391 494.588 484.165 492.585 484.165C488.579 484.165 480.568 490.555 462.156 512.178L454.533 505.368C477.37 472.16 493.78 456.959 506.992 456.959C515.39 456.959 523.014 464.575 523.014 476.581C523.014 489.393 516.618 506.982 510.61 523.409L484.574 597.024C480.181 609.029 479.373 612.224 479.373 613.838C479.373 615.839 480.988 617.84 483.379 617.84C487.772 617.84 495.783 613.451 515.423 585.438L523.434 591.053C502.211 632.266 483.766 643.464 469.747 643.464C460.541 643.464 452.53 635.461 452.53 625.069C452.53 615.871 455.34 607.061 464.934 581.049L488.967 514.631V514.599ZM519.816 346.94C531.832 346.94 541.039 356.138 541.039 368.144C541.039 380.149 531.832 389.347 519.816 389.347C507.799 389.347 498.593 380.149 498.593 368.144C498.593 356.138 507.799 346.94 519.816 346.94V346.94Z" fill="#FDFFF9"/>
<path d="M670.617 486.196C680.243 497.008 683.828 510.595 683.828 525.408C683.828 564.62 654.982 592.633 619.74 592.633C601.715 592.633 588.504 587.437 576.875 577.819C564.471 587.437 561.66 596.634 561.66 605.832C561.66 617.451 570.867 625.035 588.891 625.841L637.345 627.455C676.205 628.649 695.005 651.853 695.005 681.867C695.005 717.884 659.343 749.479 603.686 749.479C558.43 749.479 535.592 729.47 535.592 702.264C535.592 683.449 544.798 668.635 567.636 653.048C550.419 647.045 538.79 633.845 538.79 615.03C538.79 599.41 545.994 583.403 566.441 567.815C557.235 555.422 552.81 542.61 552.81 525.408C552.81 487.778 582.851 458.183 618.093 458.183C641.318 458.183 647.326 466.187 670.164 466.187C680.178 466.187 694.197 465.8 708.217 464.574L711.415 471.383L708.217 486.196H670.552H670.617ZM630.174 657.856C612.149 657.856 597.742 657.856 581.3 656.662C567.281 669.862 561.66 683.061 561.66 695.487C561.66 712.688 576.487 727.114 610.114 727.114C656.177 727.114 673.007 707.492 673.007 688.709C673.007 669.926 660.183 657.889 630.142 657.889L630.174 657.856ZM583.723 522.988C583.723 558.197 597.355 576.625 619.772 576.625C640.608 576.625 653.432 562.619 653.432 527.409C653.432 494.2 639.412 474.191 617.382 474.191C597.742 474.191 583.723 489.391 583.723 523.02V522.988Z" fill="#FDFFF9"/>
<path d="M800.885 562.618C839.325 562.618 868.591 591.019 868.591 629.456C868.591 632.651 868.591 635.458 867.784 638.653H744.421C743.613 643.462 743.613 647.851 743.613 653.854C743.613 695.067 768.454 723.079 800.498 723.079C826.146 723.079 841.748 714.269 858.158 690.677L867.784 696.68C855.767 726.694 832.122 751.512 796.492 751.512C746.423 751.512 713.184 709.105 713.184 660.276C713.184 604.638 751.236 562.651 800.885 562.651V562.618ZM833.317 622.646C832.929 595.44 814.485 580.627 792.067 580.627C767.646 580.627 752.012 599.022 747.199 622.646H833.317V622.646Z" fill="#FDFFF9"/>
<path d="M1035.53 668.668C1035.53 681.061 1035.53 695.067 1036.34 707.492C1037.53 723.887 1039.96 730.309 1054.75 736.312L1053.55 745.51C1039.54 744.316 1030.72 744.316 1021.51 744.316C1012.3 744.316 1003.49 744.316 989.467 745.51L988.272 736.312C1003.1 730.309 1005.1 723.919 1006.3 707.492C1007.49 695.099 1007.49 681.093 1007.49 668.668V626.261C1007.49 603.864 993.86 588.631 972.637 588.631C944.986 588.631 927.769 607.446 927.769 633.039V668.668C927.769 681.061 927.769 695.067 928.577 707.492C929.772 723.887 932.195 730.309 946.989 736.312L945.794 745.51C931.775 744.316 922.956 744.316 913.75 744.316C904.544 744.316 895.725 744.316 881.706 745.51L880.511 736.312C895.337 730.309 897.34 723.919 898.535 707.492C899.731 695.099 899.731 681.093 899.731 668.668V658.663C899.731 646.27 899.731 633.458 898.535 621.033C897.34 604.638 893.335 601.024 878.896 598.216V589.825C897.308 581.015 907.322 574.624 921.341 561.812L929.74 565.007C928.544 577.819 927.737 588.631 927.349 598.636L927.737 599.023C938.558 578.626 957.39 562.619 981.423 562.619C1001.06 562.619 1017.47 571.817 1027.1 587.437C1032.3 596.635 1035.5 606.639 1035.5 622.647V668.668H1035.53Z" fill="#FDFFF9"/>
<path d="M794.989 446.58C794.989 460.586 795.376 482.209 796.184 490.213C798.187 509.835 803.807 513.417 821.832 513.417C839.857 513.417 851.066 513.417 862.695 511.416C877.102 508.608 884.725 502.218 890.733 493.02C895.934 485.404 900.359 476.206 905.56 460.618L917.189 462.619C915.186 488.244 911.568 508.641 907.175 531.038C875.519 529.424 840.277 529.037 789.013 529.037C769.373 529.037 758.584 529.037 742.95 530.231L741.754 520.227C757.776 513.837 760.587 505.026 761.782 487.405C762.977 474.205 762.977 456.584 762.977 442.578V336.142C762.977 322.135 762.977 304.514 761.782 291.314C760.587 273.693 757.776 264.915 741.754 258.493L742.95 248.488C758.584 249.682 769.373 249.682 778.612 249.682C788.625 249.682 799.447 249.682 815.049 248.488L816.244 258.493C800.222 264.883 797.412 273.693 796.216 291.314C795.021 304.514 795.021 322.135 795.021 336.142V446.58H794.989Z" fill="#FDFFF9"/>
<path d="M947.557 376.932C955.18 362.926 975.208 348.112 998.821 348.112C1018.46 348.112 1033.68 354.922 1043.27 368.929C1049.67 378.126 1055.29 394.134 1055.29 412.142V450.547C1055.29 462.94 1055.29 474.558 1056.09 486.951C1056.9 500.15 1063.3 510.155 1076.12 516.158L1070.92 532.165C1043.27 530.971 1032.87 518.966 1029.25 500.957H1028.44C1017.62 525.356 1000.02 535.36 981.991 535.36C956.343 535.36 940.321 518.546 940.321 497.343C940.321 478.527 949.947 467.329 965.55 457.324C980.376 447.707 1006.8 438.122 1027.21 432.926V413.304C1027.21 400.911 1024.02 391.294 1018.82 384.484C1012.81 376.48 1002.41 373.285 993.588 373.285C979.956 373.285 968.747 378.901 955.148 389.68L947.525 376.868L947.557 376.932ZM1027.25 446.965C1018.85 449.772 1011.61 452.967 1004.02 456.162C976.791 467.781 968.78 479.786 968.78 490.565C968.78 501.345 974.788 510.962 988.807 510.962C1005.22 510.962 1027.25 496.568 1027.25 468.942V446.932V446.965Z" fill="#FDFFF9"/>
<path d="M1152.67 490.99L1179.09 428.962C1189.91 403.756 1191.5 394.559 1191.5 386.942C1191.5 378.551 1189.49 372.129 1177.48 365.739L1179.09 356.541C1190.72 357.735 1197.5 357.735 1206.32 357.735C1215.14 357.735 1220.73 357.735 1232.36 356.541L1233.55 365.739C1226.35 372.129 1221.92 379.358 1214.33 394.559C1208.33 406.564 1203.51 418.57 1198.7 429.381L1127.8 589.455C1120.17 606.657 1112.58 619.082 1104.57 627.473C1097.75 634.282 1086.93 640.285 1074.14 640.285C1063.32 640.285 1055.31 633.088 1055.31 623.471C1055.31 614.66 1061.32 607.076 1070.52 607.076C1078.15 607.076 1080.92 609.077 1088.16 609.077C1096.56 609.077 1102.57 602.687 1108.58 589.875L1137.42 527.459L1097.75 429.413C1093.36 418.215 1088.13 403.401 1081.73 389.008C1075.72 375.808 1072.91 372.193 1063.32 365.803L1064.93 356.606C1076.56 357.412 1088.58 357.8 1097.37 357.8C1106.15 357.8 1113.39 357.412 1125.02 356.606L1126.21 365.803C1117.39 369.805 1114.2 375.421 1114.2 381.811C1114.2 391.009 1115.81 398.625 1127.83 428.639L1152.67 491.055V490.99Z" fill="#FDFFF9"/>
<path d="M1318.53 347.342C1356.97 347.342 1386.21 375.742 1386.21 414.179C1386.21 417.374 1386.21 420.182 1385.4 423.377H1262.04C1261.23 428.186 1261.23 432.575 1261.23 438.578C1261.23 479.79 1286.07 507.803 1318.11 507.803C1343.76 507.803 1359.36 498.993 1375.77 475.401L1385.4 481.404C1373.38 511.418 1349.74 536.236 1314.11 536.236C1264.04 536.236 1230.8 493.829 1230.8 445C1230.8 389.361 1268.85 347.374 1318.5 347.374L1318.53 347.342ZM1350.96 407.37C1350.58 380.164 1332.13 365.35 1309.71 365.35C1285.29 365.35 1269.66 383.746 1264.85 407.37H1350.96Z" fill="#FDFFF9"/>
<path d="M1481.08 374.159C1462.25 374.159 1446.65 396.169 1446.65 434.574V453.389C1446.65 465.782 1446.65 479.788 1447.46 492.213C1448.65 508.608 1452.27 515.837 1469.87 521.033L1468.68 530.231C1454.66 529.037 1441.84 529.037 1432.63 529.037C1423.42 529.037 1414.6 529.037 1400.59 530.231L1399.39 521.033C1414.22 515.03 1416.22 508.64 1417.42 492.213C1418.61 479.821 1418.61 465.814 1418.61 453.389V443.384C1418.61 430.992 1418.61 418.179 1417.42 405.754C1416.22 389.36 1412.21 385.745 1397.78 382.937V374.546C1416.19 365.736 1426.2 359.346 1440.22 346.533L1448.62 349.728C1447.42 362.541 1446.62 378.548 1446.23 388.553L1446.62 388.94C1457.44 362.541 1475.85 347.308 1494.68 347.308C1511.09 347.308 1520.33 356.506 1520.33 367.317C1520.33 378.129 1514.32 381.324 1505.92 381.324C1495.52 381.324 1490.71 374.127 1481.08 374.127V374.159Z" fill="#FDFFF9"/>
</svg>
