<svg width="34" height="37" viewBox="0 0 34 37" fill="none" xmlns="http://www.w3.org/2000/svg">
<path d="M33.2656 33.6956L21.5281 15.2494L33.11 2.50875C33.3719 2.21348 33.5069 1.82687 33.4857 1.43273C33.4645 1.03859 33.2888 0.668691 32.9967 0.40323C32.7046 0.137769 32.3197 -0.0018597 31.9253 0.0146171C31.5309 0.031094 31.1589 0.202348 30.89 0.49125L19.8575 12.6262L12.2656 0.695625C12.1302 0.48254 11.9433 0.30707 11.722 0.185471C11.5008 0.0638721 11.2525 7.82442e-05 11 1.7744e-07H2C1.73105 -0.000130619 1.46702 0.0720513 1.23554 0.208987C1.00406 0.345923 0.81366 0.542576 0.68427 0.778354C0.55488 1.01413 0.491262 1.28036 0.500077 1.54916C0.508892 1.81797 0.589816 2.07946 0.734375 2.30625L12.4719 20.7506L0.890001 33.5006C0.754751 33.6459 0.649682 33.8166 0.580884 34.0028C0.512085 34.189 0.480926 34.387 0.489212 34.5853C0.497498 34.7836 0.545065 34.9783 0.629155 35.1581C0.713244 35.3379 0.832184 35.4993 0.979082 35.6328C1.12598 35.7663 1.29791 35.8693 1.48492 35.9358C1.67192 36.0024 1.87028 36.0312 2.06849 36.0205C2.2667 36.0099 2.46082 35.96 2.6396 35.8737C2.81838 35.7875 2.97827 35.6666 3.11 35.5181L14.1425 23.3831L21.7344 35.3138C21.8709 35.5251 22.0583 35.6987 22.2795 35.8186C22.5006 35.9386 22.7484 36.0009 23 36H32C32.2687 35.9999 32.5324 35.9277 32.7636 35.7908C32.9948 35.654 33.185 35.4576 33.3143 35.2221C33.4436 34.9866 33.5073 34.7207 33.4988 34.4522C33.4902 34.1837 33.4097 33.9224 33.2656 33.6956ZM23.8231 33L4.73188 3H10.1694L29.2681 33H23.8231Z" fill="#15002E"/>
</svg>
