<svg width="96" height="96" viewBox="0 0 96 96" fill="none" xmlns="http://www.w3.org/2000/svg">
<path d="M91.59 22.5C91.1581 22.2304 90.6647 22.0752 90.1563 22.049C89.6478 22.0227 89.1411 22.1263 88.6838 22.35C72.585 30.225 61.0875 26.535 48.9338 22.6425C36.1838 18.5587 22.965 14.34 4.7025 23.2575C4.19224 23.5022 3.76162 23.8863 3.46036 24.3654C3.15911 24.8445 2.99951 25.399 3 25.965V70.9387C2.99993 71.4477 3.12937 71.9484 3.37614 72.3936C3.62291 72.8388 3.9789 73.2138 4.4106 73.4835C4.8423 73.7532 5.33552 73.9086 5.84383 73.9351C6.35215 73.9616 6.85885 73.8583 7.31625 73.635C23.415 65.76 34.9125 69.45 47.085 73.3425C54.3 75.6487 61.65 78 69.96 78C76.3687 78 83.3588 76.605 91.3013 72.7275C91.8057 72.4812 92.2309 72.0983 92.5286 71.6223C92.8263 71.1463 92.9844 70.5964 92.985 70.035V25.0612C92.9895 24.5509 92.8638 24.0479 92.6197 23.5997C92.3756 23.1515 92.0212 22.773 91.59 22.5ZM87 68.1262C71.775 74.94 60.6563 71.385 48.915 67.6312C41.7 65.325 34.35 62.9737 26.04 62.9737C20.2016 63.0021 14.4227 64.1477 9.015 66.3487V27.8737C24.24 21.06 35.3587 24.615 47.1 28.3687C58.8412 32.1225 70.9275 36 87 29.6587V68.1262ZM48 36C45.6266 36 43.3065 36.7038 41.3332 38.0223C39.3598 39.3409 37.8217 41.2151 36.9134 43.4078C36.0052 45.6005 35.7676 48.0133 36.2306 50.3411C36.6936 52.6688 37.8365 54.807 39.5147 56.4853C41.1929 58.1635 43.3311 59.3064 45.6589 59.7694C47.9867 60.2324 50.3995 59.9948 52.5922 59.0865C54.7849 58.1783 56.6591 56.6402 57.9776 54.6668C59.2962 52.6934 60 50.3734 60 48C60 44.8174 58.7357 41.7651 56.4853 39.5147C54.2348 37.2643 51.1826 36 48 36ZM48 54C46.8133 54 45.6533 53.6481 44.6666 52.9888C43.6799 52.3295 42.9108 51.3924 42.4567 50.2961C42.0026 49.1997 41.8838 47.9933 42.1153 46.8294C42.3468 45.6655 42.9182 44.5965 43.7574 43.7573C44.5965 42.9182 45.6656 42.3468 46.8295 42.1153C47.9933 41.8838 49.1997 42.0026 50.2961 42.4567C51.3925 42.9108 52.3295 43.6799 52.9888 44.6666C53.6481 45.6532 54 46.8133 54 48C54 49.5913 53.3679 51.1174 52.2426 52.2426C51.1174 53.3678 49.5913 54 48 54ZM21 36V54C21 54.7956 20.6839 55.5587 20.1213 56.1213C19.5587 56.6839 18.7957 57 18 57C17.2044 57 16.4413 56.6839 15.8787 56.1213C15.3161 55.5587 15 54.7956 15 54V36C15 35.2043 15.3161 34.4413 15.8787 33.8787C16.4413 33.316 17.2044 33 18 33C18.7957 33 19.5587 33.316 20.1213 33.8787C20.6839 34.4413 21 35.2043 21 36ZM75 60V42C75 41.2043 75.3161 40.4413 75.8787 39.8787C76.4413 39.316 77.2044 39 78 39C78.7956 39 79.5587 39.316 80.1213 39.8787C80.6839 40.4413 81 41.2043 81 42V60C81 60.7956 80.6839 61.5587 80.1213 62.1213C79.5587 62.6839 78.7956 63 78 63C77.2044 63 76.4413 62.6839 75.8787 62.1213C75.3161 61.5587 75 60.7956 75 60Z" fill="#58A1C6"/>
</svg>
