<svg width="96" height="96" viewBox="0 0 96 96" fill="none" xmlns="http://www.w3.org/2000/svg">
<path opacity="0.2" d="M90 49.5C90 56.955 76.5675 63 60 63C52.65 63 45.915 61.8112 40.6987 59.835C55.035 58.8187 66 53.25 66 46.5V36.27C79.695 37.5225 90 42.9675 90 49.5ZM66 31.5C66 24.045 52.5675 18 36 18C19.4325 18 6 24.045 6 31.5C6 38.955 19.4325 45 36 45C52.5675 45 66 38.955 66 31.5Z" fill="#58A1C6"/>
<path d="M69 33.5887V31.5C69 22.095 54.8137 15 36 15C17.1863 15 3 22.095 3 31.5V46.5C3 54.3337 12.8438 60.5588 27 62.4225V64.5C27 73.905 41.1863 81 60 81C78.8137 81 93 73.905 93 64.5V49.5C93 41.7375 83.4675 35.505 69 33.5887ZM87 49.5C87 54.4575 75.4537 60 60 60C58.6012 60 57.2137 59.9513 55.845 59.8613C63.9337 56.9138 69 52.125 69 46.5V39.6525C80.2013 41.3212 87 45.8513 87 49.5ZM27 56.3438V47.4225C29.9842 47.8113 32.9906 48.0042 36 48C39.0094 48.0042 42.0158 47.8113 45 47.4225V56.3438C42.0203 56.7839 39.0121 57.0033 36 57C32.9879 57.0033 29.9797 56.7839 27 56.3438ZM63 41.2238V46.5C63 49.6463 58.3463 53.025 51 55.0762V46.3125C55.8412 45.1387 59.94 43.3913 63 41.2238ZM36 21C51.4537 21 63 26.5425 63 31.5C63 36.4575 51.4537 42 36 42C20.5463 42 9 36.4575 9 31.5C9 26.5425 20.5463 21 36 21ZM9 46.5V41.2238C12.06 43.3913 16.1588 45.1387 21 46.3125V55.0762C13.6537 53.025 9 49.6463 9 46.5ZM33 64.5V62.9363C33.9863 62.9738 34.9837 63 36 63C37.455 63 38.8762 62.9512 40.2712 62.8687C41.821 63.4235 43.3995 63.8942 45 64.2788V73.0762C37.6537 71.025 33 67.6463 33 64.5ZM51 74.3438V65.4C53.9832 65.801 56.99 66.0015 60 66C63.0094 66.0042 66.0158 65.8113 69 65.4225V74.3438C63.0319 75.2187 56.9681 75.2187 51 74.3438ZM75 73.0762V64.3125C79.8412 63.1387 83.94 61.3912 87 59.2237V64.5C87 67.6463 82.3463 71.025 75 73.0762Z" fill="#58A1C6"/>
</svg>
